<svg width="524" height="186" viewBox="0 0 524 186" fill="none" xmlns="http://www.w3.org/2000/svg">
<g clip-path="url(#clip0_2704_10364)">
<rect opacity="0.06" x="438.74" y="-61.3948" width="97.7409" height="97.7409" rx="24.5436" transform="rotate(45.0472 438.74 -61.3948)" fill="white"/>
<rect opacity="0.06" x="488.911" y="51.7405" width="97.7409" height="97.7409" rx="24.5436" transform="rotate(45.0472 488.911 51.7405)" fill="white"/>
<rect opacity="0.06" x="407.161" y="133.354" width="97.7409" height="97.7409" rx="24.5436" transform="rotate(45.0472 407.161 133.354)" fill="white"/>
<rect opacity="0.06" x="356.995" y="20.2172" width="97.7409" height="97.7409" rx="24.5436" transform="rotate(45.0472 356.995 20.2172)" fill="white"/>
<g clip-path="url(#clip1_2704_10364)">
<path d="M358.22 152.982C355.187 152.982 352.158 153.005 349.124 152.977C346.354 152.95 345.271 151.026 346.656 148.529C357.028 129.832 367.413 111.144 377.811 92.4652C379.126 90.1033 381.287 90.0763 382.611 92.4246C385.732 97.9479 388.809 103.503 391.864 109.067C392.96 111.058 392.93 113.109 391.816 115.114C385.377 126.711 378.933 138.309 372.484 149.902C371.345 151.948 369.626 152.995 367.312 152.986C364.278 152.973 361.249 152.986 358.216 152.986L358.22 152.982Z" fill="white"/>
<path d="M401.478 152.991C397.844 152.991 394.206 153.009 390.572 152.986C387.604 152.968 386.561 151.063 388.065 148.398C391.628 142.089 395.205 135.784 398.8 129.489C400.378 126.729 402.561 126.725 404.131 129.475C407.721 135.771 411.298 142.071 414.866 148.384C416.396 151.09 415.317 152.977 412.245 152.991C408.654 153.004 405.064 152.991 401.478 152.991Z" fill="white"/>
<path d="M467.978 27.832V85.6526C467.978 86.9113 466.987 87.9328 465.765 87.9328H447.174C445.952 87.9328 444.961 86.9113 444.961 85.6526V50.9939C444.961 49.7354 443.969 48.7139 442.747 48.7139H429.91C428.689 48.7139 427.697 47.6923 427.697 46.4337V27.2802C427.697 26.0215 428.689 25 429.91 25H465.229C466.748 25 467.978 26.2678 467.978 27.832Z" fill="#FF394A"/>
<path d="M468 131.493V150.647C468 151.906 467.009 152.927 465.787 152.927H441.64C426.374 152.927 413.997 140.176 413.997 124.448V92.7304C413.997 91.4717 413.005 90.4502 411.784 90.4502H399.111C397.889 90.4502 396.897 89.4287 396.897 88.1701V69.0165C396.897 67.758 397.889 66.7365 399.111 66.7365H411.784C413.005 66.7365 413.997 65.7149 413.997 64.4563V59.4399C413.997 58.1812 414.989 57.1597 416.21 57.1597H434.801C436.023 57.1597 437.015 58.1812 437.015 59.4399V123.713C437.015 126.751 439.405 129.213 442.353 129.213H465.787C467.009 129.213 468 130.235 468 131.493Z" fill="white"/>
</g>
</g>
<defs>
<clipPath id="clip0_2704_10364">
<rect width="524" height="186" fill="white"/>
</clipPath>
<clipPath id="clip1_2704_10364">
<rect width="122" height="128" fill="white" transform="translate(346 25)"/>
</clipPath>
</defs>
</svg>
