<?xml version="1.0" encoding="UTF-8"?> <svg xmlns="http://www.w3.org/2000/svg" width="152" height="128" viewBox="0 0 152 128" fill="none"><g filter="url(#filter0_ddd_2167_2184)"><path d="M50.6401 45.0742L26.3023 85.7651L3 124.723H49.5911L56.5023 113.165L59.8534 107.563L72.8933 85.7651L73.9378 84.019L71.6312 80.1623L58.8445 58.7851H58.8401L55.4711 53.148L50.649 45.0871V45.0828L50.6401 45.0742Z" fill="#F6B613"></path></g><path d="M99.7375 39.959L99.8059 40.0742L99.8108 40.0781L102.703 44.916L102.702 44.918L103.111 45.6006L123.188 79.1621H78.9407L78.1692 77.873L78.1018 77.7588L78.0969 77.7539L63.0715 52.6348L59.6985 46.9971L55.1829 39.4492L77.3069 2.46191L99.7375 39.959Z" stroke="white" stroke-width="2"></path><path d="M127.748 86.7651L149.855 123.723H58.0959L64.1028 113.679L67.4534 108.076L78.1653 90.1694L78.1643 90.1685L80.2024 86.7651H127.748Z" stroke="white" stroke-width="2"></path><defs><filter id="filter0_ddd_2167_2184" x="0.674015" y="42.7482" width="75.5897" height="84.3004" filterUnits="userSpaceOnUse" color-interpolation-filters="sRGB"><feFlood flood-opacity="0" result="BackgroundImageFix"></feFlood><feColorMatrix in="SourceAlpha" type="matrix" values="0 0 0 0 0 0 0 0 0 0 0 0 0 0 0 0 0 0 127 0" result="hardAlpha"></feColorMatrix><feOffset></feOffset><feGaussianBlur stdDeviation="0.166142"></feGaussianBlur><feColorMatrix type="matrix" values="0 0 0 0 0.964706 0 0 0 0 0.713726 0 0 0 0 0.0745098 0 0 0 1 0"></feColorMatrix><feBlend mode="normal" in2="BackgroundImageFix" result="effect1_dropShadow_2167_2184"></feBlend><feColorMatrix in="SourceAlpha" type="matrix" values="0 0 0 0 0 0 0 0 0 0 0 0 0 0 0 0 0 0 127 0" result="hardAlpha"></feColorMatrix><feOffset></feOffset><feGaussianBlur stdDeviation="0.332284"></feGaussianBlur><feColorMatrix type="matrix" values="0 0 0 0 0.964706 0 0 0 0 0.713726 0 0 0 0 0.0745098 0 0 0 1 0"></feColorMatrix><feBlend mode="normal" in2="effect1_dropShadow_2167_2184" result="effect2_dropShadow_2167_2184"></feBlend><feColorMatrix in="SourceAlpha" type="matrix" values="0 0 0 0 0 0 0 0 0 0 0 0 0 0 0 0 0 0 127 0" result="hardAlpha"></feColorMatrix><feOffset></feOffset><feGaussianBlur stdDeviation="1.16299"></feGaussianBlur><feColorMatrix type="matrix" values="0 0 0 0 0.964706 0 0 0 0 0.713726 0 0 0 0 0.0745098 0 0 0 1 0"></feColorMatrix><feBlend mode="normal" in2="effect2_dropShadow_2167_2184" result="effect3_dropShadow_2167_2184"></feBlend><feBlend mode="normal" in="SourceGraphic" in2="effect3_dropShadow_2167_2184" result="shape"></feBlend></filter></defs></svg> 