<svg width="106" height="20" viewBox="0 0 106 20" fill="none" xmlns="http://www.w3.org/2000/svg">
<path d="M28.0462 0H23.6238V0.0233744H23.5957V19.9875H28.0579V0.0233744H28.0462V0Z" fill="#122023"/>
<path d="M105.521 0.0195312H101.059V19.986H105.521V0.0195312Z" fill="#122023"/>
<path d="M64.9336 0.0195317C63.3445 0.0190616 61.7781 0.39771 60.3646 1.12403C58.9512 1.85036 57.7314 2.9034 56.8065 4.19572C55.8817 5.48804 55.2785 6.98235 55.047 8.55456C54.8155 10.1268 54.9624 11.7315 55.4756 13.2356C55.9887 14.7396 56.8532 16.0995 57.9974 17.2024C59.1415 18.3053 60.5323 19.1193 62.0541 19.5769C63.576 20.0345 65.1851 20.1224 66.7477 19.8334C68.3104 19.5443 69.7815 18.8867 71.039 17.915C71.4105 18.547 71.9406 19.0711 72.5769 19.4351C73.2132 19.7992 73.9336 19.9907 74.6667 19.9907H74.9239V9.98873C74.9189 7.34261 73.8641 4.8066 71.991 2.93748C70.118 1.06836 67.5797 0.0189078 64.9336 0.0195317ZM64.9336 15.5378C63.8403 15.5378 62.7715 15.2136 61.8624 14.6062C60.9533 13.9987 60.2448 13.1354 59.8264 12.1253C59.408 11.1151 59.2985 10.0036 59.5118 8.9313C59.7251 7.85896 60.2516 6.87395 61.0247 6.10084C61.7978 5.32773 62.7828 4.80123 63.8551 4.58793C64.9275 4.37463 66.039 4.4841 67.0491 4.90251C68.0592 5.32092 68.9226 6.02946 69.53 6.93854C70.1375 7.84763 70.4617 8.91642 70.4617 10.0098C70.4632 10.7367 70.3214 11.4568 70.0442 12.1288C69.7671 12.8009 69.3602 13.4117 68.8467 13.9262C68.3332 14.4408 67.7233 14.8491 67.0518 15.1276C66.3804 15.4061 65.6606 15.5495 64.9336 15.5495V15.5378Z" fill="#122023"/>
<path d="M42.0552 0.0195316C39.4177 0.0194666 36.8872 1.06237 35.0157 2.92077C33.1442 4.77916 32.0835 7.30224 32.0649 9.93964V19.9907H36.5295V10.0098C36.5295 8.54363 37.1119 7.13755 38.1486 6.10084C39.1853 5.06413 40.5914 4.48171 42.0575 4.48171C43.5236 4.48171 44.9297 5.06413 45.9664 6.10084C47.0031 7.13755 47.5856 8.54363 47.5856 10.0098V19.9907H52.0477V9.93964C52.0292 7.30183 50.9682 4.7784 49.0962 2.91994C47.2241 1.06148 44.693 0.0188494 42.0552 0.0195316Z" fill="#122023"/>
<path d="M10.0183 0.0210685H0V16.7759H0.257119C1.37299 16.7759 2.44316 16.3326 3.2322 15.5435C4.02124 14.7545 4.46452 13.6843 4.46452 12.5685V4.48325H10.0183C11.4844 4.48325 12.8905 5.06567 13.9272 6.10238C14.9639 7.13909 15.5463 8.54517 15.5463 10.0113C15.5463 11.4774 14.9639 12.8835 13.9272 13.9202C12.8905 14.9569 11.4844 15.5394 10.0183 15.5394H4.46218V19.9922H10.0183C12.6679 19.9922 15.2089 18.9396 17.0824 17.0661C18.956 15.1926 20.0085 12.6515 20.0085 10.002C20.0085 7.35238 18.956 4.81132 17.0824 2.93779C15.2089 1.06426 12.6679 0.0117188 10.0183 0.0117188V0.0210685Z" fill="#122023"/>
<path d="M97.1557 7.87568C97.1557 5.7921 96.328 3.79386 94.8547 2.32054C93.3814 0.84723 91.3831 0.0195313 89.2996 0.0195312H78.7109V19.9907H83.1731V11.2954L91.5155 19.9907H97.3824L92.6047 15.0119C93.9652 14.3807 95.1166 13.3733 95.923 12.1088C96.7294 10.8443 97.1572 9.37544 97.1557 7.87568ZM89.2996 11.2954H83.1731V4.48171H89.2996V4.456C90.2065 4.456 91.0763 4.81629 91.7176 5.4576C92.3589 6.09892 92.7192 6.96872 92.7192 7.87568C92.7192 8.78263 92.3589 9.65244 91.7176 10.2938C91.0763 10.9351 90.2065 11.2954 89.2996 11.2954Z" fill="#122023"/>
</svg>
