<svg xmlns="http://www.w3.org/2000/svg" id="Helika_Logo" data-name="Helika Logo" viewBox="0 0 1000 1000"><defs><style>.cls-1{fill:#fff;}</style></defs><path id="Icon" class="cls-1" d="M499.38,970.45h0a16.66,16.66,0,0,1-16.64-16.68l.17-176.35L390.23,861.6a16.66,16.66,0,0,1-24.89-21.82L449,719.15l-167.48,83.2a16.66,16.66,0,0,1-17.65-28.06L438.52,638.21,169.21,680a16.66,16.66,0,0,1-8-32.19l269-93.78-228.72-37.5a16.66,16.66,0,0,1,2.7-33.09H593.86L499.8,468A16.66,16.66,0,0,1,497,435.86l157.43-54.79L503.18,404.55a16.66,16.66,0,0,1-12.8-29.6l95.29-74.33-77.84,38.67a16.65,16.65,0,0,1-21.1-24.41l37-53.33-12.14,11a16.66,16.66,0,0,1-27.86-12.35l.21-214a16.66,16.66,0,0,1,16.66-16.64h0a16.66,16.66,0,0,1,16.64,16.68l-.17,176.35,92.66-84.18a16.66,16.66,0,0,1,24.88,21.83L551.08,280.61,718.5,197.44a16.66,16.66,0,0,1,17.65,28.05L561.41,361.8,830.79,320a16.66,16.66,0,0,1,8,32.19l-268.9,93.58,228.64,37.49a17,17,0,0,1-3.74,33.51H408.69l91.51,15A16.66,16.66,0,0,1,503,563.93L345,619l151.84-23.57a16.65,16.65,0,0,1,12.79,29.6L414.75,699l77.42-38.46a16.65,16.65,0,0,1,21.1,24.41L476,738.7l12.41-11.28a16.66,16.66,0,0,1,27.86,12.35l-.21,214A16.65,16.65,0,0,1,499.38,970.45Z"></path></svg>