<svg width="87" height="24" viewBox="0 0 87 24" fill="none" xmlns="http://www.w3.org/2000/svg">
<g clip-path="url(#clip0_136_5435)">
<path d="M25.962 3.0451C25.962 4.2551 25.1049 5.1401 23.899 5.1401C22.693 5.1401 21.811 4.2551 21.811 3.0451C21.811 1.8351 22.693 0.975098 23.899 0.975098C25.1049 0.975098 25.962 1.8351 25.962 3.0451Z" fill="#FF1469"/>
<path d="M27.8406 17.7901L22.2695 19.4401C20.4507 19.9801 18.7215 18.3751 19.1102 16.5151L20.4307 10.2301L17.1269 11.2801L15.3679 19.3501L11.8349 18.8151L13.1255 12.5501L8.98454 13.8601L7.78859 19.3501L4.25557 18.8151L5.01798 15.1201L1.04645 16.3801L0 13.0401L5.81528 11.2351L7.92812 0.995117L11.6754 1.50512L9.82668 9.99512L13.9128 8.73012L15.5074 0.995117L19.2547 1.50512L17.9541 7.47012L21.2629 6.44512C23.1066 5.87512 24.8707 7.52012 24.4421 9.40512L22.9522 15.9101L25.8374 15.0201C26.1663 16.3651 26.9088 17.2601 27.8356 17.7851L27.8406 17.7901Z" fill="#FF1469"/>
<path d="M86.113 14.3L81.8824 15.59C81.1299 15.83 80.5718 15.965 79.8443 15.965C78.8078 15.965 78.1101 15.55 77.6816 14.87L84.1297 12.915C85.1612 12.6 85.7742 11.535 85.52 10.485C84.9669 8.205 83.3025 6.13 80.1084 6.13C76.1916 6.13 73.6453 8.82 73.5506 12.88L72.4294 13.22C72.4942 12.725 72.5241 12.2 72.5241 11.64C72.5241 8.685 71.373 6.21 68.2137 6.21C66.5992 6.21 65.3584 7.08 64.302 9.035L66.2553 0.51L62.508 0L61.2772 5.935L56.3489 7.425C55.437 6.62 54.2012 6.13 52.6415 6.13C48.5952 6.13 45.8396 9.22 45.8396 13.36C45.8396 13.97 45.8994 14.565 46.019 15.125L43.4327 15.92L46.8212 0.735L43.044 0.225L40.6472 11.47L38.4397 12.135L39.5858 6.665L36.0478 6.13L35.4847 8.885C35.0063 7.175 33.5512 6.13 31.6278 6.13C28.7625 6.155 25.653 8.655 25.653 13.385C25.653 13.995 25.7178 14.54 25.8374 15.025C26.1663 16.37 26.9088 17.265 27.8356 17.79C28.5532 18.2 29.3804 18.385 30.2076 18.385C31.4633 18.385 32.749 17.98 33.6808 17.045L33.2373 19.02L26.8589 20.94L27.8207 24.005L34.3336 22.025C35.6641 21.62 36.6707 20.52 36.9547 19.155L37.6822 15.7L39.8798 15.035L39.5658 16.51C39.1672 18.37 40.8963 19.98 42.7152 19.445L47.4989 18.035C48.4308 19.005 49.7613 19.595 51.4904 19.595C55.7211 19.595 58.2923 16.18 58.2923 12.31C58.2923 11.595 58.2076 10.9 58.0332 10.25L60.5397 9.49L58.6412 18.65L62.1742 19.185L62.6725 16.72C63.1309 18.465 64.596 19.535 66.5444 19.535C68.2286 19.52 70.0026 18.645 71.1687 16.835L74.1237 15.94C75.0406 18.025 76.9491 19.585 79.4257 19.585C80.6067 19.585 81.4339 19.315 82.7494 18.915L86.9801 17.6L86.0981 14.295L86.113 14.3ZM31.3886 15.215C30.078 15.215 29.0864 14.38 29.0864 12.66C29.0864 10.615 30.4816 9.46 32.1659 9.46C33.9599 9.46 34.5778 10.645 34.5778 11.825C34.5778 14.165 33.1028 15.21 31.3886 15.21V15.215ZM51.8442 15.965C50.1549 15.965 49.4075 14.755 49.4075 13.17C49.4075 10.995 50.5037 9.705 52.193 9.705C53.8823 9.705 54.6846 10.915 54.6846 12.42C54.6846 14.41 53.5883 15.965 51.8442 15.965ZM66.0211 16.235C64.1973 16.235 63.6093 15.025 63.6093 13.495C63.6093 10.725 65.0544 9.385 66.6091 9.385C68.1639 9.385 69.1007 10.46 69.1007 12.315C69.1007 14.79 67.7054 16.24 66.0211 16.24V16.235ZM79.8941 9.165C80.9256 9.165 81.5086 9.705 81.8624 10.365L77.1833 11.78C77.4175 10.11 78.439 9.165 79.8891 9.165H79.8941Z" fill="#1A1A1A"/>
</g>
<defs>
<clipPath id="clip0_136_5435">
<rect width="87" height="24" fill="white"/>
</clipPath>
</defs>
</svg>
