<svg width="200" height="200" viewBox="0 0 200 200" fill="none" xmlns="http://www.w3.org/2000/svg">
<g clip-path="url(#clip0_4776_43489)">
<path d="M58.4648 153.434C49.6969 153.434 47.7813 150.271 43.729 150.271C39.6766 150.271 43.729 159.617 38.719 163.284H38.2031C39.6538 164.011 41.1559 164.635 42.6975 165.154C45.292 166.081 47.9511 166.826 50.6548 167.382L53.381 167.958C56.8908 168.534 60.4343 168.894 63.9906 169.036H65.538C77.0063 168.847 88.2619 165.981 98.3627 160.677C108.463 155.373 117.116 147.787 123.596 138.551L122.491 138.982C117.74 141.234 112.306 141.702 107.225 140.297C102.143 138.891 97.7691 135.711 94.9354 131.361C84.5469 116.406 78.8738 112.164 69.0744 112.164C75.6346 117.965 79.6028 126.044 80.1261 134.668C80.4946 148.114 69.1479 153.434 58.4648 153.434Z" fill="#E6E6E6"/>
<path d="M180.768 141.597C169.306 147.739 161.664 130.396 175.771 98.2385C175.771 98.2385 165.118 92.3851 131.687 133.07C129.85 135.238 128.013 137.622 126.029 140.296C119.252 149.983 110.209 157.927 99.6606 163.46C89.1119 168.993 77.3665 171.954 65.4124 172.093H64.2368C60.5386 172.04 56.8513 171.677 53.2156 171.009L50.3501 170.43C47.5662 169.808 44.8188 169.036 42.1209 168.118C39.5729 167.147 37.1148 165.962 34.7736 164.577L34.0387 164.143C28.0293 160.818 22.5771 156.601 17.8743 151.642C12.8273 146.221 8.64111 140.081 5.45703 133.431C12.0052 151.722 23.8257 167.742 39.476 179.536C57.6541 193.153 79.9636 200.357 102.811 199.986C114.218 199.841 125.518 197.814 136.242 193.989C157.91 186.312 176.331 171.705 188.556 152.509C193.626 144.704 192.156 135.527 180.768 141.597Z" fill="white"/>
<path d="M188.683 136.222C196.27 124.109 200.193 110.119 199.993 95.891C199.993 93.7949 199.993 91.6989 199.993 89.6028C199.108 72.6199 193.409 56.2202 183.542 42.2603C173.651 28.3003 160.237 17.1156 144.62 9.80749C136.839 6.15893 128.622 3.48784 120.164 1.85693C111.668 0.304474 103.019 -0.277644 94.3872 0.122215C77.1107 1.03943 60.3441 6.20859 45.6234 15.1561C30.8621 24.1822 18.799 36.9027 10.6665 52.018C8.68815 55.7637 6.94681 59.6256 5.45236 63.5826C4.02161 67.5539 2.8443 71.6095 1.9273 75.7254C0.194705 83.9694 -0.373694 92.4092 0.238194 100.806C1.51702 117.459 7.49409 133.429 17.4964 146.919C9.34128 132.853 5.27615 116.85 5.74613 100.661C5.63676 95.3706 5.93136 90.0796 6.62738 84.8325C14.8526 40.7425 51.8658 12.5541 99.895 12.5541C153.653 12.5541 194.485 48.6932 194.705 101.023C195.268 113.044 193.214 125.045 188.683 136.222Z" fill="white"/>
</g>
<defs>
<clipPath id="clip0_4776_43489">
<rect width="200" height="200" fill="white"/>
</clipPath>
</defs>
</svg>
