<svg xmlns="http://www.w3.org/2000/svg" xmlns:xlink="http://www.w3.org/1999/xlink" xmlns:serif="http://www.serif.com/" width="100%" height="100%" viewBox="0 0 425 116" xml:space="preserve" style="fill-rule:evenodd;clip-rule:evenodd;stroke-linejoin:round;stroke-miterlimit:2;">
    <g transform="matrix(1,0,0,1,-0.000473621,-0.0008)">
        <g transform="matrix(0.817031,0,0,0.817031,8.66581e-05,-25.131)">
            <path d="M181.656,97.003L181.656,88.897L200.902,88.897C206.768,88.897 210.261,85.205 210.261,79.801C210.261,74.265 206.768,70.771 200.902,70.771L175.527,70.771L175.527,110.317L167.222,110.317L167.222,62.401L200.902,62.401C211.975,62.401 218.433,69.057 218.433,79.537C218.433,89.885 211.975,97.003 200.902,97.003L181.656,97.003Z" style="fill:rgb(87,71,147);fill-rule:nonzero;"></path>
        </g>
        <g transform="matrix(0.817031,0,0,0.817031,8.66581e-05,-25.6697)">
            <path d="M267.402,110.976L260.217,98.915L237.545,98.915L241.499,92.127L256.197,92.127L245.52,74.199L223.769,110.976L214.212,110.976L241.763,65.103C242.752,63.456 244.004,62.401 245.849,62.401C247.695,62.401 248.882,63.456 249.87,65.103L277.486,110.976L267.402,110.976Z" style="fill:rgb(87,71,147);fill-rule:nonzero;"></path>
        </g>
        <g transform="matrix(0.817031,0,0,0.817031,8.66581e-05,-25.131)">
            <path d="M282.625,110.317L282.625,62.401L290.995,62.401L290.995,101.947L323.225,101.947L323.225,110.317L282.625,110.317Z" style="fill:rgb(87,71,147);fill-rule:nonzero;"></path>
        </g>
        <g transform="matrix(0.817031,0,0,0.817031,8.66581e-05,-25.6697)">
            <path d="M379.179,110.976L371.994,98.915L349.322,98.915L353.276,92.127L367.974,92.127L357.297,74.199L335.547,110.976L325.989,110.976L353.54,65.103C354.529,63.456 355.782,62.401 357.626,62.401C359.472,62.401 360.659,63.456 361.648,65.103L389.263,110.976L379.179,110.976Z" style="fill:rgb(87,71,147);fill-rule:nonzero;"></path>
        </g>
        <g transform="matrix(0.817031,0,0,0.817031,8.66581e-05,-25.1313)">
            <path d="M422.15,101.947C430.784,101.947 437.112,95.29 437.112,86.261C437.112,77.231 430.784,70.771 422.15,70.771L402.707,70.771L402.707,101.947L422.15,101.947ZM394.402,110.317L394.402,62.401L422.15,62.401C435.661,62.401 445.481,71.958 445.481,85.865C445.481,99.772 435.661,110.317 422.15,110.317L394.402,110.317Z" style="fill:rgb(87,71,147);fill-rule:nonzero;"></path>
        </g>
        <g transform="matrix(0.817031,0,0,0.817031,8.66581e-05,-25.1315)">
            <rect x="452.794" y="62.401" width="8.371" height="47.916" style="fill:rgb(87,71,147);"></rect>
        </g>
        <g transform="matrix(0.817031,0,0,0.817031,8.66581e-05,-25.1312)">
            <path d="M477.708,75.253L477.708,110.318L469.733,110.318L469.733,66.816C469.733,63.719 471.38,61.807 474.017,61.807C475.269,61.807 476.324,62.268 477.576,63.521L511.388,97.069L511.388,62.005L519.364,62.005L519.364,105.901C519.364,109.065 517.649,110.911 515.211,110.911C513.827,110.911 512.575,110.318 511.388,109.131L477.708,75.253Z" style="fill:rgb(87,71,147);fill-rule:nonzero;"></path>
        </g>
        <g transform="matrix(0.817031,0,0,0.817031,8.66581e-05,51.6043)">
            <path d="M172.171,44.972L175.247,44.972C175.987,44.972 176.577,44.791 177.016,44.428C177.454,44.066 177.676,43.554 177.676,42.89L177.676,42.683C177.676,42.02 177.459,41.507 177.027,41.145C176.596,40.783 176.002,40.601 175.247,40.601L172.171,40.601L172.171,44.972ZM172.171,38.08L175.224,38.08C175.933,38.08 176.507,37.904 176.946,37.548C177.386,37.194 177.605,36.701 177.605,36.069L177.605,35.838C177.605,35.205 177.386,34.713 176.946,34.357C176.507,34.003 175.933,33.826 175.224,33.826L172.171,33.826L172.171,38.08ZM167.222,47.493L167.222,45.041L169.395,45.041L169.395,33.757L167.222,33.757L167.222,31.305L175.5,31.305C176.472,31.305 177.324,31.471 178.057,31.802C178.788,32.134 179.358,32.604 179.767,33.213C180.176,33.822 180.38,34.55 180.38,35.398L180.38,35.607C180.38,36.346 180.243,36.956 179.965,37.433C179.688,37.911 179.356,38.281 178.97,38.543C178.584,38.805 178.215,38.99 177.86,39.099L177.86,39.492C178.215,39.584 178.595,39.757 179.004,40.012C179.413,40.265 179.759,40.636 180.045,41.121C180.33,41.607 180.473,42.235 180.473,43.006L180.473,43.237C180.473,44.117 180.261,44.875 179.837,45.515C179.413,46.155 178.836,46.645 178.103,46.984C177.37,47.323 176.526,47.493 175.571,47.493L167.222,47.493Z" style="fill:rgb(140,110,223);fill-rule:nonzero;"></path>
        </g>
        <g transform="matrix(0.817031,0,0,0.817031,8.66581e-05,51.6038)">
            <path d="M188.869,47.493L188.869,31.305L191.665,31.305L191.665,44.972L199.251,44.972L199.251,47.493L188.869,47.493Z" style="fill:rgb(140,110,223);fill-rule:nonzero;"></path>
        </g>
        <g transform="matrix(0.817031,0,0,0.817031,8.66581e-05,51.6041)">
            <path d="M212.871,45.319C214.074,45.319 215.01,44.969 215.681,44.267C216.351,43.565 216.686,42.614 216.686,41.411L216.686,37.387C216.686,36.185 216.351,35.233 215.681,34.531C215.01,33.83 214.074,33.479 212.871,33.479C211.683,33.479 210.756,33.83 210.085,34.531C209.414,35.233 209.079,36.185 209.079,37.387L209.079,41.411C209.079,42.614 209.414,43.565 210.085,44.267C210.756,44.969 211.683,45.319 212.871,45.319M212.871,47.816C210.867,47.816 209.267,47.257 208.073,46.139C206.878,45.023 206.28,43.415 206.28,41.318L206.28,37.48C206.28,35.384 206.878,33.776 208.073,32.658C209.267,31.541 210.867,30.982 212.871,30.982C214.891,30.982 216.493,31.541 217.681,32.658C218.867,33.776 219.461,35.384 219.461,37.48L219.461,41.318C219.461,43.415 218.867,45.023 217.681,46.139C216.493,47.257 214.891,47.816 212.871,47.816" style="fill:rgb(140,110,223);fill-rule:nonzero;"></path>
        </g>
        <g transform="matrix(0.817031,0,0,0.817031,8.66581e-05,51.6039)">
            <path d="M234.122,47.817C232.149,47.817 230.576,47.258 229.405,46.14C228.234,45.022 227.647,43.416 227.647,41.318L227.647,37.48C227.647,35.383 228.234,33.777 229.405,32.659C230.576,31.54 232.149,30.982 234.122,30.982C236.096,30.982 237.618,31.522 238.689,32.6C239.761,33.679 240.297,35.16 240.297,37.04L240.297,37.18L237.567,37.18L237.567,36.971C237.567,35.954 237.286,35.117 236.724,34.462C236.16,33.807 235.294,33.479 234.122,33.479C232.981,33.479 232.083,33.83 231.428,34.531C230.773,35.233 230.445,36.201 230.445,37.434L230.445,41.365C230.445,42.583 230.773,43.547 231.428,44.256C232.083,44.965 232.981,45.32 234.122,45.32C235.294,45.32 236.16,44.992 236.724,44.336C237.286,43.681 237.567,42.845 237.567,41.828L237.567,41.434L240.297,41.434L240.297,41.758C240.297,43.639 239.761,45.119 238.689,46.198C237.618,47.278 236.096,47.817 234.122,47.817" style="fill:rgb(140,110,223);fill-rule:nonzero;"></path>
        </g>
        <g transform="matrix(0.817031,0,0,0.817031,8.66581e-05,51.6038)">
            <path d="M248.691,47.493L248.691,31.305L251.489,31.305L251.489,37.896L251.882,37.896L257.526,31.305L261.109,31.305L254.057,39.284L261.341,47.493L257.663,47.493L251.882,40.764L251.489,40.764L251.489,47.493L248.691,47.493Z" style="fill:rgb(140,110,223);fill-rule:nonzero;"></path>
        </g>
        <g transform="matrix(0.817031,0,0,0.817031,8.66581e-05,51.6039)">
            <path d="M274.244,47.817C272.27,47.817 270.697,47.258 269.527,46.14C268.355,45.022 267.769,43.416 267.769,41.318L267.769,37.48C267.769,35.383 268.355,33.777 269.527,32.659C270.697,31.54 272.27,30.982 274.244,30.982C276.218,30.982 277.74,31.522 278.81,32.6C279.883,33.679 280.418,35.16 280.418,37.04L280.418,37.18L277.689,37.18L277.689,36.971C277.689,35.954 277.408,35.117 276.846,34.462C276.282,33.807 275.416,33.479 274.244,33.479C273.103,33.479 272.205,33.83 271.549,34.531C270.895,35.233 270.567,36.201 270.567,37.434L270.567,41.365C270.567,42.583 270.895,43.547 271.549,44.256C272.205,44.965 273.103,45.32 274.244,45.32C275.416,45.32 276.282,44.992 276.846,44.336C277.408,43.681 277.689,42.845 277.689,41.828L277.689,41.434L280.418,41.434L280.418,41.758C280.418,43.639 279.883,45.119 278.81,46.198C277.74,47.278 276.218,47.817 274.244,47.817" style="fill:rgb(140,110,223);fill-rule:nonzero;"></path>
        </g>
        <g transform="matrix(0.817031,0,0,0.817031,8.66581e-05,51.6038)">
            <path d="M288.813,47.493L288.813,31.305L291.61,31.305L291.61,38.105L297.992,38.105L297.992,31.305L300.79,31.305L300.79,47.493L297.992,47.493L297.992,40.648L291.61,40.648L291.61,47.493L288.813,47.493Z" style="fill:rgb(140,110,223);fill-rule:nonzero;"></path>
        </g>
        <g transform="matrix(0.817031,0,0,0.817031,8.66581e-05,51.6045)">
            <path d="M313.116,41.249L317.856,41.249L315.683,33.04L315.289,33.04L313.116,41.249ZM308.63,47.493L313.069,31.305L317.903,31.305L322.343,47.493L319.475,47.493L318.505,43.792L312.469,43.792L311.497,47.493L308.63,47.493Z" style="fill:rgb(140,110,223);fill-rule:nonzero;"></path>
        </g>
        <g transform="matrix(0.817031,0,0,0.817031,8.66581e-05,51.604)">
            <rect x="330.183" y="31.305" width="2.797" height="16.188" style="fill:rgb(140,110,223);"></rect>
        </g>
        <g transform="matrix(0.817031,0,0,0.817031,8.66581e-05,51.6038)">
            <path d="M341.953,47.493L341.953,31.305L347.271,31.305L351.086,45.62L351.458,45.62L351.458,31.305L354.209,31.305L354.209,47.493L348.912,47.493L345.098,33.179L344.704,33.179L344.704,47.493L341.953,47.493Z" style="fill:rgb(140,110,223);fill-rule:nonzero;"></path>
        </g>
        <g transform="matrix(0.817031,0,0,0.817031,8.66581e-05,51.6039)">
            <path d="M380.432,47.817C379.197,47.817 378.108,47.597 377.159,47.158C376.211,46.718 375.467,46.082 374.927,45.25C374.388,44.417 374.119,43.4 374.119,42.198L374.119,41.596L376.871,41.596L376.871,42.198C376.871,43.261 377.195,44.055 377.842,44.579C378.489,45.103 379.353,45.366 380.432,45.366C381.526,45.366 382.352,45.143 382.907,44.695C383.461,44.248 383.738,43.67 383.738,42.961C383.738,42.483 383.607,42.093 383.345,41.792C383.083,41.493 382.701,41.249 382.201,41.064C381.699,40.879 381.095,40.702 380.385,40.532L379.691,40.394C378.628,40.147 377.708,39.835 376.929,39.457C376.15,39.079 375.552,38.589 375.136,37.988C374.718,37.388 374.512,36.601 374.512,35.63C374.512,34.659 374.743,33.826 375.204,33.133C375.669,32.438 376.323,31.907 377.172,31.536C378.019,31.167 379.013,30.982 380.155,30.982C381.296,30.982 382.312,31.175 383.208,31.56C384.1,31.945 384.806,32.524 385.323,33.294C385.84,34.065 386.097,35.029 386.097,36.185L386.097,36.948L383.345,36.948L383.345,36.185C383.345,35.522 383.214,34.99 382.951,34.589C382.69,34.189 382.32,33.896 381.843,33.71C381.364,33.525 380.802,33.433 380.155,33.433C379.197,33.433 378.473,33.618 377.98,33.988C377.486,34.358 377.241,34.882 377.241,35.561C377.241,35.992 377.351,36.358 377.576,36.659C377.799,36.96 378.13,37.207 378.571,37.398C379.009,37.593 379.561,37.757 380.223,37.896L380.918,38.059C382.027,38.305 382.999,38.617 383.83,38.994C384.662,39.372 385.314,39.87 385.785,40.487C386.255,41.103 386.49,41.905 386.49,42.891C386.49,43.862 386.239,44.718 385.74,45.458C385.237,46.198 384.536,46.776 383.634,47.192C382.732,47.609 381.665,47.817 380.432,47.817" style="fill:rgb(140,110,223);fill-rule:nonzero;"></path>
        </g>
        <g transform="matrix(0.817031,0,0,0.817031,8.66581e-05,51.6038)">
            <path d="M394.699,47.493L394.699,31.305L405.013,31.305L405.013,33.826L397.498,33.826L397.498,38.081L404.366,38.081L404.366,40.601L397.498,40.601L397.498,44.972L405.128,44.972L405.128,47.493L394.699,47.493Z" style="fill:rgb(140,110,223);fill-rule:nonzero;"></path>
        </g>
        <g transform="matrix(0.817031,0,0,0.817031,8.66581e-05,51.6039)">
            <path d="M419.419,47.817C417.447,47.817 415.873,47.258 414.703,46.14C413.531,45.022 412.945,43.416 412.945,41.318L412.945,37.48C412.945,35.383 413.531,33.777 414.703,32.659C415.873,31.54 417.447,30.982 419.419,30.982C421.394,30.982 422.916,31.522 423.986,32.6C425.059,33.679 425.594,35.16 425.594,37.04L425.594,37.18L422.865,37.18L422.865,36.971C422.865,35.954 422.584,35.117 422.022,34.462C421.458,33.807 420.592,33.479 419.419,33.479C418.278,33.479 417.381,33.83 416.726,34.531C416.071,35.233 415.743,36.201 415.743,37.434L415.743,41.365C415.743,42.583 416.071,43.547 416.726,44.256C417.381,44.965 418.278,45.32 419.419,45.32C420.592,45.32 421.458,44.992 422.022,44.336C422.584,43.681 422.865,42.845 422.865,41.828L422.865,41.434L425.594,41.434L425.594,41.758C425.594,43.639 425.059,45.119 423.986,46.198C422.916,47.278 421.394,47.817 419.419,47.817" style="fill:rgb(140,110,223);fill-rule:nonzero;"></path>
        </g>
        <g transform="matrix(0.817031,0,0,0.817031,8.66581e-05,51.8683)">
            <path d="M440.138,47.493C438.844,47.493 437.731,47.258 436.798,46.788C435.864,46.317 435.148,45.635 434.647,44.741C434.146,43.848 433.896,42.784 433.896,41.551L433.896,30.982L436.67,30.982L436.67,41.62C436.67,42.698 436.971,43.531 437.572,44.117C438.174,44.703 439.029,44.996 440.138,44.996C441.264,44.996 442.124,44.703 442.717,44.117C443.31,43.531 443.608,42.698 443.608,41.62L443.608,30.982L446.383,30.982L446.383,41.551C446.383,42.784 446.136,43.848 445.643,44.741C445.149,45.635 444.432,46.317 443.492,46.788C442.552,47.258 441.434,47.493 440.138,47.493" style="fill:rgb(140,110,223);fill-rule:nonzero;"></path>
        </g>
        <g transform="matrix(0.817031,0,0,0.817031,8.66581e-05,51.6042)">
            <path d="M458.083,38.729L461.923,38.729C462.725,38.729 463.353,38.516 463.807,38.093C464.262,37.669 464.488,37.102 464.488,36.392L464.488,36.185C464.488,35.46 464.265,34.886 463.818,34.462C463.372,34.038 462.74,33.826 461.923,33.826L458.083,33.826L458.083,38.729ZM455.287,47.493L455.287,31.305L462.2,31.305C463.217,31.305 464.104,31.482 464.859,31.837C465.614,32.192 466.205,32.689 466.628,33.329C467.053,33.968 467.264,34.735 467.264,35.629L467.264,35.884C467.264,36.885 467.025,37.687 466.548,38.289C466.07,38.89 465.492,39.33 464.814,39.607L464.814,39.977C465.413,40.008 465.888,40.216 466.235,40.601C466.582,40.986 466.755,41.503 466.755,42.151L466.755,47.493L463.981,47.493L463.981,42.544C463.981,42.158 463.877,41.847 463.668,41.607C463.46,41.368 463.124,41.249 462.663,41.249L458.083,41.249L458.083,47.493L455.287,47.493Z" style="fill:rgb(140,110,223);fill-rule:nonzero;"></path>
        </g>
        <g transform="matrix(0.817031,0,0,0.817031,8.66581e-05,51.604)">
            <rect x="475.682" y="31.305" width="2.798" height="16.188" style="fill:rgb(140,110,223);"></rect>
        </g>
        <g transform="matrix(0.817031,0,0,0.817031,8.66581e-05,51.6038)">
            <path d="M491.268,47.493L491.268,33.826L486.435,33.826L486.435,31.305L498.875,31.305L498.875,33.826L494.044,33.826L494.044,47.493L491.268,47.493Z" style="fill:rgb(140,110,223);fill-rule:nonzero;"></path>
        </g>
        <g transform="matrix(0.817031,0,0,0.817031,8.66581e-05,51.6038)">
            <path d="M511.017,47.493L511.017,41.782L505.443,31.305L508.564,31.305L512.218,38.451L512.611,38.451L516.266,31.305L519.363,31.305L513.792,41.782L513.792,47.493L511.017,47.493Z" style="fill:rgb(140,110,223);fill-rule:nonzero;"></path>
        </g>
        <g transform="matrix(0.817031,0,0,0.817031,8.66581e-05,9.91736)">
            <path d="M94.843,33.957L94.843,58.182C94.843,64.807 92.632,71.596 88.624,77.294C85.03,82.407 80.155,86.483 74.087,89.453C76.757,90.573 80.366,91.946 81.792,92.484C86.624,89.388 90.663,85.548 93.872,80.988C98.636,74.216 101.261,66.116 101.261,58.182L101.261,34.977C99.432,34.655 97.263,34.302 94.843,33.957M70.977,90.84C63.451,87.801 57.524,83.252 53.335,77.294C49.323,71.596 47.115,64.807 47.115,58.182L47.115,43.406C45.041,43.716 40.697,44.529 40.697,44.529L40.697,58.182C40.697,66.116 43.322,74.216 48.082,80.988C53.448,88.615 61.143,94.231 70.977,97.7L70.981,97.7C73.894,96.673 76.619,95.457 79.15,94.052C78.997,93.998 74.111,92.169 70.977,90.84M70.977,32.12C59.132,32.12 47.541,33.778 40.697,34.977L40.697,41.566C40.697,41.566 45.041,40.753 47.115,40.442C53.847,39.444 62.349,38.538 70.977,38.538C78.386,38.538 85.7,39.205 91.88,40.029L91.88,33.557C85.753,32.773 78.415,32.12 70.977,32.12" style="fill:rgb(140,110,223);fill-rule:nonzero;"></path>
        </g>
        <g transform="matrix(60.1109,-5.80535e-15,5.62446e-06,-60.1109,105.557,169.869)">
            <path d="M-0.733,2.804C-0.734,2.79 -0.725,2.779 -0.711,2.777C-0.698,2.776 -0.686,2.786 -0.685,2.799C-0.684,2.813 -0.693,2.825 -0.707,2.826C-0.708,2.826 -0.708,2.826 -0.709,2.826C-0.722,2.826 -0.732,2.816 -0.733,2.804ZM-0.876,2.826C-0.889,2.825 -0.899,2.813 -0.898,2.799C-0.897,2.786 -0.885,2.776 -0.871,2.777C-0.858,2.779 -0.848,2.79 -0.849,2.804C-0.85,2.816 -0.861,2.826 -0.874,2.826C-0.874,2.826 -0.875,2.826 -0.876,2.826ZM-0.57,2.779C-0.574,2.766 -0.566,2.753 -0.553,2.75C-0.54,2.746 -0.527,2.754 -0.523,2.767C-0.52,2.78 -0.528,2.793 -0.541,2.797C-0.543,2.797 -0.545,2.797 -0.547,2.797C-0.558,2.797 -0.568,2.79 -0.57,2.779ZM-1.042,2.797C-1.055,2.793 -1.063,2.78 -1.059,2.767C-1.056,2.754 -1.042,2.746 -1.029,2.75C-1.016,2.753 -1.009,2.766 -1.012,2.779C-1.015,2.79 -1.025,2.797 -1.036,2.797C-1.038,2.797 -1.04,2.797 -1.042,2.797ZM-0.823,2.732C-0.823,2.715 -0.809,2.7 -0.791,2.7C-0.774,2.7 -0.759,2.715 -0.759,2.732C-0.759,2.75 -0.774,2.764 -0.791,2.764C-0.809,2.764 -0.823,2.75 -0.823,2.732ZM-0.671,2.725C-0.674,2.707 -0.663,2.691 -0.646,2.688C-0.628,2.685 -0.612,2.696 -0.609,2.713C-0.606,2.731 -0.617,2.747 -0.634,2.75C-0.636,2.751 -0.638,2.751 -0.64,2.751C-0.655,2.751 -0.669,2.74 -0.671,2.725ZM-0.948,2.75C-0.965,2.747 -0.977,2.731 -0.974,2.713C-0.971,2.696 -0.954,2.685 -0.937,2.688C-0.92,2.691 -0.908,2.707 -0.911,2.725C-0.914,2.74 -0.927,2.751 -0.942,2.751C-0.944,2.751 -0.946,2.751 -0.948,2.75ZM-0.414,2.727C-0.42,2.715 -0.415,2.7 -0.403,2.695C-0.39,2.689 -0.376,2.694 -0.37,2.706C-0.365,2.719 -0.37,2.733 -0.382,2.739C-0.385,2.74 -0.389,2.741 -0.392,2.741C-0.401,2.741 -0.41,2.736 -0.414,2.727ZM-1.201,2.739C-1.213,2.733 -1.218,2.719 -1.212,2.706C-1.207,2.694 -1.192,2.689 -1.18,2.695C-1.168,2.7 -1.163,2.715 -1.168,2.727C-1.172,2.736 -1.181,2.741 -1.19,2.741C-1.194,2.741 -1.197,2.74 -1.201,2.739ZM-0.523,2.691C-0.529,2.674 -0.521,2.656 -0.504,2.65C-0.488,2.644 -0.469,2.652 -0.463,2.669C-0.457,2.685 -0.466,2.704 -0.482,2.71C-0.486,2.711 -0.49,2.712 -0.493,2.712C-0.506,2.712 -0.519,2.704 -0.523,2.691ZM-1.1,2.71C-1.117,2.704 -1.125,2.685 -1.119,2.669C-1.113,2.652 -1.095,2.644 -1.078,2.65C-1.062,2.656 -1.053,2.674 -1.059,2.691C-1.064,2.704 -1.076,2.712 -1.089,2.712C-1.093,2.712 -1.096,2.711 -1.1,2.71ZM-0.759,2.656C-0.761,2.635 -0.746,2.617 -0.725,2.615C-0.705,2.613 -0.687,2.629 -0.685,2.649C-0.683,2.67 -0.698,2.688 -0.719,2.69C-0.72,2.69 -0.721,2.69 -0.722,2.69C-0.741,2.69 -0.758,2.675 -0.759,2.656ZM-0.864,2.69C-0.884,2.688 -0.899,2.67 -0.898,2.649C-0.896,2.629 -0.878,2.613 -0.857,2.615C-0.837,2.617 -0.822,2.635 -0.823,2.656C-0.825,2.675 -0.841,2.69 -0.86,2.69C-0.862,2.69 -0.863,2.69 -0.864,2.69ZM-0.622,2.638C-0.627,2.618 -0.615,2.598 -0.595,2.592C-0.575,2.587 -0.555,2.599 -0.55,2.619C-0.544,2.639 -0.556,2.659 -0.576,2.664C-0.579,2.665 -0.583,2.666 -0.586,2.666C-0.602,2.666 -0.617,2.655 -0.622,2.638ZM-1.007,2.664C-1.026,2.659 -1.038,2.639 -1.033,2.619C-1.028,2.599 -1.007,2.587 -0.987,2.592C-0.967,2.598 -0.955,2.618 -0.961,2.638C-0.965,2.655 -0.98,2.666 -0.997,2.666C-1,2.666 -1.003,2.665 -1.007,2.664ZM-0.27,2.648C-0.277,2.637 -0.275,2.622 -0.264,2.615C-0.253,2.607 -0.238,2.61 -0.23,2.621C-0.222,2.632 -0.225,2.647 -0.236,2.654C-0.24,2.657 -0.245,2.659 -0.25,2.659C-0.257,2.659 -0.265,2.655 -0.27,2.648ZM-1.347,2.654C-1.358,2.647 -1.36,2.632 -1.353,2.621C-1.345,2.61 -1.33,2.607 -1.319,2.615C-1.308,2.622 -1.305,2.637 -1.313,2.648C-1.318,2.655 -1.325,2.659 -1.333,2.659C-1.338,2.659 -1.342,2.657 -1.347,2.654ZM-0.383,2.631C-0.392,2.616 -0.387,2.597 -0.372,2.588C-0.356,2.579 -0.337,2.584 -0.328,2.6C-0.319,2.615 -0.325,2.634 -0.34,2.643C-0.345,2.646 -0.35,2.647 -0.356,2.647C-0.367,2.647 -0.377,2.642 -0.383,2.631ZM-1.243,2.643C-1.258,2.634 -1.263,2.615 -1.254,2.6C-1.246,2.584 -1.226,2.579 -1.211,2.588C-1.196,2.597 -1.19,2.616 -1.199,2.631C-1.205,2.642 -1.216,2.647 -1.227,2.647C-1.232,2.647 -1.238,2.646 -1.243,2.643ZM-0.489,2.597C-0.498,2.578 -0.49,2.556 -0.471,2.547C-0.453,2.539 -0.43,2.547 -0.422,2.565C-0.413,2.584 -0.421,2.606 -0.44,2.615C-0.445,2.617 -0.45,2.618 -0.456,2.618C-0.47,2.618 -0.483,2.61 -0.489,2.597ZM-1.143,2.615C-1.161,2.606 -1.17,2.584 -1.161,2.565C-1.152,2.547 -1.13,2.539 -1.111,2.547C-1.093,2.556 -1.084,2.578 -1.093,2.597C-1.099,2.61 -1.113,2.618 -1.127,2.618C-1.132,2.618 -1.138,2.617 -1.143,2.615ZM-0.835,2.575C-0.835,2.55 -0.815,2.531 -0.791,2.531C-0.767,2.531 -0.748,2.55 -0.748,2.575C-0.748,2.599 -0.767,2.618 -0.791,2.618C-0.815,2.618 -0.835,2.599 -0.835,2.575ZM-0.71,2.571C-0.715,2.548 -0.699,2.525 -0.675,2.521C-0.651,2.517 -0.629,2.532 -0.624,2.556C-0.62,2.58 -0.636,2.602 -0.66,2.607C-0.662,2.607 -0.665,2.607 -0.667,2.607C-0.688,2.607 -0.707,2.592 -0.71,2.571ZM-0.923,2.607C-0.946,2.602 -0.962,2.58 -0.958,2.556C-0.954,2.532 -0.931,2.517 -0.908,2.521C-0.884,2.525 -0.868,2.548 -0.872,2.571C-0.876,2.592 -0.894,2.607 -0.915,2.607C-0.918,2.607 -0.92,2.607 -0.923,2.607ZM-0.588,2.546C-0.597,2.524 -0.585,2.499 -0.562,2.491C-0.54,2.482 -0.515,2.494 -0.506,2.517C-0.498,2.539 -0.51,2.564 -0.532,2.572C-0.537,2.574 -0.542,2.575 -0.547,2.575C-0.565,2.575 -0.582,2.564 -0.588,2.546ZM-1.05,2.572C-1.073,2.564 -1.084,2.539 -1.076,2.517C-1.068,2.494 -1.043,2.482 -1.02,2.491C-0.998,2.499 -0.986,2.524 -0.994,2.546C-1.001,2.564 -1.017,2.575 -1.035,2.575C-1.04,2.575 -1.045,2.574 -1.05,2.572ZM-0.256,2.549C-0.267,2.535 -0.265,2.515 -0.252,2.504C-0.238,2.493 -0.218,2.494 -0.207,2.508C-0.196,2.521 -0.197,2.542 -0.211,2.553C-0.217,2.558 -0.224,2.56 -0.231,2.56C-0.24,2.56 -0.249,2.556 -0.256,2.549ZM-1.372,2.553C-1.385,2.542 -1.387,2.521 -1.376,2.508C-1.364,2.494 -1.344,2.493 -1.331,2.504C-1.317,2.515 -1.315,2.535 -1.327,2.549C-1.333,2.556 -1.342,2.56 -1.351,2.56C-1.358,2.56 -1.366,2.558 -1.372,2.553ZM-0.141,2.546C-0.15,2.536 -0.15,2.521 -0.141,2.511C-0.131,2.502 -0.116,2.502 -0.107,2.511C-0.097,2.521 -0.097,2.536 -0.107,2.546C-0.111,2.551 -0.118,2.553 -0.124,2.553C-0.13,2.553 -0.136,2.551 -0.141,2.546ZM-1.476,2.546C-1.486,2.536 -1.486,2.521 -1.476,2.511C-1.466,2.502 -1.451,2.502 -1.442,2.511C-1.432,2.521 -1.432,2.536 -1.442,2.546C-1.446,2.551 -1.453,2.553 -1.459,2.553C-1.465,2.553 -1.471,2.551 -1.476,2.546ZM-0.366,2.533C-0.378,2.516 -0.374,2.493 -0.357,2.481C-0.34,2.469 -0.317,2.474 -0.305,2.49C-0.293,2.507 -0.297,2.531 -0.314,2.542C-0.321,2.547 -0.328,2.549 -0.336,2.549C-0.347,2.549 -0.359,2.544 -0.366,2.533ZM-1.268,2.542C-1.285,2.531 -1.289,2.507 -1.277,2.49C-1.266,2.474 -1.242,2.469 -1.225,2.481C-1.209,2.493 -1.204,2.516 -1.216,2.533C-1.224,2.544 -1.235,2.549 -1.247,2.549C-1.254,2.549 -1.262,2.547 -1.268,2.542ZM-0.782,2.485C-0.784,2.46 -0.766,2.438 -0.741,2.436C-0.716,2.433 -0.694,2.452 -0.692,2.477C-0.69,2.502 -0.708,2.523 -0.733,2.526C-0.734,2.526 -0.736,2.526 -0.737,2.526C-0.76,2.526 -0.78,2.508 -0.782,2.485ZM-0.849,2.526C-0.874,2.523 -0.893,2.502 -0.89,2.477C-0.888,2.452 -0.866,2.433 -0.842,2.436C-0.817,2.438 -0.798,2.46 -0.801,2.485C-0.803,2.508 -0.822,2.526 -0.845,2.526C-0.847,2.526 -0.848,2.526 -0.849,2.526ZM-0.472,2.501C-0.484,2.48 -0.477,2.453 -0.456,2.441C-0.436,2.429 -0.409,2.436 -0.397,2.457C-0.385,2.478 -0.392,2.505 -0.413,2.517C-0.42,2.521 -0.427,2.523 -0.435,2.523C-0.45,2.523 -0.464,2.515 -0.472,2.501ZM-1.17,2.517C-1.191,2.505 -1.198,2.478 -1.186,2.457C-1.174,2.436 -1.147,2.429 -1.126,2.441C-1.105,2.453 -1.098,2.48 -1.11,2.501C-1.118,2.515 -1.133,2.523 -1.148,2.523C-1.155,2.523 -1.163,2.521 -1.17,2.517ZM-0.674,2.473C-0.68,2.449 -0.666,2.425 -0.642,2.418C-0.618,2.412 -0.593,2.426 -0.587,2.45C-0.58,2.474 -0.595,2.499 -0.619,2.505C-0.623,2.506 -0.627,2.507 -0.63,2.507C-0.65,2.507 -0.669,2.494 -0.674,2.473ZM-0.964,2.505C-0.988,2.499 -1.002,2.474 -0.996,2.45C-0.989,2.426 -0.965,2.412 -0.941,2.418C-0.916,2.425 -0.902,2.449 -0.909,2.473C-0.914,2.494 -0.932,2.507 -0.952,2.507C-0.956,2.507 -0.96,2.506 -0.964,2.505ZM-0.569,2.444C-0.58,2.421 -0.57,2.394 -0.548,2.384C-0.525,2.373 -0.498,2.383 -0.488,2.406C-0.477,2.428 -0.487,2.455 -0.509,2.466C-0.516,2.468 -0.522,2.47 -0.528,2.47C-0.545,2.47 -0.562,2.46 -0.569,2.444ZM-1.073,2.466C-1.096,2.455 -1.105,2.428 -1.095,2.406C-1.084,2.383 -1.058,2.373 -1.035,2.384C-1.012,2.394 -1.003,2.421 -1.013,2.444C-1.021,2.46 -1.037,2.47 -1.054,2.47C-1.06,2.47 -1.067,2.468 -1.073,2.466ZM-0.256,2.449C-0.271,2.435 -0.271,2.411 -0.256,2.396C-0.241,2.382 -0.218,2.382 -0.203,2.396C-0.189,2.411 -0.189,2.435 -0.203,2.449C-0.211,2.456 -0.22,2.46 -0.23,2.46C-0.239,2.46 -0.249,2.456 -0.256,2.449ZM-1.379,2.449C-1.394,2.435 -1.394,2.411 -1.379,2.396C-1.365,2.382 -1.341,2.382 -1.327,2.396C-1.312,2.411 -1.312,2.435 -1.327,2.449C-1.334,2.456 -1.343,2.46 -1.353,2.46C-1.362,2.46 -1.372,2.456 -1.379,2.449ZM-0.144,2.445C-0.158,2.434 -0.16,2.414 -0.148,2.401C-0.137,2.387 -0.117,2.385 -0.104,2.397C-0.09,2.408 -0.088,2.428 -0.1,2.442C-0.106,2.449 -0.115,2.453 -0.124,2.453C-0.131,2.453 -0.139,2.45 -0.144,2.445ZM-1.483,2.442C-1.494,2.428 -1.492,2.408 -1.479,2.397C-1.466,2.385 -1.445,2.387 -1.434,2.401C-1.423,2.414 -1.425,2.434 -1.438,2.445C-1.444,2.45 -1.451,2.453 -1.459,2.453C-1.468,2.453 -1.477,2.449 -1.483,2.442ZM-0.366,2.436C-0.382,2.417 -0.379,2.39 -0.361,2.374C-0.342,2.359 -0.315,2.361 -0.299,2.38C-0.284,2.398 -0.286,2.426 -0.305,2.441C-0.313,2.448 -0.323,2.451 -0.333,2.451C-0.345,2.451 -0.358,2.446 -0.366,2.436ZM-1.278,2.441C-1.296,2.426 -1.299,2.398 -1.283,2.38C-1.268,2.361 -1.24,2.359 -1.222,2.374C-1.203,2.39 -1.201,2.417 -1.216,2.436C-1.225,2.446 -1.237,2.451 -1.25,2.451C-1.26,2.451 -1.27,2.448 -1.278,2.441ZM-0.032,2.423C-0.043,2.415 -0.046,2.4 -0.038,2.389C-0.03,2.378 -0.015,2.375 -0.004,2.383C0.007,2.39 0.01,2.406 0.002,2.417C-0.003,2.423 -0.01,2.427 -0.018,2.427C-0.023,2.427 -0.028,2.426 -0.032,2.423ZM-1.584,2.417C-1.592,2.406 -1.59,2.39 -1.579,2.383C-1.568,2.375 -1.552,2.378 -1.545,2.389C-1.537,2.4 -1.54,2.415 -1.551,2.423C-1.555,2.426 -1.56,2.427 -1.565,2.427C-1.572,2.427 -1.58,2.423 -1.584,2.417ZM-0.479,2.371C-0.479,2.347 -0.459,2.327 -0.435,2.327C-0.41,2.327 -0.39,2.347 -0.39,2.371C-0.39,2.396 -0.41,2.416 -0.435,2.416C-0.459,2.416 -0.479,2.396 -0.479,2.371ZM-1.192,2.371C-1.192,2.347 -1.172,2.327 -1.148,2.327C-1.124,2.327 -1.104,2.347 -1.104,2.371C-1.104,2.396 -1.124,2.416 -1.148,2.416C-1.172,2.416 -1.192,2.396 -1.192,2.371ZM-0.287,2.32C-0.287,2.296 -0.267,2.276 -0.243,2.276C-0.218,2.276 -0.199,2.296 -0.199,2.32C-0.199,2.345 -0.218,2.365 -0.243,2.365C-0.267,2.365 -0.287,2.345 -0.287,2.32ZM-1.382,2.32C-1.382,2.296 -1.362,2.276 -1.338,2.276C-1.313,2.276 -1.293,2.296 -1.293,2.32C-1.293,2.345 -1.313,2.365 -1.338,2.365C-1.362,2.365 -1.382,2.345 -1.382,2.32ZM-0.162,2.347C-0.179,2.336 -0.183,2.312 -0.171,2.295C-0.159,2.278 -0.136,2.274 -0.119,2.286C-0.102,2.298 -0.098,2.321 -0.11,2.338C-0.117,2.349 -0.129,2.354 -0.141,2.354C-0.148,2.354 -0.156,2.352 -0.162,2.347ZM-1.473,2.338C-1.484,2.321 -1.48,2.298 -1.463,2.286C-1.446,2.274 -1.423,2.278 -1.411,2.295C-1.4,2.312 -1.404,2.336 -1.421,2.347C-1.427,2.352 -1.435,2.354 -1.442,2.354C-1.454,2.354 -1.465,2.349 -1.473,2.338ZM-0.382,2.31C-0.382,2.291 -0.367,2.276 -0.348,2.276C-0.329,2.276 -0.314,2.291 -0.314,2.31C-0.314,2.329 -0.329,2.344 -0.348,2.344C-0.367,2.344 -0.382,2.329 -0.382,2.31ZM-1.268,2.31C-1.268,2.291 -1.253,2.276 -1.235,2.276C-1.216,2.276 -1.201,2.291 -1.201,2.31C-1.201,2.329 -1.216,2.344 -1.235,2.344C-1.253,2.344 -1.268,2.329 -1.268,2.31ZM-0.053,2.324C-0.068,2.315 -0.073,2.296 -0.064,2.281C-0.056,2.266 -0.036,2.26 -0.021,2.269C-0.006,2.278 -0.001,2.297 -0.009,2.313C-0.015,2.323 -0.026,2.329 -0.037,2.329C-0.042,2.329 -0.048,2.327 -0.053,2.324ZM-1.573,2.313C-1.582,2.297 -1.577,2.278 -1.562,2.269C-1.546,2.26 -1.527,2.266 -1.518,2.281C-1.509,2.296 -1.514,2.315 -1.53,2.324C-1.535,2.327 -1.54,2.329 -1.546,2.329C-1.557,2.329 -1.567,2.323 -1.573,2.313ZM0.054,2.282C0.042,2.276 0.037,2.262 0.042,2.25C0.048,2.238 0.062,2.232 0.075,2.238C0.087,2.244 0.092,2.258 0.086,2.27C0.082,2.279 0.073,2.284 0.064,2.284C0.061,2.284 0.057,2.284 0.054,2.282ZM-1.669,2.27C-1.675,2.258 -1.669,2.244 -1.657,2.238C-1.645,2.232 -1.63,2.238 -1.625,2.25C-1.619,2.262 -1.624,2.276 -1.637,2.282C-1.64,2.284 -1.643,2.284 -1.647,2.284C-1.656,2.284 -1.665,2.279 -1.669,2.27ZM-0.195,2.256C-0.216,2.244 -0.223,2.217 -0.211,2.196C-0.199,2.175 -0.173,2.168 -0.152,2.18C-0.131,2.192 -0.124,2.219 -0.136,2.24C-0.144,2.254 -0.158,2.261 -0.174,2.261C-0.181,2.261 -0.188,2.26 -0.195,2.256ZM-1.447,2.24C-1.459,2.219 -1.452,2.192 -1.431,2.18C-1.41,2.168 -1.383,2.175 -1.371,2.196C-1.359,2.217 -1.366,2.244 -1.387,2.256C-1.394,2.26 -1.402,2.261 -1.409,2.261C-1.424,2.261 -1.439,2.254 -1.447,2.24ZM-0.307,2.226C-0.307,2.208 -0.292,2.192 -0.273,2.192C-0.254,2.192 -0.239,2.208 -0.239,2.226C-0.239,2.245 -0.254,2.26 -0.273,2.26C-0.292,2.26 -0.307,2.245 -0.307,2.226ZM-1.344,2.226C-1.344,2.208 -1.328,2.192 -1.31,2.192C-1.291,2.192 -1.276,2.208 -1.276,2.226C-1.276,2.245 -1.291,2.26 -1.31,2.26C-1.328,2.26 -1.344,2.245 -1.344,2.226ZM-0.087,2.231C-0.106,2.222 -0.114,2.2 -0.105,2.181C-0.097,2.162 -0.074,2.154 -0.056,2.163C-0.037,2.172 -0.029,2.194 -0.038,2.213C-0.044,2.226 -0.057,2.234 -0.071,2.234C-0.077,2.234 -0.082,2.233 -0.087,2.231ZM-1.545,2.213C-1.554,2.194 -1.546,2.172 -1.527,2.163C-1.508,2.154 -1.486,2.162 -1.477,2.181C-1.469,2.2 -1.477,2.222 -1.495,2.231C-1.5,2.233 -1.506,2.234 -1.511,2.234C-1.525,2.234 -1.539,2.226 -1.545,2.213ZM0.016,2.189C-0,2.183 -0.009,2.165 -0.003,2.148C0.003,2.132 0.022,2.123 0.038,2.129C0.055,2.135 0.063,2.153 0.057,2.17C0.052,2.183 0.04,2.191 0.027,2.191C0.024,2.191 0.02,2.19 0.016,2.189ZM-1.64,2.17C-1.646,2.153 -1.637,2.135 -1.621,2.129C-1.604,2.123 -1.586,2.132 -1.58,2.148C-1.574,2.165 -1.582,2.183 -1.599,2.189C-1.603,2.19 -1.606,2.191 -1.61,2.191C-1.623,2.191 -1.635,2.183 -1.64,2.17ZM-0.27,2.124C-0.27,2.1 -0.25,2.08 -0.225,2.08C-0.201,2.08 -0.181,2.1 -0.181,2.124C-0.181,2.148 -0.201,2.168 -0.225,2.168C-0.25,2.168 -0.27,2.148 -0.27,2.124ZM-1.401,2.124C-1.401,2.1 -1.381,2.08 -1.357,2.08C-1.333,2.08 -1.313,2.1 -1.313,2.124C-1.313,2.148 -1.333,2.168 -1.357,2.168C-1.381,2.168 -1.401,2.148 -1.401,2.124ZM-0.136,2.146C-0.158,2.138 -0.17,2.113 -0.162,2.09C-0.154,2.068 -0.129,2.056 -0.106,2.064C-0.083,2.072 -0.072,2.097 -0.08,2.12C-0.086,2.138 -0.103,2.149 -0.121,2.149C-0.126,2.149 -0.131,2.148 -0.136,2.146ZM-1.503,2.12C-1.511,2.097 -1.499,2.072 -1.477,2.064C-1.454,2.056 -1.429,2.068 -1.421,2.09C-1.412,2.113 -1.424,2.138 -1.447,2.146C-1.452,2.148 -1.457,2.149 -1.462,2.149C-1.479,2.149 -1.496,2.138 -1.503,2.12ZM0.114,2.129C0.101,2.126 0.094,2.112 0.097,2.099C0.101,2.086 0.114,2.079 0.127,2.082C0.14,2.085 0.148,2.099 0.144,2.112C0.141,2.123 0.131,2.13 0.121,2.13C0.118,2.13 0.116,2.13 0.114,2.129ZM-1.727,2.112C-1.73,2.099 -1.722,2.085 -1.709,2.082C-1.696,2.079 -1.683,2.086 -1.68,2.099C-1.676,2.112 -1.684,2.126 -1.697,2.129C-1.699,2.13 -1.701,2.13 -1.703,2.13C-1.714,2.13 -1.724,2.123 -1.727,2.112ZM-0.034,2.103C-0.054,2.097 -0.065,2.077 -0.06,2.057C-0.055,2.037 -0.034,2.025 -0.014,2.031C0.006,2.036 0.017,2.056 0.012,2.076C0.008,2.093 -0.008,2.104 -0.024,2.104C-0.027,2.104 -0.03,2.104 -0.034,2.103ZM-1.595,2.076C-1.6,2.056 -1.588,2.036 -1.568,2.031C-1.548,2.025 -1.528,2.037 -1.522,2.057C-1.517,2.077 -1.529,2.097 -1.549,2.103C-1.552,2.104 -1.555,2.104 -1.559,2.104C-1.575,2.104 -1.59,2.093 -1.595,2.076ZM-0.202,2.066C-0.226,2.059 -0.241,2.034 -0.234,2.01C-0.228,1.986 -0.203,1.972 -0.179,1.979C-0.155,1.985 -0.141,2.01 -0.147,2.034C-0.152,2.054 -0.171,2.067 -0.191,2.067C-0.194,2.067 -0.198,2.067 -0.202,2.066ZM-1.435,2.034C-1.442,2.01 -1.428,1.985 -1.404,1.979C-1.38,1.972 -1.355,1.986 -1.348,2.01C-1.342,2.034 -1.356,2.059 -1.38,2.066C-1.384,2.067 -1.388,2.067 -1.392,2.067C-1.412,2.067 -1.43,2.054 -1.435,2.034ZM0.061,2.044C0.044,2.041 0.032,2.024 0.035,2.007C0.038,1.99 0.055,1.978 0.072,1.981C0.089,1.984 0.101,2.001 0.098,2.018C0.095,2.033 0.082,2.044 0.067,2.044C0.065,2.044 0.063,2.044 0.061,2.044ZM-1.68,2.018C-1.684,2.001 -1.672,1.984 -1.655,1.981C-1.637,1.978 -1.621,1.99 -1.618,2.007C-1.615,2.024 -1.626,2.041 -1.644,2.044C-1.645,2.044 -1.647,2.044 -1.649,2.044C-1.664,2.044 -1.678,2.033 -1.68,2.018ZM-0.096,2.028C-0.12,2.024 -0.136,2.001 -0.132,1.977C-0.128,1.954 -0.105,1.938 -0.081,1.942C-0.057,1.946 -0.042,1.969 -0.046,1.993C-0.05,2.014 -0.068,2.029 -0.089,2.029C-0.091,2.029 -0.094,2.028 -0.096,2.028ZM-1.537,1.993C-1.541,1.969 -1.525,1.946 -1.501,1.942C-1.478,1.938 -1.455,1.954 -1.451,1.977C-1.447,2.001 -1.462,2.024 -1.486,2.028C-1.489,2.028 -1.491,2.029 -1.494,2.029C-1.515,2.029 -1.533,2.014 -1.537,1.993ZM0.147,1.968C0.134,1.966 0.124,1.955 0.125,1.941C0.126,1.928 0.138,1.918 0.151,1.919C0.165,1.92 0.175,1.932 0.173,1.946C0.172,1.958 0.162,1.968 0.149,1.968C0.148,1.968 0.148,1.968 0.147,1.968ZM-1.756,1.946C-1.757,1.932 -1.747,1.92 -1.734,1.919C-1.72,1.918 -1.709,1.928 -1.707,1.941C-1.706,1.955 -1.716,1.966 -1.73,1.968C-1.73,1.968 -1.731,1.968 -1.732,1.968C-1.744,1.968 -1.755,1.958 -1.756,1.946ZM-0.003,1.968C-0.024,1.966 -0.039,1.948 -0.037,1.927C-0.035,1.907 -0.017,1.891 0.003,1.893C0.024,1.895 0.039,1.913 0.037,1.934C0.035,1.953 0.019,1.968 0,1.968C-0.001,1.968 -0.002,1.968 -0.003,1.968ZM-1.62,1.934C-1.622,1.913 -1.606,1.895 -1.586,1.893C-1.565,1.891 -1.547,1.907 -1.545,1.927C-1.544,1.948 -1.559,1.966 -1.579,1.968C-1.58,1.968 -1.582,1.968 -1.583,1.968C-1.602,1.968 -1.618,1.953 -1.62,1.934ZM-0.176,1.96C-0.201,1.958 -0.219,1.936 -0.217,1.911C-0.215,1.887 -0.193,1.868 -0.168,1.87C-0.143,1.873 -0.125,1.894 -0.127,1.919C-0.129,1.943 -0.149,1.96 -0.172,1.96C-0.173,1.96 -0.174,1.96 -0.176,1.96ZM-1.456,1.919C-1.458,1.894 -1.439,1.873 -1.415,1.87C-1.39,1.868 -1.368,1.887 -1.366,1.911C-1.364,1.936 -1.382,1.958 -1.407,1.96C-1.408,1.96 -1.409,1.96 -1.411,1.96C-1.434,1.96 -1.454,1.943 -1.456,1.919ZM-0.122,1.861C-0.122,1.837 -0.102,1.818 -0.078,1.818C-0.054,1.818 -0.034,1.837 -0.034,1.861C-0.034,1.885 -0.054,1.905 -0.078,1.905C-0.102,1.905 -0.122,1.885 -0.122,1.861ZM-1.548,1.861C-1.548,1.837 -1.529,1.818 -1.505,1.818C-1.481,1.818 -1.461,1.837 -1.461,1.861C-1.461,1.885 -1.481,1.905 -1.505,1.905C-1.529,1.905 -1.548,1.885 -1.548,1.861ZM0.048,1.861C0.048,1.844 0.062,1.829 0.08,1.829C0.097,1.829 0.112,1.844 0.112,1.861C0.112,1.879 0.097,1.893 0.08,1.893C0.062,1.893 0.048,1.879 0.048,1.861ZM-1.694,1.861C-1.694,1.844 -1.68,1.829 -1.662,1.829C-1.645,1.829 -1.631,1.844 -1.631,1.861C-1.631,1.879 -1.645,1.893 -1.662,1.893C-1.68,1.893 -1.694,1.879 -1.694,1.861ZM-0.217,1.811C-0.219,1.786 -0.201,1.764 -0.176,1.762C-0.151,1.76 -0.129,1.778 -0.127,1.803C-0.125,1.828 -0.143,1.85 -0.168,1.852C-0.169,1.852 -0.171,1.852 -0.172,1.852C-0.195,1.852 -0.215,1.834 -0.217,1.811ZM-1.415,1.852C-1.439,1.85 -1.458,1.828 -1.456,1.803C-1.454,1.778 -1.432,1.76 -1.407,1.762C-1.382,1.764 -1.364,1.786 -1.366,1.811C-1.368,1.834 -1.388,1.852 -1.411,1.852C-1.412,1.852 -1.413,1.852 -1.415,1.852ZM-0.037,1.795C-0.039,1.775 -0.024,1.757 -0.003,1.755C0.017,1.753 0.035,1.768 0.037,1.789C0.039,1.809 0.024,1.827 0.003,1.829C0.002,1.829 0.001,1.829 -0,1.829C-0.019,1.829 -0.035,1.815 -0.037,1.795ZM-1.586,1.829C-1.606,1.827 -1.622,1.809 -1.62,1.789C-1.618,1.768 -1.6,1.753 -1.579,1.755C-1.559,1.757 -1.544,1.775 -1.545,1.795C-1.547,1.815 -1.563,1.829 -1.583,1.829C-1.584,1.829 -1.585,1.829 -1.586,1.829ZM0.125,1.781C0.124,1.768 0.134,1.756 0.147,1.755C0.16,1.753 0.172,1.763 0.173,1.777C0.175,1.79 0.165,1.802 0.151,1.803C0.151,1.803 0.15,1.803 0.149,1.803C0.137,1.803 0.126,1.794 0.125,1.781ZM-1.734,1.803C-1.747,1.802 -1.757,1.79 -1.756,1.777C-1.755,1.763 -1.743,1.753 -1.73,1.755C-1.716,1.756 -1.706,1.768 -1.707,1.781C-1.709,1.794 -1.719,1.803 -1.732,1.803C-1.732,1.803 -1.733,1.803 -1.734,1.803ZM-0.132,1.745C-0.136,1.721 -0.12,1.699 -0.096,1.694C-0.073,1.69 -0.05,1.706 -0.046,1.73C-0.042,1.753 -0.057,1.776 -0.081,1.78C-0.084,1.781 -0.086,1.781 -0.089,1.781C-0.11,1.781 -0.128,1.766 -0.132,1.745ZM-1.501,1.78C-1.525,1.776 -1.541,1.753 -1.537,1.73C-1.533,1.706 -1.51,1.69 -1.486,1.694C-1.462,1.699 -1.447,1.721 -1.451,1.745C-1.455,1.766 -1.473,1.781 -1.494,1.781C-1.496,1.781 -1.499,1.781 -1.501,1.78ZM-0.234,1.712C-0.241,1.688 -0.226,1.663 -0.202,1.657C-0.178,1.65 -0.154,1.664 -0.147,1.689C-0.141,1.713 -0.155,1.737 -0.179,1.744C-0.183,1.745 -0.187,1.745 -0.191,1.745C-0.211,1.745 -0.229,1.732 -0.234,1.712ZM-1.404,1.744C-1.428,1.737 -1.442,1.713 -1.435,1.689C-1.429,1.664 -1.404,1.65 -1.38,1.657C-1.356,1.663 -1.342,1.688 -1.348,1.712C-1.354,1.732 -1.372,1.745 -1.392,1.745C-1.396,1.745 -1.4,1.745 -1.404,1.744ZM0.035,1.715C0.032,1.698 0.044,1.682 0.061,1.679C0.078,1.675 0.095,1.687 0.098,1.704C0.101,1.722 0.089,1.738 0.072,1.741C0.07,1.742 0.068,1.742 0.067,1.742C0.051,1.742 0.038,1.731 0.035,1.715ZM-1.655,1.741C-1.672,1.738 -1.684,1.722 -1.68,1.704C-1.677,1.687 -1.661,1.675 -1.644,1.679C-1.626,1.682 -1.615,1.698 -1.618,1.715C-1.62,1.731 -1.634,1.742 -1.649,1.742C-1.651,1.742 -1.653,1.742 -1.655,1.741ZM-0.06,1.665C-0.065,1.645 -0.054,1.625 -0.034,1.62C-0.014,1.614 0.007,1.626 0.012,1.646C0.017,1.666 0.006,1.686 -0.014,1.692C-0.018,1.692 -0.021,1.693 -0.024,1.693C-0.041,1.693 -0.056,1.682 -0.06,1.665ZM-1.568,1.692C-1.588,1.686 -1.6,1.666 -1.595,1.646C-1.589,1.626 -1.569,1.614 -1.549,1.62C-1.529,1.625 -1.517,1.645 -1.522,1.665C-1.527,1.682 -1.542,1.693 -1.558,1.693C-1.562,1.693 -1.565,1.692 -1.568,1.692ZM-0.162,1.632C-0.17,1.609 -0.158,1.584 -0.136,1.576C-0.113,1.568 -0.088,1.58 -0.08,1.602C-0.072,1.625 -0.083,1.65 -0.106,1.658C-0.111,1.66 -0.116,1.661 -0.121,1.661C-0.139,1.661 -0.155,1.65 -0.162,1.632ZM-1.477,1.658C-1.499,1.65 -1.511,1.625 -1.503,1.602C-1.494,1.58 -1.469,1.568 -1.447,1.576C-1.424,1.584 -1.412,1.609 -1.421,1.632C-1.427,1.65 -1.444,1.661 -1.462,1.661C-1.467,1.661 -1.472,1.66 -1.477,1.658ZM-0.269,1.617C-0.279,1.595 -0.269,1.568 -0.247,1.557C-0.224,1.547 -0.197,1.557 -0.187,1.579C-0.176,1.602 -0.186,1.629 -0.209,1.639C-0.215,1.642 -0.221,1.644 -0.228,1.644C-0.245,1.644 -0.261,1.634 -0.269,1.617ZM-1.374,1.639C-1.396,1.629 -1.406,1.602 -1.396,1.579C-1.385,1.557 -1.358,1.547 -1.336,1.557C-1.313,1.568 -1.303,1.595 -1.314,1.617C-1.322,1.634 -1.338,1.644 -1.355,1.644C-1.361,1.644 -1.368,1.642 -1.374,1.639ZM0.097,1.623C0.094,1.61 0.101,1.597 0.114,1.593C0.127,1.59 0.141,1.598 0.144,1.611C0.148,1.624 0.14,1.637 0.127,1.64C0.125,1.641 0.123,1.641 0.121,1.641C0.11,1.641 0.1,1.634 0.097,1.623ZM-1.709,1.64C-1.722,1.637 -1.73,1.624 -1.727,1.611C-1.723,1.598 -1.71,1.59 -1.697,1.593C-1.684,1.597 -1.676,1.61 -1.68,1.623C-1.683,1.634 -1.692,1.641 -1.703,1.641C-1.705,1.641 -1.707,1.641 -1.709,1.64ZM-0.003,1.574C-0.009,1.558 -0,1.539 0.016,1.533C0.033,1.527 0.051,1.536 0.057,1.552C0.063,1.569 0.055,1.587 0.038,1.593C0.035,1.594 0.031,1.595 0.027,1.595C0.014,1.595 0.002,1.587 -0.003,1.574ZM-1.621,1.593C-1.637,1.587 -1.646,1.569 -1.64,1.552C-1.634,1.536 -1.615,1.527 -1.599,1.533C-1.582,1.539 -1.574,1.558 -1.58,1.574C-1.585,1.587 -1.597,1.595 -1.61,1.595C-1.613,1.595 -1.617,1.594 -1.621,1.593ZM-0.105,1.541C-0.114,1.523 -0.106,1.5 -0.087,1.492C-0.068,1.483 -0.046,1.491 -0.038,1.51C-0.029,1.528 -0.037,1.551 -0.056,1.559C-0.061,1.562 -0.066,1.563 -0.071,1.563C-0.085,1.563 -0.099,1.555 -0.105,1.541ZM-1.527,1.559C-1.546,1.551 -1.554,1.528 -1.545,1.51C-1.536,1.491 -1.514,1.483 -1.495,1.492C-1.477,1.5 -1.469,1.523 -1.477,1.541C-1.484,1.555 -1.497,1.563 -1.511,1.563C-1.516,1.563 -1.522,1.562 -1.527,1.559ZM-0.319,1.53C-0.333,1.51 -0.328,1.482 -0.308,1.468C-0.287,1.453 -0.259,1.458 -0.245,1.479C-0.231,1.499 -0.236,1.527 -0.256,1.541C-0.264,1.547 -0.273,1.55 -0.282,1.55C-0.296,1.55 -0.31,1.543 -0.319,1.53ZM-1.327,1.541C-1.347,1.527 -1.352,1.499 -1.338,1.479C-1.323,1.458 -1.295,1.453 -1.275,1.468C-1.254,1.482 -1.249,1.51 -1.264,1.53C-1.272,1.543 -1.286,1.55 -1.301,1.55C-1.31,1.55 -1.319,1.547 -1.327,1.541ZM-0.211,1.526C-0.223,1.505 -0.216,1.479 -0.195,1.467C-0.174,1.455 -0.148,1.462 -0.136,1.483C-0.124,1.504 -0.131,1.53 -0.152,1.542C-0.159,1.546 -0.166,1.548 -0.173,1.548C-0.189,1.548 -0.203,1.54 -0.211,1.526ZM-1.431,1.542C-1.452,1.53 -1.459,1.504 -1.447,1.483C-1.435,1.462 -1.408,1.455 -1.387,1.467C-1.366,1.479 -1.359,1.505 -1.371,1.526C-1.379,1.54 -1.394,1.548 -1.409,1.548C-1.417,1.548 -1.424,1.546 -1.431,1.542ZM0.042,1.472C0.037,1.46 0.042,1.446 0.054,1.44C0.066,1.434 0.081,1.44 0.086,1.452C0.092,1.464 0.087,1.479 0.075,1.484C0.071,1.486 0.068,1.487 0.064,1.487C0.055,1.487 0.046,1.481 0.042,1.472ZM-1.657,1.484C-1.669,1.479 -1.675,1.464 -1.669,1.452C-1.663,1.44 -1.649,1.434 -1.637,1.44C-1.624,1.446 -1.619,1.46 -1.625,1.472C-1.629,1.481 -1.638,1.487 -1.647,1.487C-1.65,1.487 -1.654,1.486 -1.657,1.484ZM-0.383,1.453C-0.401,1.436 -0.401,1.407 -0.383,1.39C-0.366,1.372 -0.337,1.372 -0.32,1.39C-0.302,1.407 -0.302,1.436 -0.32,1.453C-0.328,1.462 -0.34,1.467 -0.352,1.467C-0.363,1.467 -0.375,1.462 -0.383,1.453ZM-1.263,1.453C-1.281,1.436 -1.281,1.407 -1.263,1.39C-1.245,1.372 -1.217,1.372 -1.199,1.39C-1.181,1.407 -1.181,1.436 -1.199,1.453C-1.208,1.462 -1.219,1.467 -1.231,1.467C-1.243,1.467 -1.254,1.462 -1.263,1.453ZM-0.064,1.442C-0.073,1.426 -0.068,1.407 -0.053,1.398C-0.038,1.389 -0.018,1.394 -0.009,1.41C-0.001,1.425 -0.006,1.444 -0.021,1.453C-0.026,1.456 -0.031,1.457 -0.037,1.457C-0.048,1.457 -0.059,1.452 -0.064,1.442ZM-1.562,1.453C-1.577,1.444 -1.582,1.425 -1.573,1.41C-1.564,1.394 -1.545,1.389 -1.53,1.398C-1.514,1.407 -1.509,1.426 -1.518,1.442C-1.524,1.452 -1.535,1.457 -1.546,1.457C-1.551,1.457 -1.557,1.456 -1.562,1.453ZM-0.278,1.431C-0.294,1.412 -0.291,1.385 -0.273,1.369C-0.254,1.354 -0.227,1.356 -0.211,1.375C-0.196,1.393 -0.198,1.421 -0.217,1.436C-0.225,1.443 -0.235,1.446 -0.245,1.446C-0.257,1.446 -0.27,1.441 -0.278,1.431ZM-1.366,1.436C-1.384,1.421 -1.387,1.393 -1.371,1.375C-1.356,1.356 -1.328,1.354 -1.31,1.369C-1.291,1.385 -1.289,1.412 -1.304,1.431C-1.313,1.441 -1.325,1.446 -1.338,1.446C-1.348,1.446 -1.358,1.443 -1.366,1.436ZM-0.171,1.427C-0.183,1.41 -0.179,1.387 -0.162,1.375C-0.145,1.363 -0.122,1.367 -0.11,1.384C-0.098,1.401 -0.102,1.424 -0.119,1.436C-0.126,1.441 -0.133,1.443 -0.141,1.443C-0.152,1.443 -0.164,1.437 -0.171,1.427ZM-1.463,1.436C-1.48,1.424 -1.484,1.401 -1.473,1.384C-1.461,1.367 -1.437,1.363 -1.421,1.375C-1.404,1.387 -1.4,1.41 -1.411,1.427C-1.419,1.437 -1.43,1.443 -1.442,1.443C-1.449,1.443 -1.457,1.441 -1.463,1.436ZM-0.479,1.352C-0.479,1.327 -0.459,1.308 -0.435,1.308C-0.41,1.308 -0.39,1.327 -0.39,1.352C-0.39,1.376 -0.41,1.396 -0.435,1.396C-0.459,1.396 -0.479,1.376 -0.479,1.352ZM-1.192,1.352C-1.192,1.327 -1.172,1.308 -1.148,1.308C-1.124,1.308 -1.104,1.327 -1.104,1.352C-1.104,1.376 -1.124,1.396 -1.148,1.396C-1.172,1.396 -1.192,1.376 -1.192,1.352ZM-0.361,1.348C-0.379,1.333 -0.382,1.305 -0.366,1.287C-0.351,1.268 -0.323,1.266 -0.305,1.281C-0.286,1.297 -0.284,1.324 -0.299,1.343C-0.308,1.353 -0.32,1.358 -0.333,1.358C-0.343,1.358 -0.353,1.355 -0.361,1.348ZM-1.283,1.343C-1.299,1.324 -1.296,1.297 -1.278,1.281C-1.259,1.266 -1.232,1.268 -1.216,1.287C-1.201,1.305 -1.203,1.333 -1.222,1.348C-1.23,1.355 -1.24,1.358 -1.25,1.358C-1.262,1.358 -1.275,1.353 -1.283,1.343ZM-0.038,1.334C-0.046,1.323 -0.043,1.307 -0.032,1.3C-0.021,1.292 -0.006,1.295 0.002,1.306C0.01,1.317 0.007,1.332 -0.004,1.34C-0.008,1.343 -0.013,1.344 -0.018,1.344C-0.026,1.344 -0.033,1.34 -0.038,1.334ZM-1.579,1.34C-1.59,1.332 -1.592,1.317 -1.584,1.306C-1.577,1.295 -1.562,1.292 -1.551,1.3C-1.54,1.307 -1.537,1.323 -1.545,1.334C-1.549,1.34 -1.557,1.344 -1.565,1.344C-1.569,1.344 -1.574,1.343 -1.579,1.34ZM-0.256,1.326C-0.271,1.311 -0.271,1.288 -0.256,1.273C-0.241,1.259 -0.218,1.259 -0.203,1.273C-0.189,1.288 -0.189,1.311 -0.203,1.326C-0.211,1.333 -0.22,1.337 -0.23,1.337C-0.239,1.337 -0.249,1.333 -0.256,1.326ZM-1.379,1.326C-1.394,1.311 -1.394,1.288 -1.379,1.273C-1.365,1.259 -1.341,1.259 -1.327,1.273C-1.312,1.288 -1.312,1.311 -1.327,1.326C-1.334,1.333 -1.343,1.337 -1.353,1.337C-1.362,1.337 -1.372,1.333 -1.379,1.326ZM-0.148,1.322C-0.16,1.308 -0.158,1.288 -0.144,1.277C-0.131,1.266 -0.111,1.267 -0.1,1.281C-0.088,1.294 -0.09,1.314 -0.104,1.326C-0.109,1.331 -0.117,1.333 -0.124,1.333C-0.133,1.333 -0.142,1.329 -0.148,1.322ZM-1.479,1.326C-1.492,1.314 -1.494,1.294 -1.483,1.281C-1.472,1.267 -1.452,1.266 -1.438,1.277C-1.425,1.288 -1.423,1.308 -1.434,1.322C-1.44,1.329 -1.449,1.333 -1.459,1.333C-1.466,1.333 -1.473,1.331 -1.479,1.326ZM-0.562,1.289C-0.562,1.268 -0.546,1.252 -0.525,1.252C-0.505,1.252 -0.488,1.268 -0.488,1.289C-0.488,1.309 -0.505,1.326 -0.525,1.326C-0.546,1.326 -0.562,1.309 -0.562,1.289ZM-1.098,1.289C-1.098,1.268 -1.082,1.252 -1.061,1.252C-1.041,1.252 -1.024,1.268 -1.024,1.289C-1.024,1.309 -1.041,1.326 -1.061,1.326C-1.082,1.326 -1.098,1.309 -1.098,1.289ZM-0.456,1.281C-0.477,1.269 -0.484,1.242 -0.472,1.222C-0.46,1.201 -0.434,1.194 -0.413,1.206C-0.392,1.218 -0.385,1.244 -0.397,1.265C-0.405,1.279 -0.42,1.287 -0.435,1.287C-0.442,1.287 -0.45,1.285 -0.456,1.281ZM-1.186,1.265C-1.198,1.244 -1.191,1.218 -1.17,1.206C-1.149,1.194 -1.122,1.201 -1.11,1.222C-1.098,1.242 -1.105,1.269 -1.126,1.281C-1.133,1.285 -1.141,1.287 -1.148,1.287C-1.163,1.287 -1.178,1.279 -1.186,1.265ZM-0.65,1.234C-0.65,1.22 -0.639,1.208 -0.624,1.208C-0.609,1.208 -0.597,1.22 -0.597,1.234C-0.597,1.249 -0.609,1.261 -0.624,1.261C-0.639,1.261 -0.65,1.249 -0.65,1.234ZM-0.986,1.234C-0.986,1.22 -0.974,1.208 -0.96,1.208C-0.945,1.208 -0.933,1.22 -0.933,1.234C-0.933,1.249 -0.945,1.261 -0.96,1.261C-0.974,1.261 -0.986,1.249 -0.986,1.234ZM-0.357,1.241C-0.374,1.229 -0.378,1.206 -0.366,1.189C-0.354,1.172 -0.331,1.168 -0.314,1.18C-0.297,1.192 -0.293,1.215 -0.305,1.232C-0.312,1.242 -0.324,1.248 -0.336,1.248C-0.343,1.248 -0.351,1.246 -0.357,1.241ZM-1.277,1.232C-1.289,1.215 -1.285,1.192 -1.268,1.18C-1.251,1.168 -1.228,1.172 -1.216,1.189C-1.204,1.206 -1.209,1.229 -1.225,1.241C-1.232,1.246 -1.239,1.248 -1.247,1.248C-1.259,1.248 -1.27,1.242 -1.277,1.232ZM-0.562,1.232C-0.585,1.224 -0.597,1.199 -0.588,1.176C-0.58,1.153 -0.555,1.142 -0.532,1.15C-0.51,1.158 -0.498,1.183 -0.506,1.206C-0.513,1.223 -0.529,1.234 -0.547,1.234C-0.552,1.234 -0.557,1.234 -0.562,1.232ZM-1.076,1.206C-1.084,1.183 -1.073,1.158 -1.05,1.15C-1.028,1.142 -1.003,1.153 -0.994,1.176C-0.986,1.199 -0.998,1.224 -1.02,1.232C-1.025,1.234 -1.03,1.234 -1.035,1.234C-1.053,1.234 -1.07,1.223 -1.076,1.206ZM-0.252,1.218C-0.265,1.207 -0.267,1.187 -0.256,1.173C-0.244,1.16 -0.224,1.158 -0.211,1.169C-0.197,1.181 -0.196,1.201 -0.207,1.214C-0.213,1.222 -0.222,1.226 -0.231,1.226C-0.239,1.226 -0.246,1.223 -0.252,1.218ZM-1.376,1.214C-1.387,1.201 -1.385,1.181 -1.372,1.169C-1.358,1.158 -1.338,1.16 -1.327,1.173C-1.315,1.187 -1.317,1.207 -1.331,1.218C-1.337,1.223 -1.344,1.226 -1.351,1.226C-1.36,1.226 -1.369,1.222 -1.376,1.214ZM-0.141,1.211C-0.15,1.201 -0.15,1.186 -0.141,1.176C-0.131,1.167 -0.116,1.167 -0.107,1.176C-0.097,1.186 -0.097,1.201 -0.107,1.211C-0.111,1.216 -0.118,1.218 -0.124,1.218C-0.13,1.218 -0.136,1.216 -0.141,1.211ZM-1.476,1.211C-1.486,1.201 -1.486,1.186 -1.476,1.176C-1.466,1.167 -1.451,1.167 -1.442,1.176C-1.432,1.186 -1.432,1.201 -1.442,1.211C-1.446,1.216 -1.453,1.218 -1.459,1.218C-1.465,1.218 -1.471,1.216 -1.476,1.211ZM-0.675,1.202C-0.699,1.197 -0.715,1.175 -0.71,1.151C-0.706,1.127 -0.684,1.112 -0.66,1.116C-0.636,1.12 -0.62,1.142 -0.624,1.166C-0.628,1.187 -0.647,1.202 -0.667,1.202C-0.67,1.202 -0.672,1.202 -0.675,1.202ZM-0.958,1.166C-0.962,1.142 -0.946,1.12 -0.923,1.116C-0.899,1.112 -0.876,1.127 -0.872,1.151C-0.868,1.175 -0.884,1.197 -0.908,1.202C-0.91,1.202 -0.913,1.202 -0.915,1.202C-0.936,1.202 -0.954,1.187 -0.958,1.166ZM-0.835,1.148C-0.835,1.124 -0.815,1.104 -0.791,1.104C-0.767,1.104 -0.748,1.124 -0.748,1.148C-0.748,1.172 -0.767,1.191 -0.791,1.191C-0.815,1.191 -0.835,1.172 -0.835,1.148ZM-0.471,1.175C-0.49,1.166 -0.498,1.144 -0.489,1.126C-0.481,1.107 -0.458,1.099 -0.44,1.107C-0.421,1.116 -0.413,1.138 -0.422,1.157C-0.428,1.171 -0.442,1.179 -0.456,1.179C-0.461,1.179 -0.466,1.177 -0.471,1.175ZM-1.161,1.157C-1.17,1.138 -1.161,1.116 -1.143,1.107C-1.124,1.099 -1.102,1.107 -1.093,1.126C-1.084,1.144 -1.093,1.166 -1.111,1.175C-1.116,1.177 -1.122,1.179 -1.127,1.179C-1.141,1.179 -1.154,1.171 -1.161,1.157ZM-0.372,1.134C-0.387,1.126 -0.392,1.106 -0.383,1.091C-0.375,1.076 -0.355,1.07 -0.34,1.079C-0.325,1.088 -0.319,1.107 -0.328,1.123C-0.334,1.133 -0.345,1.139 -0.356,1.139C-0.361,1.139 -0.367,1.137 -0.372,1.134ZM-1.254,1.123C-1.263,1.107 -1.258,1.088 -1.243,1.079C-1.228,1.07 -1.208,1.076 -1.199,1.091C-1.19,1.106 -1.196,1.126 -1.211,1.134C-1.216,1.137 -1.221,1.139 -1.227,1.139C-1.238,1.139 -1.249,1.133 -1.254,1.123ZM-0.595,1.13C-0.615,1.125 -0.627,1.104 -0.622,1.084C-0.616,1.064 -0.596,1.053 -0.576,1.058C-0.556,1.063 -0.544,1.084 -0.55,1.104C-0.554,1.12 -0.569,1.131 -0.586,1.131C-0.589,1.131 -0.592,1.131 -0.595,1.13ZM-1.033,1.104C-1.038,1.084 -1.026,1.063 -1.007,1.058C-0.987,1.053 -0.966,1.064 -0.961,1.084C-0.955,1.104 -0.967,1.125 -0.987,1.13C-0.99,1.131 -0.994,1.131 -0.997,1.131C-1.013,1.131 -1.028,1.12 -1.033,1.104ZM-0.264,1.108C-0.275,1.1 -0.277,1.085 -0.27,1.074C-0.262,1.063 -0.247,1.06 -0.236,1.068C-0.225,1.076 -0.222,1.091 -0.23,1.102C-0.235,1.109 -0.242,1.112 -0.25,1.112C-0.255,1.112 -0.26,1.111 -0.264,1.108ZM-1.353,1.102C-1.36,1.091 -1.358,1.076 -1.347,1.068C-1.336,1.06 -1.321,1.063 -1.313,1.074C-1.305,1.085 -1.308,1.1 -1.319,1.108C-1.323,1.111 -1.328,1.112 -1.333,1.112C-1.34,1.112 -1.348,1.109 -1.353,1.102ZM-0.725,1.107C-0.746,1.105 -0.761,1.087 -0.759,1.067C-0.757,1.046 -0.739,1.031 -0.719,1.033C-0.698,1.034 -0.683,1.053 -0.685,1.073C-0.687,1.093 -0.703,1.107 -0.722,1.107C-0.723,1.107 -0.724,1.107 -0.725,1.107ZM-0.898,1.073C-0.899,1.053 -0.884,1.034 -0.864,1.033C-0.843,1.031 -0.825,1.046 -0.823,1.067C-0.822,1.087 -0.837,1.105 -0.857,1.107C-0.858,1.107 -0.859,1.107 -0.861,1.107C-0.88,1.107 -0.896,1.093 -0.898,1.073ZM-0.504,1.073C-0.521,1.067 -0.529,1.048 -0.523,1.032C-0.517,1.015 -0.499,1.007 -0.482,1.013C-0.466,1.019 -0.457,1.037 -0.463,1.054C-0.468,1.066 -0.48,1.074 -0.493,1.074C-0.497,1.074 -0.501,1.074 -0.504,1.073ZM-1.119,1.054C-1.125,1.037 -1.117,1.019 -1.1,1.013C-1.084,1.007 -1.065,1.015 -1.059,1.032C-1.053,1.048 -1.062,1.067 -1.078,1.073C-1.082,1.074 -1.086,1.074 -1.089,1.074C-1.102,1.074 -1.114,1.066 -1.119,1.054ZM-0.646,1.035C-0.663,1.032 -0.674,1.015 -0.671,0.998C-0.668,0.98 -0.652,0.969 -0.634,0.972C-0.617,0.975 -0.606,0.992 -0.609,1.009C-0.611,1.024 -0.625,1.035 -0.64,1.035C-0.642,1.035 -0.644,1.035 -0.646,1.035ZM-0.974,1.009C-0.977,0.992 -0.965,0.975 -0.948,0.972C-0.931,0.969 -0.914,0.98 -0.911,0.998C-0.908,1.015 -0.92,1.032 -0.937,1.035C-0.939,1.035 -0.941,1.035 -0.943,1.035C-0.958,1.035 -0.971,1.024 -0.974,1.009ZM-0.403,1.028C-0.415,1.022 -0.42,1.007 -0.414,0.995C-0.409,0.983 -0.394,0.978 -0.382,0.984C-0.37,0.989 -0.365,1.004 -0.37,1.016C-0.374,1.025 -0.383,1.03 -0.392,1.03C-0.396,1.03 -0.399,1.029 -0.403,1.028ZM-1.212,1.016C-1.218,1.004 -1.213,0.989 -1.201,0.984C-1.188,0.978 -1.174,0.983 -1.168,0.995C-1.163,1.007 -1.168,1.022 -1.18,1.028C-1.183,1.029 -1.187,1.03 -1.19,1.03C-1.199,1.03 -1.208,1.025 -1.212,1.016ZM-0.823,0.99C-0.823,0.973 -0.809,0.958 -0.791,0.958C-0.774,0.958 -0.759,0.973 -0.759,0.99C-0.759,1.008 -0.774,1.022 -0.791,1.022C-0.809,1.022 -0.823,1.008 -0.823,0.99ZM-0.553,0.973C-0.566,0.969 -0.574,0.956 -0.57,0.943C-0.567,0.93 -0.554,0.922 -0.541,0.926C-0.528,0.929 -0.52,0.943 -0.523,0.956C-0.526,0.966 -0.536,0.974 -0.547,0.974C-0.549,0.974 -0.551,0.973 -0.553,0.973ZM-1.059,0.956C-1.063,0.943 -1.055,0.929 -1.042,0.926C-1.029,0.922 -1.016,0.93 -1.012,0.943C-1.009,0.956 -1.016,0.969 -1.029,0.973C-1.031,0.973 -1.034,0.974 -1.036,0.974C-1.046,0.974 -1.056,0.966 -1.059,0.956ZM-0.711,0.945C-0.725,0.944 -0.734,0.932 -0.733,0.919C-0.732,0.905 -0.72,0.895 -0.707,0.897C-0.693,0.898 -0.684,0.909 -0.685,0.923C-0.686,0.936 -0.697,0.945 -0.709,0.945C-0.71,0.945 -0.71,0.945 -0.711,0.945ZM-0.898,0.923C-0.899,0.909 -0.889,0.898 -0.876,0.897C-0.862,0.895 -0.85,0.905 -0.849,0.919C-0.848,0.932 -0.858,0.944 -0.871,0.945C-0.872,0.945 -0.873,0.945 -0.874,0.945C-0.886,0.945 -0.897,0.936 -0.898,0.923Z" style="fill:url(#_Radial1);fill-rule:nonzero;"></path>
        </g>
    </g>
    <defs>
        <radialGradient id="_Radial1" cx="0" cy="0" r="1" gradientUnits="userSpaceOnUse" gradientTransform="matrix(-9.1354e-08,0.976338,0.976338,-1.54076e-16,-0.79128,1.86116)"><stop offset="0" style="stop-color:rgb(191,173,231);stop-opacity:1"></stop><stop offset="0.69" style="stop-color:rgb(192,172,231);stop-opacity:1"></stop><stop offset="1" style="stop-color:rgb(127,89,235);stop-opacity:1"></stop></radialGradient>
    </defs>
</svg>