<svg width="20" height="20" viewBox="0 0 20 20" fill="none" xmlns="http://www.w3.org/2000/svg">
<g clip-path="url(#clip0_257_4897)">
<path d="M10 20C15.5228 20 20 15.5228 20 10C20 4.47715 15.5228 0 10 0C4.47715 0 0 4.47715 0 10C0 15.5228 4.47715 20 10 20Z" fill="#2775C9"/>
<path fill-rule="evenodd" clip-rule="evenodd" d="M9.4 6.28715V5.66265C9.4 5.33128 9.66867 5.06265 10 5.06265C10.3313 5.06265 10.6 5.33128 10.6 5.66265V6.28499C11.6858 6.44846 12.4301 7.06575 12.6288 7.9453C12.6719 8.13605 12.5522 8.32562 12.3614 8.36867C12.3358 8.3745 12.3097 8.37742 12.2834 8.37742H11.9588C11.6962 8.37742 11.4572 8.22571 11.3453 7.98805C11.1383 7.548 10.6477 7.29462 9.99425 7.29462C9.17708 7.29462 8.62567 7.69566 8.62567 8.29722C8.62567 8.7785 8.99167 9.05917 9.87892 9.26975L10.7111 9.46025C12.1799 9.79609 12.8015 10.4027 12.8015 11.4805C12.8015 12.6748 11.9677 13.4826 10.6 13.673V14.396C10.6 14.7273 10.3313 14.996 10 14.996C9.66867 14.996 9.4 14.7273 9.4 14.396V13.6843C8.1885 13.5381 7.37028 12.8968 7.17808 11.9158C7.14645 11.7543 7.25167 11.5978 7.4131 11.5663C7.43196 11.5625 7.45113 11.5607 7.47036 11.5607L7.96312 11.5608C8.18614 11.5608 8.38925 11.6891 8.485 11.8905C8.71192 12.3676 9.29242 12.6636 10.0193 12.6636C10.8916 12.6636 11.4982 12.2324 11.4982 11.6309C11.4982 11.1095 11.1272 10.8088 10.2148 10.5932L9.27742 10.3726C7.94392 10.0668 7.31227 9.42517 7.31227 8.3925C7.31227 7.2804 8.15171 6.48078 9.4 6.28715ZM2.5 10.0003C2.5 6.69086 4.66019 3.88401 7.65262 2.90255C7.84161 2.84057 8.04506 2.94353 8.10704 3.13252C8.11892 3.16875 8.12498 3.20662 8.12498 3.24475L8.12498 3.45613C8.12498 3.77834 7.92953 4.06835 7.63088 4.1893C5.3286 5.1216 3.70536 7.37213 3.70536 10.0003C3.70536 12.6273 5.32703 14.8768 7.62755 15.8099C7.92825 15.9319 8.12498 16.224 8.12498 16.5485L8.12499 16.7248C8.12499 16.9361 7.95371 17.1073 7.74241 17.1073C7.70135 17.1073 7.66055 17.1008 7.62159 17.0878C4.64527 16.0972 2.5 13.2983 2.5 10.0003ZM17.5 10.0003C17.5 13.2905 15.3649 16.0839 12.3995 17.0808C12.1912 17.1508 11.9657 17.0387 11.8958 16.8304C11.882 16.7896 11.875 16.7468 11.875 16.7037V16.5624C11.875 16.2301 12.0762 15.9308 12.3838 15.8053C14.6783 14.8694 16.2947 12.6228 16.2947 10.0003C16.2947 7.38019 14.6813 5.13544 12.3903 4.19793C12.0787 4.07038 11.875 3.76704 11.875 3.43026V3.30149C11.875 3.07999 12.0546 2.90043 12.2761 2.90043C12.3196 2.90043 12.3628 2.90752 12.4041 2.92141C15.3671 3.91956 17.5 6.71181 17.5 10.0003Z" fill="white"/>
</g>
<defs>
<clipPath id="clip0_257_4897">
<rect width="20" height="20" fill="white"/>
</clipPath>
</defs>
</svg>
