<svg width="36" height="36" viewBox="0 0 36 36" fill="none" xmlns="http://www.w3.org/2000/svg">
<path d="M32.2918 26.2358L27.8689 24.5133H0L0.337575 26.2358H22.296L24.242 26.936L26.2214 26.4084L27.8689 26.2358H32.2918Z" fill="url(#paint0_linear_545_36458)"/>
<path opacity="0.41" d="M16.3593 25.8249L6.81258 26.2358H0.337575L0 24.5133L11.4648 24.4998L16.3593 25.8249Z" fill="#281400"/>
<path d="M0.337891 26.2357H22.2964L24.2423 26.9359L26.2217 26.4084L27.8693 26.2357H32.2921L34.6362 35.9999H2.28181L0.337891 26.2357Z" fill="url(#paint1_linear_545_36458)"/>
<g style="mix-blend-mode:overlay" opacity="0.21">
<path d="M22.4163 26.6067L24.3731 27.3069L26.3631 26.7793L28.0195 26.6067H32.3814L32.2921 26.2357H27.8693L26.2217 26.4084L24.2423 26.9359L22.2964 26.2357H0.337891L0.41179 26.6067H22.4163Z" fill="white"/>
</g>
<path opacity="0.34" d="M1.33125 26.2357L4.82537 35.9999H2.28181L0.337891 26.2357H1.33125Z" fill="#401E00"/>
<g style="mix-blend-mode:overlay" opacity="0.19">
<path d="M24.3739 26.0664L22.2959 26.2358L24.2418 26.936L26.2213 26.4085L27.7691 26.2462L24.3739 26.0664Z" fill="white"/>
</g>
<path style="mix-blend-mode:overlay" opacity="0.23" d="M1.87695 34.0928H34.1772L34.6352 36H2.28076L1.87695 34.0928Z" fill="url(#paint2_linear_545_36458)"/>
<path d="M17.2302 22.9749L16.0293 23.0551L14.828 22.9749C14.828 22.9749 12.7342 23.0997 10.9668 24.4049C10.9668 24.4049 12.181 24.8992 16.0293 24.8992C19.8775 24.8992 21.0918 24.4049 21.0918 24.4049C19.3243 23.0997 17.2302 22.9749 17.2302 22.9749Z" fill="url(#paint3_linear_545_36458)"/>
<g style="mix-blend-mode:overlay" opacity="0.43">
<path d="M16.0293 24.7345C12.9515 24.7345 11.5596 24.4184 11.1251 24.2918C11.0722 24.3275 11.0193 24.366 10.9668 24.4049C10.9668 24.4049 12.181 24.8993 16.0293 24.8993C19.8775 24.8993 21.0918 24.4049 21.0918 24.4049C21.0393 24.366 20.9864 24.3285 20.9331 24.2918C20.4986 24.4184 19.1071 24.7345 16.0293 24.7345Z" fill="white"/>
</g>
<path d="M21.0884 24.4067C21.0076 24.4384 19.7461 24.8993 16.0307 24.8993C12.1829 24.8993 10.9686 24.4049 10.9682 24.4049L10.6855 25.2474C10.6855 25.2474 12.2604 25.8181 15.9786 25.8271H16.0808C19.7982 25.8164 21.3734 25.2474 21.3734 25.2474L21.0884 24.4067Z" fill="url(#paint4_radial_545_36458)"/>
<path style="mix-blend-mode:overlay" opacity="0.43" d="M17.3604 22.9871C17.2743 22.9778 17.2263 22.975 17.2263 22.975L16.0254 23.0552L14.8241 22.975C14.8241 22.975 12.7303 23.0998 10.9629 24.405C13.2739 23.611 16.4635 23.4751 16.4635 23.4751L17.3604 22.9871Z" fill="url(#paint5_linear_545_36458)"/>
<path d="M18.1452 19.8081C17.9433 19.7724 17.2794 19.7093 16.4282 19.6957H16.3794H16.2647H15.9279H15.8136H15.7648C14.9135 19.7093 14.2493 19.7706 14.0478 19.8081C14.0026 19.8135 13.9569 19.8192 13.9121 19.8252L14.6543 23.1824C14.6543 23.1824 14.937 23.4225 15.7575 23.4803H15.7805H15.7829C15.8803 23.4871 15.9848 23.491 16.0963 23.4906C16.2077 23.4903 16.3127 23.4871 16.4096 23.4803H16.4125H16.4355C17.256 23.4225 17.5387 23.1824 17.5387 23.1824L18.2809 19.8241L18.1452 19.8081Z" fill="url(#paint6_linear_545_36458)"/>
<path style="mix-blend-mode:overlay" opacity="0.37" d="M16.793 23.4393C17.3405 23.3508 17.5404 23.1825 17.5404 23.1825L18.2826 19.8242L18.1469 19.8071C17.8502 19.7642 17.5509 19.7365 17.2505 19.7239L16.9335 19.8912L16.793 23.4393Z" fill="url(#paint7_linear_545_36458)"/>
<path style="mix-blend-mode:overlay" opacity="0.27" d="M15.9632 19.6937H15.9289H15.8146H15.7657C14.9145 19.7073 14.2503 19.7686 14.0488 19.8061C14.003 19.8116 13.9578 19.8173 13.9131 19.8232L14.6553 23.1804C14.6553 23.1804 14.9379 23.4205 15.7585 23.4783H15.7815H15.7839C15.8594 23.4836 15.9402 23.4865 16.0238 23.4875L15.9632 19.6937Z" fill="url(#paint8_linear_545_36458)"/>
<path style="mix-blend-mode:screen" d="M19.1719 16.2433C28.4658 16.2433 36 12.8842 36 8.74054C36 4.59689 28.4658 1.23779 19.1719 1.23779C9.87796 1.23779 2.34375 4.59689 2.34375 8.74054C2.34375 12.8842 9.87796 16.2433 19.1719 16.2433Z" fill="url(#paint9_radial_545_36458)"/>
<path d="M20.0436 19.5442L16.0968 19.6933L12.1504 19.5442L12.3293 20.2504C12.3293 20.2504 13.9598 20.686 16.0964 20.686C18.2329 20.686 19.8635 20.2504 19.8635 20.2504L20.0436 19.5442Z" fill="url(#paint10_linear_545_36458)"/>
<path style="mix-blend-mode:overlay" opacity="0.18" d="M14.8324 19.6458L12.1523 19.5445L12.3312 20.2508C12.3312 20.2508 13.4191 20.5411 14.9818 20.6474L14.8324 19.6458Z" fill="url(#paint11_linear_545_36458)"/>
<path d="M7.57866 12.6022L2.29004 13.5378V14.0329L4.70559 17.8218L6.23924 18.426L9.03801 17.9395L8.73637 17.0035L6.5744 17.2764L5.55157 16.9076L4.02841 14.5933L4.61313 13.9003L7.9869 14.2844L7.57866 12.6022Z" fill="url(#paint12_linear_545_36458)"/>
<path d="M7.41633 12.0925L3.88587 11.7062L2.29004 13.5378L4.6313 17.3652L6.1181 17.9755L8.83126 17.4839L8.53851 16.5383L6.44316 16.8141L5.45182 16.4417L3.97511 14.1035L4.54206 13.4037L7.81247 13.7918L7.41633 12.0925Z" fill="url(#paint13_linear_545_36458)"/>
<g opacity="0.28">
<path d="M5.45327 16.4416L3.97656 14.1035V14.3346L5.45327 16.6724L6.44461 17.0448L8.6086 16.7601L8.53995 16.5383L6.44461 16.814L5.45327 16.4416Z" fill="#FFFF6C"/>
<path d="M3.88685 11.9369L7.47262 12.3293L7.41731 12.0924L3.88685 11.7061L2.29102 13.5377L2.37419 13.6733L3.88685 11.9369Z" fill="#FFFF6C"/>
</g>
<g opacity="0.35">
<path d="M6.31855 14.0946L7.2905 14.2052L6.89518 12.5045L6.85359 12.5123L6.78817 12.2195L6.74335 12.0187L5.91797 11.9284L6.31855 14.0946Z" fill="black"/>
<path d="M8.67703 17.9755L8.46139 17.1098L8.20741 16.8783L8.37014 16.5609L6.81348 16.7656L7.09331 18.278L7.92596 18.1332L8.67703 17.9755Z" fill="black"/>
</g>
<path d="M24.3816 12.6022L29.6699 13.5378V14.0329L27.2547 17.8218L25.7206 18.426L22.9219 17.9395L23.2239 17.0035L25.3855 17.2764L26.4083 16.9076L27.9315 14.5933L27.3468 13.9003L23.973 14.2844L24.3816 12.6022Z" fill="url(#paint14_linear_545_36458)"/>
<path d="M24.5454 12.0925L28.0763 11.7062L29.6717 13.5378L27.3304 17.3652L25.8436 17.9755L23.1309 17.4839L23.4232 16.5383L25.519 16.8141L26.5103 16.4417L27.9866 14.1035L27.4201 13.4037L24.1497 13.7918L24.5454 12.0925Z" fill="url(#paint15_linear_545_36458)"/>
<path d="M26.5093 16.4417L27.9856 14.1035V14.3347L26.5093 16.6724L25.5179 17.0448L23.3535 16.7602L23.4222 16.5383L25.5179 16.814L26.5093 16.4417Z" fill="#FFCE6C"/>
<path d="M28.0754 11.937L24.4893 12.3293L24.5446 12.0925L28.0754 11.7062L29.6709 13.5378L29.5881 13.6734L28.0754 11.937Z" fill="#FFCE6C"/>
<g opacity="0.4">
<path d="M24.7562 18.2583L25.0707 16.7552L24.02 16.6172L23.9607 16.8091L23.8666 17.1137L23.8032 17.1059L23.502 18.04L24.7562 18.2583Z" fill="black"/>
<path d="M25.5788 14.1018L26.0335 11.9295L25.2028 12.0205L25.1645 12.1845L25.0878 12.5145L25.0389 12.5059L24.625 14.2102L25.5788 14.1018Z" fill="black"/>
</g>
<path d="M25.9106 10.5084C25.9106 9.73861 21.5164 9.11475 16.0957 9.11475C10.675 9.11475 6.28125 9.73861 6.28125 10.5084C6.28169 10.5396 6.28896 10.5705 6.30265 10.5993C6.47992 11.3537 7.7301 16.6275 8.26756 17.7165C8.83289 18.8554 11.924 19.8567 15.9233 19.9102V19.913C15.9814 19.913 16.0384 19.913 16.0957 19.913C16.1531 19.913 16.2104 19.913 16.2681 19.913V19.9102C20.2678 19.8556 23.361 18.8554 23.9243 17.7165C24.4617 16.6293 25.7119 11.3537 25.8892 10.5993C25.9029 10.5705 25.9101 10.5396 25.9106 10.5084Z" fill="url(#paint16_radial_545_36458)"/>
<path style="mix-blend-mode:screen" d="M25.3699 16.115C28.3985 13.4398 28.3984 9.10236 25.3699 6.42713C22.3414 3.7519 17.4311 3.7519 14.4026 6.42713C11.3741 9.10236 11.3741 13.4398 14.4026 16.115C17.4311 18.7902 22.3414 18.7902 25.3699 16.115Z" fill="url(#paint17_radial_545_36458)"/>
<path style="mix-blend-mode:screen" d="M25.2918 15.3245C28.3203 12.6492 28.3203 8.31183 25.2918 5.6366C22.2633 2.96137 17.353 2.96137 14.3245 5.6366C11.2959 8.31183 11.2959 12.6492 14.3245 15.3245C17.353 17.9997 22.2632 17.9997 25.2918 15.3245Z" fill="url(#paint18_radial_545_36458)"/>
<path style="mix-blend-mode:screen" d="M21.8914 14.5323C24.9199 11.8571 24.9199 7.51965 21.8914 4.84442C18.8629 2.16919 13.9526 2.1692 10.9241 4.84442C7.89555 7.51965 7.89554 11.8571 10.9241 14.5323C13.9526 17.2075 18.8629 17.2075 21.8914 14.5323Z" fill="url(#paint19_radial_545_36458)"/>
<path style="mix-blend-mode:overlay" d="M19.5553 9.89771C19.5553 9.89771 18.9363 15.4743 18.553 16.7994C18.1698 18.1245 15.3892 19.9383 12.1523 19.546C13.2551 19.76 14.5348 19.893 15.9259 19.912V19.9148C15.984 19.9148 16.041 19.9148 16.0987 19.9148C16.1565 19.9148 16.213 19.9148 16.2707 19.9148V19.912C17.615 19.8938 18.8551 19.7693 19.9336 19.5667C20.0217 19.541 22.1897 18.8822 22.7385 16.7263C23.2985 14.5258 24.1922 10.5861 24.1922 10.5861L19.5553 9.89771Z" fill="url(#paint20_linear_545_36458)"/>
<path opacity="0.37" d="M11.3288 17.2881C10.9815 16.4677 10.1339 11.1209 9.87511 9.44403C7.68205 9.69943 6.28125 10.0861 6.28125 10.5216C6.28165 10.5529 6.28892 10.5838 6.30265 10.6126C6.47992 11.367 7.7301 16.6407 8.26756 17.7297C8.80987 18.8259 11.6951 19.7929 15.4759 19.9131C12.4663 19.4622 11.7415 18.263 11.3288 17.2881Z" fill="url(#paint21_linear_545_36458)"/>
<path opacity="0.35" d="M6.28125 10.5084C6.28169 10.5397 6.28896 10.5705 6.30265 10.5994C6.35919 10.8405 6.52595 11.5442 6.7436 12.4253C12.0032 9.95802 24.1879 10.5844 24.1879 10.5844L24.9511 9.90665C23.3702 9.4376 19.9989 9.11407 16.0945 9.11407C10.6754 9.11479 6.28125 9.73865 6.28125 10.5084Z" fill="url(#paint22_linear_545_36458)"/>
<path style="mix-blend-mode:overlay" opacity="0.2" d="M16.4325 17.6483C16.2306 16.7645 15.6019 9.89948 15.6019 9.89948L15.5296 9.11938C12.8762 9.14293 10.5091 9.31628 8.8418 9.58059V9.62268H8.84624C8.99969 9.5989 9.15893 9.57584 9.32395 9.55349L9.36795 9.54742L9.56057 9.52245L9.628 9.51389C9.70392 9.50438 9.78065 9.49511 9.85818 9.48607L9.8715 9.48428C10.132 11.1608 10.9795 16.508 11.3252 17.3284C11.3656 17.4193 11.406 17.5117 11.45 17.6055L11.4564 17.6187C11.4689 17.6444 11.4819 17.6701 11.4968 17.6961L11.5122 17.7258C11.5227 17.7464 11.5336 17.7668 11.5449 17.7875L11.5667 17.8267C11.5764 17.8442 11.5861 17.8624 11.5962 17.8791L11.624 17.9259C11.6329 17.9408 11.6418 17.9558 11.6511 17.9708L11.6842 18.0229L11.7096 18.0625L11.75 18.1192L11.7742 18.1549C11.7888 18.1755 11.8033 18.1959 11.8186 18.2162L11.8409 18.2458C11.8574 18.2676 11.8744 18.289 11.8921 18.3107L11.9123 18.3357C11.9313 18.3585 11.9503 18.3817 11.9705 18.4045L11.9882 18.4245C12.0096 18.4488 12.0314 18.473 12.0541 18.4959C12.0589 18.5005 12.0638 18.5055 12.0682 18.5105C12.0928 18.5362 12.1179 18.5618 12.1437 18.5872L12.1522 18.5957C12.6335 19.0648 13.368 19.4932 14.5645 19.7785H14.5677C14.6415 19.7959 14.7173 19.813 14.7951 19.8299H14.7995C14.8771 19.8463 14.9565 19.8622 15.0378 19.8777C15.3459 19.8938 15.6604 19.9048 15.9815 19.9091V19.9119C16.0392 19.9119 16.0965 19.9119 16.1539 19.9119C16.2112 19.9119 16.2686 19.9119 16.3263 19.9119V19.9091C16.6973 19.9041 17.0607 19.8911 17.4166 19.8702C17.1077 19.3034 16.5742 18.2651 16.4325 17.6483Z" fill="url(#paint23_linear_545_36458)"/>
<path d="M16.0953 7.00385C10.0383 7.00385 5.12598 7.88596 5.12598 8.97388C5.12633 9.01752 5.13437 9.06084 5.14979 9.10229C5.20189 9.38301 5.33717 10.1064 5.51888 11.0481C6.79651 10.2145 11.0474 9.60202 16.0953 9.60202C21.1433 9.60202 25.3937 10.2145 26.6717 11.0481C26.8535 10.1064 26.9887 9.38301 27.0408 9.10229C27.0563 9.06084 27.0643 9.01752 27.0646 8.97388C27.0646 7.88596 22.1536 7.00385 16.0953 7.00385Z" fill="url(#paint24_radial_545_36458)"/>
<path style="mix-blend-mode:screen" d="M21.7209 13.4048C25.4457 13.4048 28.4652 10.7375 28.4652 7.44723C28.4652 4.15697 25.4457 1.48969 21.7209 1.48969C17.9961 1.48969 14.9766 4.15697 14.9766 7.44723C14.9766 10.7375 17.9961 13.4048 21.7209 13.4048Z" fill="url(#paint25_radial_545_36458)"/>
<path style="mix-blend-mode:overlay" d="M20.5767 7.17499L20.2432 9.70753L21.0423 9.81454C22.0544 9.90147 23.0605 10.036 24.0563 10.2176L24.7218 10.3068L25.317 7.90729C24.1698 7.58733 22.5234 7.33158 20.5767 7.17499Z" fill="url(#paint26_linear_545_36458)"/>
<path opacity="0.14" d="M12.1635 7.1344C8.04749 7.41976 5.12598 8.13315 5.12598 8.97388C5.12633 9.01752 5.13437 9.06084 5.14979 9.10229C5.20189 9.38301 5.33717 10.1064 5.51888 11.0481C6.47226 10.426 9.08043 9.92733 12.4397 9.71438L12.1635 7.1344Z" fill="black"/>
<path style="mix-blend-mode:overlay" opacity="0.64" d="M16.0963 7.00385C10.0392 7.00385 5.12695 7.88596 5.12695 8.97388C5.12731 9.01752 5.13534 9.06084 5.15077 9.10229C5.15319 9.11692 5.15642 9.13368 5.15965 9.1508C5.59495 8.13457 10.3251 7.33415 16.0963 7.33415C21.8675 7.33415 26.5972 8.13457 27.0329 9.1508C27.0362 9.13368 27.039 9.11513 27.0418 9.10229C27.0572 9.06084 27.0653 9.01752 27.0656 8.97388C27.0656 7.88596 22.1546 7.00385 16.0963 7.00385Z" fill="url(#paint27_linear_545_36458)"/>
<path opacity="0.35" d="M16.017 9.26068C7.32103 9.26068 5.75589 10.4481 5.54873 10.8801C5.52265 10.9296 5.51735 10.9858 5.53379 11.0385C6.82919 10.2098 11.0659 9.60204 16.0945 9.60204C21.1231 9.60204 25.3578 10.2084 26.6544 11.0381C26.6704 10.9855 26.665 10.9295 26.639 10.8801C26.4319 10.4481 24.7149 9.26068 16.017 9.26068Z" fill="url(#paint28_linear_545_36458)"/>
<path d="M26.6399 10.9443C26.4327 10.5605 24.7141 9.50574 16.0178 9.50574C7.32149 9.50574 5.75675 10.5605 5.54919 10.9443C5.34164 11.3281 6.50621 11.4558 6.50621 11.4558L6.38507 10.9443C9.32961 10.1032 14.3449 10.0212 16.0962 10.0194C17.8475 10.0176 22.8631 10.1032 25.8072 10.9443L25.6861 11.4558C25.6861 11.4558 26.8474 11.3281 26.6399 10.9443Z" fill="url(#paint29_linear_545_36458)"/>
<path opacity="0.14" d="M19.1685 14.9779C19.2148 13.1755 17.5982 11.6811 15.5577 11.6402C13.5172 11.5993 11.8255 13.0273 11.7792 14.8298C11.7329 16.6323 13.3495 18.1266 15.39 18.1675C17.4305 18.2084 19.1222 16.7804 19.1685 14.9779Z" fill="black"/>
<path d="M15.9515 17.862C17.9925 17.862 19.6471 16.4004 19.6471 14.5975C19.6471 12.7946 17.9925 11.333 15.9515 11.333C13.9104 11.333 12.2559 12.7946 12.2559 14.5975C12.2559 16.4004 13.9104 17.862 15.9515 17.862Z" fill="url(#paint30_linear_545_36458)"/>
<path d="M15.9492 17.3912C17.8428 17.3912 19.3779 16.0352 19.3779 14.3624C19.3779 12.6897 17.8428 11.3337 15.9492 11.3337C14.0556 11.3337 12.5205 12.6897 12.5205 14.3624C12.5205 16.0352 14.0556 17.3912 15.9492 17.3912Z" fill="url(#paint31_linear_545_36458)"/>
<path style="mix-blend-mode:overlay" d="M15.9502 11.3349C15.0409 11.335 14.1688 11.6541 13.5258 12.2221C12.8829 12.7901 12.5216 13.5604 12.5215 14.3636C12.5218 14.5561 12.5426 14.7481 12.5837 14.9372C12.4931 14.3822 12.5871 13.8159 12.854 13.3071C13.121 12.7984 13.5494 12.3691 14.0874 12.0714C14.6254 11.7737 15.2496 11.6204 15.8843 11.6302C16.519 11.64 17.1368 11.8125 17.6627 12.1266C18.1885 12.4407 18.5998 12.883 18.8464 13.3997C19.0931 13.9163 19.1645 14.4852 19.0521 15.0371C18.9397 15.5889 18.6482 16.1001 18.2131 16.5084C17.778 16.9167 17.218 17.2046 16.6011 17.337C17.4381 17.1938 18.1846 16.7803 18.6951 16.1771C19.2056 15.5739 19.4434 14.8244 19.3621 14.0748C19.2808 13.3251 18.8862 12.6291 18.2554 12.1226C17.6246 11.616 16.8027 11.3352 15.9502 11.3349Z" fill="url(#paint32_linear_545_36458)"/>
<path d="M15.9521 11.3349V15.0299L19.3235 14.9129C19.4152 14.476 19.3968 14.0266 19.2697 13.5967C19.1426 13.1668 18.9098 12.7668 18.588 12.4253C18.2662 12.0838 17.8632 11.809 17.4077 11.6206C16.9521 11.4321 16.4552 11.3346 15.9521 11.3349Z" fill="url(#paint33_linear_545_36458)"/>
<g style="mix-blend-mode:overlay">
<path d="M14.5127 13.3521L14.7663 12.5777H17.1116L17.5344 13.8283L17.0272 14.4814L17.5344 15.1719L17.2384 16.6373H14.629L14.5127 15.8721H16.3298L16.4885 15.3121L16.2664 14.9479H15.1996V14.2014H16.2454L16.4776 13.6788L16.2163 13.3371L14.5127 13.3521Z" fill="url(#paint34_linear_545_36458)"/>
<path d="M17.3372 16.7413H14.5255L14.3777 15.7675H16.238L16.3632 15.326L16.1964 15.052H15.0819V14.0971H16.1653L16.3454 13.6916L16.1544 13.4419L14.3555 13.4579L14.6785 12.4738H17.2007L17.6647 13.8464L17.17 14.4834L17.6598 15.1501L17.3372 16.7413ZM14.7318 16.533H17.1397L17.4098 15.194L16.8849 14.4806L17.4046 13.8107L17.0234 12.6825H14.8542L14.6696 13.2471L16.278 13.2329L16.6095 13.6666L16.3268 14.3062H15.3173V14.8444H16.3369L16.6135 15.2988L16.4217 15.9766H14.6474L14.7318 16.533Z" fill="url(#paint35_linear_545_36458)"/>
</g>
<path d="M14.5127 13.2478L14.7663 12.4734H17.1116L17.5344 13.724L17.0272 14.3771L17.5344 15.0676L17.2384 16.5329H14.629L14.5127 15.7678H16.3298L16.4885 15.2078L16.2664 14.8436H15.1996V14.0971H16.2454L16.4776 13.5745L16.2163 13.2328L14.5127 13.2478Z" fill="url(#paint36_linear_545_36458)"/>
<g opacity="0.52">
<path d="M14.7663 12.7077H17.1116L17.479 13.7949L17.5344 13.724L17.1116 12.4734H14.7663L14.5127 13.2478L14.5898 13.2471L14.7663 12.7077Z" fill="url(#paint37_linear_545_36458)"/>
<path d="M15.1992 14.0971V14.3314H16.2451L16.4773 13.8089V13.5745L16.2451 14.0971H15.1992Z" fill="url(#paint38_linear_545_36458)"/>
<path d="M16.3298 16.0022L16.4885 15.4422L16.4429 15.368L16.3298 15.7678H14.5127L14.5482 16.0022H16.3298Z" fill="url(#paint39_linear_545_36458)"/>
<path d="M17.0254 14.6114L17.4954 15.2516L17.5326 15.0676L17.0254 14.377V14.6114Z" fill="url(#paint40_linear_545_36458)"/>
</g>
<path style="mix-blend-mode:screen" d="M18.2795 19.2582C26.4257 19.2582 33.0296 16.3138 33.0296 12.6818C33.0296 9.0497 26.4257 6.10535 18.2795 6.10535C10.1332 6.10535 3.5293 9.0497 3.5293 12.6818C3.5293 16.3138 10.1332 19.2582 18.2795 19.2582Z" fill="url(#paint41_radial_545_36458)"/>
<defs>
<linearGradient id="paint0_linear_545_36458" x1="30.1985" y1="26.0157" x2="-3.61774" y2="24.2892" gradientUnits="userSpaceOnUse">
<stop stop-color="#E9C580"/>
<stop offset="1" stop-color="#D29E72"/>
</linearGradient>
<linearGradient id="paint1_linear_545_36458" x1="-0.0352248" y1="37.7035" x2="35.3899" y2="20.6401" gradientUnits="userSpaceOnUse">
<stop stop-color="#9F602E"/>
<stop offset="1" stop-color="#DAA052"/>
</linearGradient>
<linearGradient id="paint2_linear_545_36458" x1="1.87695" y1="35.0462" x2="34.6352" y2="35.0462" gradientUnits="userSpaceOnUse">
<stop/>
<stop offset="1" stop-color="#723C00"/>
</linearGradient>
<linearGradient id="paint3_linear_545_36458" x1="20.9359" y1="23.9372" x2="12.9656" y2="23.9372" gradientUnits="userSpaceOnUse">
<stop stop-color="#FEBE4A"/>
<stop offset="0.71" stop-color="#A66622"/>
<stop offset="1" stop-color="#6C3C00"/>
</linearGradient>
<radialGradient id="paint4_radial_545_36458" cx="0" cy="0" r="1" gradientUnits="userSpaceOnUse" gradientTransform="translate(18.626 24.5622) scale(7.68601 6.78935)">
<stop stop-color="#FAE060"/>
<stop offset="0.29" stop-color="#CE823A"/>
<stop offset="0.71" stop-color="#A66622"/>
<stop offset="1" stop-color="#6C3C00"/>
</radialGradient>
<linearGradient id="paint5_linear_545_36458" x1="14.772" y1="23.4023" x2="10.4732" y2="24.8995" gradientUnits="userSpaceOnUse">
<stop/>
<stop offset="1"/>
</linearGradient>
<linearGradient id="paint6_linear_545_36458" x1="18.6705" y1="21.588" x2="13.6395" y2="21.6004" gradientUnits="userSpaceOnUse">
<stop stop-color="#CE823A"/>
<stop offset="0.59" stop-color="#A66622"/>
<stop offset="1" stop-color="#6C3C00"/>
</linearGradient>
<linearGradient id="paint7_linear_545_36458" x1="17.5376" y1="19.0516" x2="17.5376" y2="22.692" gradientUnits="userSpaceOnUse">
<stop stop-color="#FEFEBE"/>
<stop offset="1" stop-color="white"/>
</linearGradient>
<linearGradient id="paint8_linear_545_36458" x1="14.9686" y1="21.2707" x2="14.9686" y2="24.4499" gradientUnits="userSpaceOnUse">
<stop/>
<stop offset="1"/>
</linearGradient>
<radialGradient id="paint9_radial_545_36458" cx="0" cy="0" r="1" gradientUnits="userSpaceOnUse" gradientTransform="translate(19.1171 8.79583) scale(16.7158 7.45745)">
<stop stop-color="#BA7000"/>
<stop offset="0.02" stop-color="#B16B00"/>
<stop offset="0.09" stop-color="#885200"/>
<stop offset="0.17" stop-color="#633C00"/>
<stop offset="0.26" stop-color="#442900"/>
<stop offset="0.35" stop-color="#2B1A00"/>
<stop offset="0.45" stop-color="#180E00"/>
<stop offset="0.57" stop-color="#0A0600"/>
<stop offset="0.72" stop-color="#020100"/>
<stop offset="1"/>
</radialGradient>
<linearGradient id="paint10_linear_545_36458" x1="20.499" y1="20.1149" x2="13.6735" y2="20.1149" gradientUnits="userSpaceOnUse">
<stop stop-color="#CE823A"/>
<stop offset="0.38" stop-color="#A66622"/>
<stop offset="1" stop-color="#6C3C00"/>
</linearGradient>
<linearGradient id="paint11_linear_545_36458" x1="13.5669" y1="19.3344" x2="13.5669" y2="22.7565" gradientUnits="userSpaceOnUse">
<stop/>
<stop offset="1"/>
</linearGradient>
<linearGradient id="paint12_linear_545_36458" x1="5.66422" y1="19.8253" x2="5.66422" y2="10.1785" gradientUnits="userSpaceOnUse">
<stop stop-color="#A46A2C"/>
<stop offset="0.41" stop-color="#82511B"/>
<stop offset="1" stop-color="#4A2A00"/>
</linearGradient>
<linearGradient id="paint13_linear_545_36458" x1="6.52756" y1="18.8751" x2="4.20379" y2="8.09562" gradientUnits="userSpaceOnUse">
<stop stop-color="#FAE28C"/>
<stop offset="0.35" stop-color="#CE823A"/>
<stop offset="0.71" stop-color="#A66622"/>
<stop offset="1" stop-color="#6C3C00"/>
</linearGradient>
<linearGradient id="paint14_linear_545_36458" x1="26.2961" y1="7.138" x2="26.2961" y2="25.8581" gradientUnits="userSpaceOnUse">
<stop stop-color="#A46A2C"/>
<stop offset="0.41" stop-color="#82511B"/>
<stop offset="1" stop-color="#4A2A00"/>
</linearGradient>
<linearGradient id="paint15_linear_545_36458" x1="22.5284" y1="15.3373" x2="34.8343" y2="13.5431" gradientUnits="userSpaceOnUse">
<stop stop-color="#FAE266"/>
<stop offset="0.5" stop-color="#CE823A"/>
<stop offset="1" stop-color="#A66622"/>
</linearGradient>
<radialGradient id="paint16_radial_545_36458" cx="0" cy="0" r="1" gradientUnits="userSpaceOnUse" gradientTransform="translate(19.0253 11.5153) scale(13.101 11.5727)">
<stop stop-color="#FACC70"/>
<stop offset="0.29" stop-color="#CE9458"/>
<stop offset="0.71" stop-color="#A66622"/>
<stop offset="1" stop-color="#6C3C00"/>
</radialGradient>
<radialGradient id="paint17_radial_545_36458" cx="0" cy="0" r="1" gradientUnits="userSpaceOnUse" gradientTransform="translate(19.8862 11.3221) scale(7.70822 6.80897)">
<stop stop-color="#FFB256"/>
<stop offset="0.04" stop-color="#E29E4C"/>
<stop offset="0.1" stop-color="#B37D3C"/>
<stop offset="0.17" stop-color="#885F2E"/>
<stop offset="0.24" stop-color="#634521"/>
<stop offset="0.32" stop-color="#443017"/>
<stop offset="0.41" stop-color="#2B1E0F"/>
<stop offset="0.5" stop-color="#181108"/>
<stop offset="0.61" stop-color="#0A0703"/>
<stop offset="0.74" stop-color="#020201"/>
<stop offset="1"/>
</radialGradient>
<radialGradient id="paint18_radial_545_36458" cx="0" cy="0" r="1" gradientUnits="userSpaceOnUse" gradientTransform="translate(19.8081 10.5316) scale(7.70822 6.80897)">
<stop stop-color="#FFB256"/>
<stop offset="0.04" stop-color="#E29E4C"/>
<stop offset="0.1" stop-color="#B37D3C"/>
<stop offset="0.17" stop-color="#885F2E"/>
<stop offset="0.24" stop-color="#634521"/>
<stop offset="0.32" stop-color="#443017"/>
<stop offset="0.41" stop-color="#2B1E0F"/>
<stop offset="0.5" stop-color="#181108"/>
<stop offset="0.61" stop-color="#0A0703"/>
<stop offset="0.74" stop-color="#020201"/>
<stop offset="1"/>
</radialGradient>
<radialGradient id="paint19_radial_545_36458" cx="0" cy="0" r="1" gradientUnits="userSpaceOnUse" gradientTransform="translate(16.4078 9.73907) scale(7.70822 6.80897)">
<stop stop-color="#FFB256"/>
<stop offset="0.04" stop-color="#E29E4C"/>
<stop offset="0.1" stop-color="#B37D3C"/>
<stop offset="0.17" stop-color="#885F2E"/>
<stop offset="0.24" stop-color="#634521"/>
<stop offset="0.32" stop-color="#443017"/>
<stop offset="0.41" stop-color="#2B1E0F"/>
<stop offset="0.5" stop-color="#181108"/>
<stop offset="0.61" stop-color="#0A0703"/>
<stop offset="0.74" stop-color="#020201"/>
<stop offset="1"/>
</radialGradient>
<linearGradient id="paint20_linear_545_36458" x1="18.1723" y1="9.91875" x2="18.1723" y2="16.8825" gradientUnits="userSpaceOnUse">
<stop stop-color="#F2ECFF"/>
<stop offset="1" stop-color="white"/>
</linearGradient>
<linearGradient id="paint21_linear_545_36458" x1="9.39983" y1="12.405" x2="11.2191" y2="18.4724" gradientUnits="userSpaceOnUse">
<stop stop-color="#3A1800"/>
<stop offset="1"/>
</linearGradient>
<linearGradient id="paint22_linear_545_36458" x1="6.28125" y1="10.7699" x2="24.9528" y2="10.7699" gradientUnits="userSpaceOnUse">
<stop stop-color="#482C12"/>
<stop offset="0.34" stop-color="#44270F"/>
<stop offset="0.77" stop-color="#381706"/>
<stop offset="1" stop-color="#300C00"/>
</linearGradient>
<linearGradient id="paint23_linear_545_36458" x1="12.3933" y1="10.3992" x2="13.5223" y2="17.5745" gradientUnits="userSpaceOnUse">
<stop/>
<stop offset="1"/>
</linearGradient>
<radialGradient id="paint24_radial_545_36458" cx="0" cy="0" r="1" gradientUnits="userSpaceOnUse" gradientTransform="translate(21.6008 8.61932) scale(19.7694 17.4631)">
<stop stop-color="#FAE28C"/>
<stop offset="0.35" stop-color="#CE823A"/>
<stop offset="0.71" stop-color="#A66622"/>
<stop offset="1" stop-color="#6C3C00"/>
</radialGradient>
<radialGradient id="paint25_radial_545_36458" cx="0" cy="0" r="1" gradientUnits="userSpaceOnUse" gradientTransform="translate(21.7209 7.4911) scale(6.70315 5.92116)">
<stop stop-color="#FFB256"/>
<stop offset="0.04" stop-color="#E29E4C"/>
<stop offset="0.1" stop-color="#B37D3C"/>
<stop offset="0.17" stop-color="#885F2E"/>
<stop offset="0.24" stop-color="#634521"/>
<stop offset="0.32" stop-color="#443017"/>
<stop offset="0.41" stop-color="#2B1E0F"/>
<stop offset="0.5" stop-color="#181108"/>
<stop offset="0.61" stop-color="#0A0703"/>
<stop offset="0.74" stop-color="#020201"/>
<stop offset="1"/>
</radialGradient>
<linearGradient id="paint26_linear_545_36458" x1="22.7799" y1="7.07048" x2="22.7799" y2="9.90586" gradientUnits="userSpaceOnUse">
<stop stop-color="#FEFEBE"/>
<stop offset="1" stop-color="white"/>
</linearGradient>
<linearGradient id="paint27_linear_545_36458" x1="5.12695" y1="8.0775" x2="27.0656" y2="8.0775" gradientUnits="userSpaceOnUse">
<stop stop-color="#FEFEFF"/>
<stop offset="0.12" stop-color="#FEFEFF"/>
<stop offset="0.54" stop-color="#FEFEFF"/>
<stop offset="1" stop-color="#FEFEFF"/>
</linearGradient>
<linearGradient id="paint28_linear_545_36458" x1="22.4415" y1="10.1496" x2="12.6201" y2="10.1496" gradientUnits="userSpaceOnUse">
<stop stop-color="#6A2C12"/>
<stop offset="0.24" stop-color="#652910"/>
<stop offset="0.54" stop-color="#55200B"/>
<stop offset="0.88" stop-color="#3B1204"/>
<stop offset="1" stop-color="#300C00"/>
</linearGradient>
<linearGradient id="paint29_linear_545_36458" x1="22.4427" y1="10.4806" x2="12.621" y2="10.4806" gradientUnits="userSpaceOnUse">
<stop stop-color="#A46A2C"/>
<stop offset="0.41" stop-color="#82511B"/>
<stop offset="1" stop-color="#4A2A00"/>
</linearGradient>
<linearGradient id="paint30_linear_545_36458" x1="17.7484" y1="12.554" x2="14.9717" y2="16.6014" gradientUnits="userSpaceOnUse">
<stop stop-color="#C4903C"/>
<stop offset="0.31" stop-color="#A1732B"/>
<stop offset="1" stop-color="#4A2A00"/>
</linearGradient>
<linearGradient id="paint31_linear_545_36458" x1="16.84" y1="11.4821" x2="15.0354" y2="18.9609" gradientUnits="userSpaceOnUse">
<stop stop-color="#FAE28C"/>
<stop offset="0.57" stop-color="#CE823A"/>
<stop offset="1" stop-color="#A66622"/>
</linearGradient>
<linearGradient id="paint32_linear_545_36458" x1="17.6688" y1="11.7562" x2="14.5171" y2="17.8816" gradientUnits="userSpaceOnUse">
<stop stop-color="#FEFEFF"/>
<stop offset="0.12" stop-color="#FEFEFF"/>
<stop offset="0.54" stop-color="#FEFEFF"/>
<stop offset="1" stop-color="#FEFEFF"/>
</linearGradient>
<linearGradient id="paint33_linear_545_36458" x1="18.6294" y1="11.9531" x2="16.8424" y2="14.6553" gradientUnits="userSpaceOnUse">
<stop stop-color="#F2ECFF"/>
<stop offset="0.48" stop-color="#FAF8FF"/>
<stop offset="1" stop-color="white"/>
</linearGradient>
<linearGradient id="paint34_linear_545_36458" x1="14.5127" y1="14.6073" x2="17.5344" y2="14.6073" gradientUnits="userSpaceOnUse">
<stop stop-color="#FEFEFF"/>
<stop offset="0.12" stop-color="#FEFEFF"/>
<stop offset="0.54" stop-color="#FEFEFF"/>
<stop offset="1" stop-color="#FEFEFF"/>
</linearGradient>
<linearGradient id="paint35_linear_545_36458" x1="14.3551" y1="14.6072" x2="17.6634" y2="14.6072" gradientUnits="userSpaceOnUse">
<stop stop-color="#FEFEFF"/>
<stop offset="0.12" stop-color="#FEFEFF"/>
<stop offset="0.54" stop-color="#FEFEFF"/>
<stop offset="1" stop-color="#FEFEFF"/>
</linearGradient>
<linearGradient id="paint36_linear_545_36458" x1="16.0233" y1="18.5925" x2="16.0233" y2="12.4855" gradientUnits="userSpaceOnUse">
<stop stop-color="#A46A2C"/>
<stop offset="0.41" stop-color="#82511B"/>
<stop offset="1" stop-color="#4A2A00"/>
</linearGradient>
<linearGradient id="paint37_linear_545_36458" x1="16.0233" y1="14.4655" x2="16.0233" y2="12.4773" gradientUnits="userSpaceOnUse">
<stop stop-color="#482C12"/>
<stop offset="0.34" stop-color="#44270F"/>
<stop offset="0.77" stop-color="#381706"/>
<stop offset="1" stop-color="#300C00"/>
</linearGradient>
<linearGradient id="paint38_linear_545_36458" x1="15.8384" y1="14.7156" x2="15.8384" y2="13.5767" gradientUnits="userSpaceOnUse">
<stop stop-color="#482C12"/>
<stop offset="0.34" stop-color="#44270F"/>
<stop offset="0.77" stop-color="#381706"/>
<stop offset="1" stop-color="#300C00"/>
</linearGradient>
<linearGradient id="paint39_linear_545_36458" x1="15.5004" y1="16.3239" x2="15.5004" y2="15.3698" gradientUnits="userSpaceOnUse">
<stop stop-color="#482C12"/>
<stop offset="0.34" stop-color="#44270F"/>
<stop offset="0.77" stop-color="#381706"/>
<stop offset="1" stop-color="#300C00"/>
</linearGradient>
<linearGradient id="paint40_linear_545_36458" x1="17.279" y1="15.695" x2="17.279" y2="14.3795" gradientUnits="userSpaceOnUse">
<stop stop-color="#482C12"/>
<stop offset="0.34" stop-color="#44270F"/>
<stop offset="0.77" stop-color="#381706"/>
<stop offset="1" stop-color="#300C00"/>
</linearGradient>
<radialGradient id="paint41_radial_545_36458" cx="0" cy="0" r="1" gradientUnits="userSpaceOnUse" gradientTransform="translate(18.2252 12.7303) scale(14.6522 6.53681)">
<stop stop-color="#BA7000"/>
<stop offset="0.02" stop-color="#B16B00"/>
<stop offset="0.09" stop-color="#885200"/>
<stop offset="0.17" stop-color="#633C00"/>
<stop offset="0.26" stop-color="#442900"/>
<stop offset="0.35" stop-color="#2B1A00"/>
<stop offset="0.45" stop-color="#180E00"/>
<stop offset="0.57" stop-color="#0A0600"/>
<stop offset="0.72" stop-color="#020100"/>
<stop offset="1"/>
</radialGradient>
</defs>
</svg>
