<svg width="36" height="36" viewBox="0 0 36 36" fill="none" xmlns="http://www.w3.org/2000/svg">
<path d="M28.1299 22.6435H17.7257H16.9046H6.50037L2.46289 23.8199H16.9046H17.7257H32.1674L28.1299 22.6435Z" fill="url(#paint0_linear_545_36861)"/>
<path opacity="0.43" d="M18.3229 23.4288C18.3229 23.4288 12.7402 23.8199 10.3516 23.8199H2.45898L6.49708 22.6435H15.7789L18.3229 23.4288Z" fill="#401E00"/>
<path d="M18.4391 20.6986L17.246 20.7772L16.0529 20.6986C16.0529 20.6986 13.9727 20.8189 12.2158 22.0763C12.2158 22.0763 13.4224 22.5525 17.2466 22.5525C21.0709 22.5525 22.2765 22.0776 22.2765 22.0776C20.5199 20.8202 18.4391 20.6986 18.4391 20.6986Z" fill="url(#paint1_linear_545_36861)"/>
<path style="mix-blend-mode:overlay" opacity="0.54" d="M17.2486 22.3939C14.1894 22.3939 12.807 22.0895 12.375 21.9675C12.3224 22.0028 12.2698 22.039 12.2178 22.0764C12.2178 22.0764 13.4243 22.5527 17.2486 22.5527C21.0728 22.5527 22.2797 22.0778 22.2797 22.0778C22.2273 22.0403 22.1747 22.0041 22.1221 21.9688C21.6905 22.0895 20.3071 22.3939 17.2486 22.3939Z" fill="url(#paint2_linear_545_36861)"/>
<path d="M22.2742 22.0777C22.1922 22.1083 20.9404 22.5521 17.248 22.5521C13.4241 22.5521 12.2175 22.0758 12.2172 22.0758L11.9346 22.8879C11.9346 22.8879 13.5003 23.4362 17.1945 23.4464H17.297C20.9912 23.4362 22.5569 22.8879 22.5569 22.8879L22.2742 22.0777Z" fill="url(#paint3_linear_545_36861)"/>
<path opacity="0.36" d="M12.2178 22.0776C12.2178 22.0776 14.7599 21.1817 17.6291 21.1888C17.6291 21.1888 18.4 21.0148 18.2232 20.7141L17.2476 20.7772L16.0546 20.6986C16.0546 20.6986 13.9743 20.8189 12.2181 22.0758L12.2178 22.0776Z" fill="#401E00"/>
<path style="mix-blend-mode:screen" d="M19.6039 24.8685C23.16 24.6224 25.9402 23.3347 25.8135 21.9922C25.6868 20.6498 22.7013 19.761 19.1451 20.0071C15.5889 20.2532 12.8088 21.541 12.9354 22.8834C13.0621 24.2258 16.0477 25.1146 19.6039 24.8685Z" fill="url(#paint4_radial_545_36861)"/>
<path d="M19.3525 17.6479C19.1521 17.6118 18.4919 17.5528 17.6458 17.5397H17.5974H17.4836H17.149H17.0355H16.9868C16.1407 17.5528 15.4805 17.6118 15.2801 17.6479C15.2351 17.6532 15.1902 17.6584 15.1455 17.6644L15.8831 20.8989C15.8831 20.8989 16.1639 21.1299 16.9792 21.187L17.0021 21.1889H17.0049C17.1015 21.1957 17.2052 21.1993 17.3163 21.1988C17.4273 21.1983 17.5304 21.1957 17.6277 21.1889H17.6305L17.6534 21.187C18.4687 21.1312 18.7495 20.8989 18.7495 20.8989L19.4871 17.6644C19.4424 17.6584 19.3974 17.6532 19.3525 17.6479Z" fill="url(#paint5_linear_545_36861)"/>
<path style="mix-blend-mode:overlay" opacity="0.58" d="M18.0039 21.1464C18.5478 21.061 18.7467 20.8989 18.7467 20.8989L19.4842 17.6644C19.4396 17.6584 19.3946 17.6532 19.3496 17.6479C19.2202 17.6246 18.8981 17.5919 18.4585 17.5678L18.1437 17.7289L18.0039 21.1464Z" fill="url(#paint6_linear_545_36861)"/>
<path style="mix-blend-mode:overlay" opacity="0.35" d="M16.6979 17.6506L16.3853 17.5571C15.8346 17.5809 15.4281 17.6207 15.2782 17.6477C15.2332 17.6529 15.1882 17.6582 15.1436 17.6642L15.8811 20.8989C15.8811 20.8989 16.162 21.13 16.9772 21.1871L17.0002 21.1889H17.0029C17.0115 21.1889 17.021 21.1889 17.0298 21.1905L16.6979 17.6506Z" fill="url(#paint7_linear_545_36861)"/>
<path d="M21.2369 17.3936L17.3147 17.5374L13.3926 17.3936L13.5706 18.0747C13.5706 18.0747 15.192 18.4939 17.3144 18.4939C19.4378 18.4939 21.0582 18.0747 21.0582 18.0747L21.2369 17.3936Z" fill="url(#paint8_linear_545_36861)"/>
<path style="mix-blend-mode:overlay" opacity="0.2" d="M16.0533 17.4913L13.3896 17.3936L13.5677 18.0747C13.5677 18.0747 14.6488 18.3545 16.2019 18.4572L16.0533 17.4913Z" fill="url(#paint9_linear_545_36861)"/>
<path d="M32.1674 23.8198H17.5415H17.0891H2.46293L0 36.0002H17.0891H17.5415H34.6303L32.1674 23.8198Z" fill="url(#paint10_linear_545_36861)"/>
<g style="mix-blend-mode:overlay" opacity="0.56">
<path d="M17.0826 24.0495H17.5469H32.2135L32.167 23.8198H17.5411H17.0887H2.46252L2.41602 24.0495H17.0826Z" fill="white"/>
</g>
<path d="M8.17165 10.7059L2.91602 11.6071V12.0844L5.31654 15.7343L6.84092 16.3164L9.622 15.8475L9.32221 14.946L7.17376 15.2088L6.1572 14.8536L4.64383 12.624L5.22476 11.9565L8.5776 12.3267L8.17165 10.7059Z" fill="url(#paint11_linear_545_36861)"/>
<path d="M8.01044 10.2148L4.50188 9.84256L2.91602 11.6071L5.24281 15.2943L6.72039 15.8826L9.41643 15.409L9.12581 14.4981L7.04313 14.7635L6.05777 14.4049L4.5906 12.1523L5.15379 11.478L8.40384 11.8518L8.01044 10.2148Z" fill="url(#paint12_linear_545_36861)"/>
<g opacity="0.28">
<path d="M6.05476 14.4049L4.66926 12.2773L4.58789 12.3747L6.05476 14.6273L7.04011 14.9859L9.19101 14.7117L9.12279 14.4982L7.04011 14.7635L6.05476 14.4049Z" fill="#FFFF00"/>
<path d="M4.49797 10.065L8.06159 10.443L8.00653 10.2148L4.49797 9.84259L2.91211 11.6072L2.99471 11.7379L4.49797 10.065Z" fill="#FFFF00"/>
</g>
<g opacity="0.23">
<path d="M7.60739 12.2197L8.57684 12.3265L8.17089 10.706L8.12959 10.7131L8.06473 10.443L8.00967 10.2149L7.19043 10.1279L7.60739 12.2197Z" fill="#401E00"/>
<path d="M9.32135 14.9461L9.26965 14.9523L9.19317 14.7116L9.12495 14.4981L8.08789 14.6301L8.37239 16.0581L9.62115 15.8475L9.32135 14.9461Z" fill="#401E00"/>
</g>
<path d="M26.3556 10.7059L31.6113 11.6071V12.0844L29.211 15.7343L27.6867 16.3164L24.9053 15.8475L25.2054 14.946L27.3535 15.2088L28.3701 14.8536L29.8838 12.624L29.3028 11.9565L25.9497 12.3267L26.3556 10.7059Z" fill="url(#paint13_linear_545_36861)"/>
<path d="M26.5154 10.2148L30.0239 9.84256L31.6098 11.6071L29.283 15.2943L27.8054 15.8826L25.1094 15.409L25.4003 14.4981L27.4827 14.7635L28.468 14.4049L29.9352 12.1523L29.372 11.478L26.122 11.8518L26.5154 10.2148Z" fill="url(#paint14_linear_545_36861)"/>
<g opacity="0.28">
<path d="M28.467 14.4049L29.8528 12.2773L29.9342 12.3747L28.467 14.6273L27.4816 14.9859L25.3311 14.7117L25.3993 14.4982L27.4816 14.7635L28.467 14.4049Z" fill="white"/>
<path d="M30.0213 10.065L26.458 10.443L26.5128 10.2148L30.0213 9.84259L31.6072 11.6072L31.5249 11.7379L30.0213 10.065Z" fill="white"/>
</g>
<g opacity="0.29">
<path d="M26.2497 14.6063L25.3998 14.4981L25.3316 14.7116L25.2548 14.9523L25.2034 14.946L24.9033 15.8474L25.9434 16.023L26.2497 14.6063Z" fill="#401E00"/>
<path d="M26.4607 10.443L26.3958 10.7131L26.3542 10.706L25.9482 12.3265L26.762 12.2369L27.215 10.1407L26.5154 10.2148L26.4607 10.443Z" fill="#401E00"/>
</g>
<path d="M27.0676 8.68895C27.0676 7.94733 22.7009 7.34613 17.3141 7.34613C11.9272 7.34613 7.56055 7.94864 7.56055 8.68895C7.561 8.71891 7.56817 8.74853 7.58166 8.77618C7.75786 9.50365 9.00019 14.5857 9.53463 15.6336C10.0945 16.7309 13.168 17.6947 17.1428 17.7473V17.7499C17.2003 17.7499 17.2569 17.7499 17.3141 17.7499C17.3713 17.7499 17.4279 17.7499 17.4854 17.7499V17.7473C21.4602 17.6949 24.534 16.7309 25.0938 15.6336C25.628 14.5857 26.8703 9.50365 27.0465 8.77697C27.06 8.74931 27.0671 8.7197 27.0676 8.68973V8.68895Z" fill="url(#paint15_radial_545_36861)"/>
<path style="mix-blend-mode:screen" d="M21.081 16.0231C25.3374 16.0231 28.7879 13.0684 28.7879 9.42352C28.7879 5.77866 25.3374 2.82391 21.081 2.82391C16.8245 2.82391 13.374 5.77866 13.374 9.42352C13.374 13.0684 16.8245 16.0231 21.081 16.0231Z" fill="url(#paint16_radial_545_36861)"/>
<path style="mix-blend-mode:screen" d="M21.0038 15.2617C25.2603 15.2617 28.7108 12.307 28.7108 8.66214C28.7108 5.01728 25.2603 2.06253 21.0038 2.06253C16.7474 2.06253 13.2969 5.01728 13.2969 8.66214C13.2969 12.307 16.7474 15.2617 21.0038 15.2617Z" fill="url(#paint17_radial_545_36861)"/>
<path style="mix-blend-mode:screen" d="M17.6239 14.4982C21.8804 14.4982 25.3309 11.5435 25.3309 7.89859C25.3309 4.25373 21.8804 1.29898 17.6239 1.29898C13.3675 1.29898 9.91699 4.25373 9.91699 7.89859C9.91699 11.5435 13.3675 14.4982 17.6239 14.4982Z" fill="url(#paint18_radial_545_36861)"/>
<path style="mix-blend-mode:overlay" d="M20.7466 8.10046C20.7466 8.10046 20.1314 13.4728 19.7506 14.7496C19.3697 16.0264 16.6067 17.7726 13.3896 17.3936C14.4861 17.5995 15.7584 17.7281 17.1402 17.7464V17.7488C17.1977 17.7488 17.2543 17.7488 17.3115 17.7488C17.3687 17.7488 17.4253 17.7488 17.4828 17.7488V17.7464C18.8187 17.7286 20.0525 17.6076 21.1232 17.4137C21.2107 17.3875 23.3653 16.7541 23.9104 14.6773C24.4672 12.5572 25.3549 8.76192 25.3549 8.76192L20.7466 8.10046Z" fill="url(#paint19_linear_545_36861)"/>
<path style="mix-blend-mode:overlay" opacity="0.31" d="M12.5776 15.2584C12.2326 14.4678 11.3901 9.31681 11.1313 7.70129C8.95191 7.94754 7.56152 8.32136 7.56152 8.73971C7.56198 8.76976 7.56915 8.79946 7.58263 8.82721C7.75884 9.55389 9.00117 14.6365 9.5356 15.6838C10.074 16.7398 12.9414 17.6713 16.6986 17.7871C13.708 17.3528 12.9876 16.1975 12.5776 15.2584Z" fill="url(#paint20_linear_545_36861)"/>
<path style="mix-blend-mode:overlay" opacity="0.14" d="M17.6523 15.5653C17.4513 14.7139 16.8263 8.09938 16.8263 8.09938L16.7547 7.34781C14.1177 7.3706 11.7652 7.53747 10.1084 7.79314V7.83532C10.4257 7.78729 10.7668 7.74267 11.1317 7.70146C11.3902 9.31698 12.233 14.4679 12.5778 15.2585C12.9672 16.1492 13.6381 17.2369 16.2656 17.7157C16.5715 17.7315 16.8844 17.7419 17.2035 17.7464V17.749C17.261 17.749 17.3179 17.749 17.3751 17.749C17.4323 17.749 17.4889 17.749 17.5464 17.749V17.7464C17.9154 17.7413 18.2761 17.7287 18.6285 17.7087C18.3232 17.1614 17.793 16.1613 17.6523 15.5653Z" fill="url(#paint21_linear_545_36861)"/>
<path opacity="0.19" d="M7.56055 8.68895C7.561 8.71891 7.56817 8.74853 7.58166 8.77618C7.63795 9.0088 7.80344 9.68676 8.01973 10.5355C13.2466 8.15847 25.3572 8.76203 25.3572 8.76203L26.1159 8.10975C24.545 7.65813 21.1943 7.34613 17.3141 7.34613C11.9275 7.34613 7.56055 7.94733 7.56055 8.68895Z" fill="#463000"/>
<path opacity="0.19" d="M20.2853 11.1433L16.7373 9.40332L13.1893 11.1433L13.0947 11.5179L13.3107 14.9061L16.7373 16.6002L20.1638 14.9061L20.3798 11.5179L20.2853 11.1433Z" fill="#463000"/>
<path d="M20.7773 14.548L20.9352 11.3639L20.7592 10.9023L17.2112 9.49033L13.6632 10.9023L13.5332 11.4181L13.6632 14.6051L17.2112 16.3592L20.7773 14.548Z" fill="url(#paint22_linear_545_36861)"/>
<path d="M20.5496 14.2027L20.7601 10.9022L17.2121 9.16226L13.6641 10.9022L13.8745 14.2027L17.2121 15.8528L20.5496 14.2027Z" fill="url(#paint23_linear_545_36861)"/>
<path style="mix-blend-mode:overlay" d="M17.2121 9.16226L13.6641 10.9022L13.6787 11.132L17.016 9.49495L20.4624 11.1854L20.2611 14.3452L20.5496 14.2027L20.7601 10.9022L17.2121 9.16226Z" fill="url(#paint24_linear_545_36861)"/>
<path style="mix-blend-mode:overlay" d="M17.213 9.16226L16.5186 12.6885L17.7707 13.1949L20.761 10.9022L17.213 9.16226Z" fill="url(#paint25_linear_545_36861)"/>
<path style="mix-blend-mode:overlay" d="M15.8271 11.7702H16.7636L16.6057 14.9387H18.0157L17.7593 11.0897H16.1918L15.8271 11.7702Z" fill="url(#paint26_linear_545_36861)"/>
<path d="M15.8301 11.6008H16.7665L16.6086 14.7693H18.0186L17.7622 10.9203H16.1947L15.8301 11.6008Z" fill="url(#paint27_linear_545_36861)"/>
<path opacity="0.51" d="M16.1947 11.1786H17.7622L18.0012 14.7693H18.0183L17.7622 10.9203H16.1947L15.8301 11.6008H15.9684L16.1947 11.1786Z" fill="black"/>
<path d="M17.3164 5.31216C11.2959 5.31216 6.41504 6.16171 6.41504 7.20982C6.41545 7.25176 6.4235 7.29339 6.4389 7.3332C6.4906 7.60381 6.6252 8.30063 6.806 9.2078C8.07586 8.40463 12.3003 7.81469 17.3167 7.81469C22.3331 7.81469 26.5575 8.40463 27.8273 9.2078C28.0081 8.30063 28.1424 7.60381 28.1944 7.3332C28.2096 7.29334 28.2175 7.25173 28.218 7.20982C28.2177 6.16223 23.3371 5.31216 17.3164 5.31216Z" fill="url(#paint28_radial_545_36861)"/>
<path style="mix-blend-mode:screen" d="M22.9045 11.4787C26.6061 11.4787 29.6068 8.90916 29.6068 5.73942C29.6068 2.56968 26.6061 9.15527e-05 22.9045 9.15527e-05C19.2029 9.15527e-05 16.2021 2.56968 16.2021 5.73942C16.2021 8.90916 19.2029 11.4787 22.9045 11.4787Z" fill="url(#paint29_radial_545_36861)"/>
<path style="mix-blend-mode:overlay" d="M21.7662 5.47733L21.4346 7.91593L22.23 8.01914C23.3542 8.11816 24.3668 8.24993 25.2255 8.40763L25.8866 8.49329L26.4782 6.18174C25.3371 5.87446 23.7011 5.62822 21.7662 5.47733Z" fill="url(#paint30_linear_545_36861)"/>
<path opacity="0.14" d="M13.4089 5.43808C9.3188 5.71183 6.41504 6.40184 6.41504 7.21025C6.41545 7.25219 6.4235 7.29382 6.4389 7.33364C6.4906 7.60424 6.6249 8.30106 6.806 9.20824C7.75434 8.60913 10.3454 8.12869 13.6836 7.92462L13.4089 5.43808Z" fill="#563A00"/>
<path style="mix-blend-mode:overlay" d="M17.3144 5.31216C11.294 5.31216 6.41309 6.16171 6.41309 7.20982C6.4135 7.25176 6.42155 7.29339 6.43695 7.3332C6.4394 7.34761 6.44276 7.36359 6.44582 7.38009C6.87869 6.40114 11.5794 5.62992 17.3144 5.62992C23.0494 5.62992 27.7501 6.40193 28.183 7.38166C28.1861 7.36516 28.1894 7.34918 28.1919 7.33477C28.2073 7.29496 28.2153 7.25333 28.2157 7.21139C28.2157 6.16223 23.3351 5.31216 17.3144 5.31216Z" fill="url(#paint31_linear_545_36861)"/>
<path opacity="0.2" d="M17.236 7.44992C8.78289 7.44992 7.05599 8.58317 6.77148 9.05051C6.78148 9.1029 6.79167 9.15529 6.80208 9.20769C8.07193 8.40451 12.2963 7.81457 17.3127 7.81457C22.3292 7.81457 26.5536 8.40451 27.8234 9.20769C27.8338 9.15529 27.844 9.1029 27.854 9.05051C27.5658 8.58657 25.7013 7.44992 17.236 7.44992Z" fill="#563000"/>
<path d="M27.7947 9.10846C27.5888 8.73884 25.8809 7.72269 17.2388 7.72269C8.59662 7.72269 7.04135 8.73884 6.83516 9.10846C6.62897 9.47809 7.78595 9.60148 7.78595 9.60148L7.66358 9.10846C10.5897 8.29822 15.574 8.2191 17.3143 8.21779C19.0547 8.21648 24.039 8.29848 26.9651 9.10846L26.8427 9.60148C26.8427 9.60148 28.0009 9.47731 27.7947 9.10846Z" fill="url(#paint32_linear_545_36861)"/>
<path d="M5.83411 9.98407L5.6631 10.1881L2.68164 21.3954L5.49057 20.2045L7.75802 22.0765L7.56192 10.3896L7.49738 10.1604L5.83411 9.98407Z" fill="url(#paint33_linear_545_36861)"/>
<path d="M6.21883 10.0253L6.06189 10.2351L3.94434 19.774L5.67857 19.0638L7.01053 20.1829L7.2366 10.359L7.18919 10.1277L6.21883 10.0253Z" fill="url(#paint34_linear_545_36861)"/>
<g opacity="0.41">
<path d="M5.52617 18.9423L3.98833 19.572L3.94336 19.774L5.67301 19.0657L5.52617 18.9423Z" fill="#620000"/>
<path d="M7.18946 10.1277L7.06036 10.1141L7.08544 10.2372L6.85938 20.0558L7.0108 20.1828L7.23687 10.359L7.18946 10.1277Z" fill="#620000"/>
</g>
<g style="mix-blend-mode:overlay">
<path d="M5.66211 10.1881L7.56093 10.3896L7.49639 10.1604L5.83312 9.98407L5.66211 10.1881Z" fill="white"/>
</g>
<path d="M28.6622 9.97284L28.8332 10.1772L31.8147 21.3844L29.0054 20.1935L26.7383 22.0655L26.9344 10.3786L26.9986 10.1494L28.6622 9.97284Z" fill="url(#paint35_linear_545_36861)"/>
<path d="M28.2736 10.0147L28.4306 10.2245L30.5478 19.7633L28.8139 19.0532L27.4819 20.1723L27.2559 10.3484L27.3033 10.1171L28.2736 10.0147Z" fill="url(#paint36_linear_545_36861)"/>
<path opacity="0.24" d="M28.4305 10.2245L28.2736 10.0147L28.0907 10.0341L28.1418 10.1027L30.259 19.6413L28.5251 18.9311L27.4736 19.8147L27.4819 20.1723L28.8139 19.0532L30.5478 19.7633L28.4305 10.2245Z" fill="#620000"/>
<g style="mix-blend-mode:overlay">
<path d="M28.8314 10.1772L26.9326 10.3786L26.9969 10.1494L28.6604 9.97284L28.8314 10.1772Z" fill="white"/>
</g>
<path style="mix-blend-mode:overlay" opacity="0.34" d="M0.373216 34.1547H34.2571L34.6303 36.0002H0L0.373216 34.1547Z" fill="url(#paint37_linear_545_36861)"/>
<path style="mix-blend-mode:screen" d="M20.0578 12.4905C27.4711 12.4905 33.4808 9.89296 33.4808 6.68879C33.4808 3.48461 27.4711 0.887115 20.0578 0.887115C12.6444 0.887115 6.63477 3.48461 6.63477 6.68879C6.63477 9.89296 12.6444 12.4905 20.0578 12.4905Z" fill="url(#paint38_radial_545_36861)"/>
<path style="mix-blend-mode:screen" d="M18.7453 16.6584C26.1586 16.6584 32.1683 14.0609 32.1683 10.8568C32.1683 7.65258 26.1586 5.05508 18.7453 5.05508C11.3319 5.05508 5.32227 7.65258 5.32227 10.8568C5.32227 14.0609 11.3319 16.6584 18.7453 16.6584Z" fill="url(#paint39_radial_545_36861)"/>
<path style="mix-blend-mode:screen" opacity="0.72" d="M8.96682 24.0904C10.2817 23.4227 10.0748 21.0436 8.50473 18.7765C6.93467 16.5095 4.59599 15.213 3.28114 15.8807C1.96629 16.5484 2.17317 18.9276 3.74323 21.1946C5.31328 23.4617 7.65197 24.7582 8.96682 24.0904Z" fill="url(#paint40_radial_545_36861)"/>
<path style="mix-blend-mode:screen" opacity="0.72" d="M33.6182 23.8805C34.933 23.2128 34.7262 20.8336 33.1561 18.5666C31.586 16.2996 29.2474 15.003 27.9325 15.6708C26.6177 16.3385 26.8245 18.7176 28.3946 20.9847C29.9647 23.2517 32.3033 24.5482 33.6182 23.8805Z" fill="url(#paint41_radial_545_36861)"/>
<path style="mix-blend-mode:screen" d="M25.6671 10.0242C23.3807 10.8035 20.7308 9.94321 19.7485 8.10293C18.7662 6.26265 19.8195 4.1384 22.1059 3.35801C24.3923 2.57763 27.0419 3.44001 28.0245 5.2795C29.0071 7.119 27.9532 9.24508 25.6671 10.0242Z" fill="url(#paint42_radial_545_36861)"/>
<path style="mix-blend-mode:screen" d="M17.8909 11.539C17.6517 11.3347 19.0479 9.78652 21.0091 8.08115C22.9704 6.37578 24.7557 5.16028 24.9949 5.36461C25.2341 5.56894 23.8389 7.11661 21.877 8.8225C19.9152 10.5284 18.1314 11.7442 17.8909 11.539Z" fill="url(#paint43_radial_545_36861)"/>
<path style="mix-blend-mode:screen" d="M30.0203 1.15489C29.7813 0.949777 27.974 2.14511 25.9822 3.82455C23.9903 5.50399 22.5715 7.0328 22.8104 7.23765C23.0493 7.4425 24.8561 6.24796 26.8485 4.56826C28.841 2.88856 30.2595 1.3608 30.0203 1.15489Z" fill="url(#paint44_radial_545_36861)"/>
<path style="mix-blend-mode:screen" d="M29.6565 11.2271C29.3879 11.4581 27.6533 10.3702 25.7833 8.79712C23.9132 7.22404 22.6155 5.76203 22.885 5.53124C23.1545 5.30045 24.8876 6.38707 26.7579 7.96015C28.6283 9.53323 29.9272 10.9968 29.6565 11.2271Z" fill="url(#paint45_radial_545_36861)"/>
<path style="mix-blend-mode:screen" d="M18.2853 1.48884C18.0149 1.71858 19.2856 3.2039 21.1224 4.80501C22.9591 6.40612 24.6667 7.51763 24.9365 7.28736C25.2063 7.0571 23.9371 5.57204 22.1001 3.9704C20.263 2.36877 18.5551 1.25779 18.2853 1.48884Z" fill="url(#paint46_radial_545_36861)"/>
<defs>
<linearGradient id="paint0_linear_545_36861" x1="31.6647" y1="23.2318" x2="-0.0740716" y2="23.2318" gradientUnits="userSpaceOnUse">
<stop stop-color="#FFFFCC"/>
<stop offset="1" stop-color="#E28E00"/>
</linearGradient>
<linearGradient id="paint1_linear_545_36861" x1="20.8696" y1="21.9215" x2="11.3238" y2="20.8975" gradientUnits="userSpaceOnUse">
<stop stop-color="#FFFF46"/>
<stop offset="0.1" stop-color="#EFE53B"/>
<stop offset="0.32" stop-color="#D1B326"/>
<stop offset="0.53" stop-color="#B98C16"/>
<stop offset="0.71" stop-color="#A86F0A"/>
<stop offset="0.88" stop-color="#9E5E03"/>
<stop offset="1" stop-color="#9A5800"/>
</linearGradient>
<linearGradient id="paint2_linear_545_36861" x1="21.447" y1="22.2601" x2="13.5124" y2="22.2601" gradientUnits="userSpaceOnUse">
<stop stop-color="#FEFEFF"/>
<stop offset="1" stop-color="white"/>
</linearGradient>
<linearGradient id="paint3_linear_545_36861" x1="21.7129" y1="22.7617" x2="9.08833" y2="22.7617" gradientUnits="userSpaceOnUse">
<stop stop-color="#DAAA00"/>
<stop offset="1" stop-color="#5E3000"/>
</linearGradient>
<radialGradient id="paint4_radial_545_36861" cx="0" cy="0" r="1" gradientUnits="userSpaceOnUse" gradientTransform="translate(19.4005 22.456) rotate(-3.95848) scale(6.42 2.42603)">
<stop stop-color="#FE7000"/>
<stop offset="0.03" stop-color="#E26300"/>
<stop offset="0.1" stop-color="#B34F00"/>
<stop offset="0.17" stop-color="#883C00"/>
<stop offset="0.24" stop-color="#632C00"/>
<stop offset="0.32" stop-color="#441E00"/>
<stop offset="0.4" stop-color="#2B1300"/>
<stop offset="0.5" stop-color="#180B00"/>
<stop offset="0.61" stop-color="#0A0500"/>
<stop offset="0.74" stop-color="#020100"/>
<stop offset="1"/>
</radialGradient>
<linearGradient id="paint5_linear_545_36861" x1="20.3323" y1="19.3674" x2="13.4217" y2="19.3674" gradientUnits="userSpaceOnUse">
<stop stop-color="#F6B83A"/>
<stop offset="0.03" stop-color="#F1B438"/>
<stop offset="0.35" stop-color="#BC8020"/>
<stop offset="0.63" stop-color="#955B0F"/>
<stop offset="0.85" stop-color="#7D4404"/>
<stop offset="0.99" stop-color="#743C00"/>
</linearGradient>
<linearGradient id="paint6_linear_545_36861" x1="18.7439" y1="16.9192" x2="18.7439" y2="20.4263" gradientUnits="userSpaceOnUse">
<stop stop-color="#FEFEBE"/>
<stop offset="1" stop-color="white"/>
</linearGradient>
<linearGradient id="paint7_linear_545_36861" x1="16.0867" y1="16.8673" x2="16.0867" y2="28.133" gradientUnits="userSpaceOnUse">
<stop/>
<stop offset="1"/>
</linearGradient>
<linearGradient id="paint8_linear_545_36861" x1="23.973" y1="18.3833" x2="10.4024" y2="16.7752" gradientUnits="userSpaceOnUse">
<stop offset="0.09" stop-color="#F6E23A"/>
<stop offset="0.6" stop-color="#B46E00"/>
<stop offset="1" stop-color="#4C2A00"/>
</linearGradient>
<linearGradient id="paint9_linear_545_36861" x1="14.7959" y1="17.1916" x2="14.7959" y2="20.4884" gradientUnits="userSpaceOnUse">
<stop/>
<stop offset="1"/>
</linearGradient>
<linearGradient id="paint10_linear_545_36861" x1="0" y1="29.9101" x2="34.6303" y2="29.9101" gradientUnits="userSpaceOnUse">
<stop stop-color="#C68E40"/>
<stop offset="1" stop-color="#F5DC66"/>
</linearGradient>
<linearGradient id="paint11_linear_545_36861" x1="7.08137" y1="10.1286" x2="5.91491" y2="17.1773" gradientUnits="userSpaceOnUse">
<stop stop-color="#885C00"/>
<stop offset="0.36" stop-color="#855A00"/>
<stop offset="0.64" stop-color="#7B5200"/>
<stop offset="0.88" stop-color="#6B4500"/>
<stop offset="1" stop-color="#603C00"/>
</linearGradient>
<linearGradient id="paint12_linear_545_36861" x1="5.45818" y1="7.48674" x2="6.51758" y2="19.7716" gradientUnits="userSpaceOnUse">
<stop offset="0.01" stop-color="#F6E220"/>
<stop offset="0.12" stop-color="#FFFF5C"/>
<stop offset="0.6" stop-color="#B46E00"/>
<stop offset="1" stop-color="#4C2A00"/>
</linearGradient>
<linearGradient id="paint13_linear_545_36861" x1="28.2581" y1="5.44155" x2="28.2581" y2="23.4763" gradientUnits="userSpaceOnUse">
<stop offset="0.6" stop-color="#B46E00"/>
<stop offset="1" stop-color="#4C2A00"/>
</linearGradient>
<linearGradient id="paint14_linear_545_36861" x1="28.3597" y1="9.01397" x2="28.3597" y2="24.2774" gradientUnits="userSpaceOnUse">
<stop offset="0.09" stop-color="#FFFF4C"/>
<stop offset="0.6" stop-color="#B46E00"/>
<stop offset="1" stop-color="#4C2A00"/>
</linearGradient>
<radialGradient id="paint15_radial_545_36861" cx="0" cy="0" r="1" gradientUnits="userSpaceOnUse" gradientTransform="translate(20.2255 9.65899) scale(13.0195 11.1488)">
<stop stop-color="#FEFEBE"/>
<stop offset="0.29" stop-color="#F6DA3A"/>
<stop offset="0.71" stop-color="#D29400"/>
<stop offset="1" stop-color="#94681A"/>
</radialGradient>
<radialGradient id="paint16_radial_545_36861" cx="0" cy="0" r="1" gradientUnits="userSpaceOnUse" gradientTransform="translate(21.081 9.47251) scale(7.66014 6.55953)">
<stop offset="0.01" stop-color="#FEFE60"/>
<stop offset="0.04" stop-color="#E2E255"/>
<stop offset="0.1" stop-color="#B3B344"/>
<stop offset="0.17" stop-color="#888833"/>
<stop offset="0.24" stop-color="#636326"/>
<stop offset="0.32" stop-color="#44441A"/>
<stop offset="0.41" stop-color="#2B2B10"/>
<stop offset="0.5" stop-color="#181809"/>
<stop offset="0.61" stop-color="#0A0A04"/>
<stop offset="0.74" stop-color="#020201"/>
<stop offset="1"/>
</radialGradient>
<radialGradient id="paint17_radial_545_36861" cx="0" cy="0" r="1" gradientUnits="userSpaceOnUse" gradientTransform="translate(21.0038 8.71086) scale(7.66014 6.55953)">
<stop offset="0.01" stop-color="#FEFE60"/>
<stop offset="0.04" stop-color="#E2E255"/>
<stop offset="0.1" stop-color="#B3B344"/>
<stop offset="0.17" stop-color="#888833"/>
<stop offset="0.24" stop-color="#636326"/>
<stop offset="0.32" stop-color="#44441A"/>
<stop offset="0.41" stop-color="#2B2B10"/>
<stop offset="0.5" stop-color="#181809"/>
<stop offset="0.61" stop-color="#0A0A04"/>
<stop offset="0.74" stop-color="#020201"/>
<stop offset="1"/>
</radialGradient>
<radialGradient id="paint18_radial_545_36861" cx="0" cy="0" r="1" gradientUnits="userSpaceOnUse" gradientTransform="translate(17.6239 7.94758) scale(7.66014 6.55953)">
<stop offset="0.01" stop-color="#FE9800"/>
<stop offset="0.04" stop-color="#E28700"/>
<stop offset="0.1" stop-color="#B36B00"/>
<stop offset="0.17" stop-color="#885100"/>
<stop offset="0.24" stop-color="#633B00"/>
<stop offset="0.32" stop-color="#442900"/>
<stop offset="0.41" stop-color="#2B1A00"/>
<stop offset="0.5" stop-color="#180E00"/>
<stop offset="0.61" stop-color="#0A0600"/>
<stop offset="0.74" stop-color="#020100"/>
<stop offset="1"/>
</radialGradient>
<linearGradient id="paint19_linear_545_36861" x1="19.3721" y1="8.12037" x2="19.3721" y2="14.8295" gradientUnits="userSpaceOnUse">
<stop stop-color="#FEFEBE"/>
<stop offset="1" stop-color="white"/>
</linearGradient>
<linearGradient id="paint20_linear_545_36861" x1="12.1301" y1="10.7867" x2="12.1301" y2="16.6392" gradientUnits="userSpaceOnUse">
<stop/>
<stop offset="1"/>
</linearGradient>
<linearGradient id="paint21_linear_545_36861" x1="14.3689" y1="8.17456" x2="14.3689" y2="16.7651" gradientUnits="userSpaceOnUse">
<stop/>
<stop offset="1"/>
</linearGradient>
<linearGradient id="paint22_linear_545_36861" x1="20.9217" y1="12.3936" x2="16.0859" y2="13.3378" gradientUnits="userSpaceOnUse">
<stop stop-color="#BA8A00"/>
<stop offset="0.35" stop-color="#B88700"/>
<stop offset="0.61" stop-color="#B27D00"/>
<stop offset="0.85" stop-color="#A86D00"/>
<stop offset="1" stop-color="#9E5E00"/>
</linearGradient>
<linearGradient id="paint23_linear_545_36861" x1="20.1568" y1="8.91969" x2="11.6818" y2="22.686" gradientUnits="userSpaceOnUse">
<stop stop-color="#FEFEBE"/>
<stop offset="0.39" stop-color="#F6DA3A"/>
<stop offset="0.75" stop-color="#D27C00"/>
<stop offset="1" stop-color="#9A6E1A"/>
</linearGradient>
<linearGradient id="paint24_linear_545_36861" x1="13.6641" y1="11.7536" x2="20.7601" y2="11.7536" gradientUnits="userSpaceOnUse">
<stop stop-color="#FEFEBE"/>
<stop offset="1" stop-color="white"/>
</linearGradient>
<linearGradient id="paint25_linear_545_36861" x1="19.191" y1="9.54577" x2="18.4194" y2="12.0533" gradientUnits="userSpaceOnUse">
<stop stop-color="#FEFEBE"/>
<stop offset="1" stop-color="white"/>
</linearGradient>
<linearGradient id="paint26_linear_545_36861" x1="16.9214" y1="14.715" x2="16.9214" y2="11.4902" gradientUnits="userSpaceOnUse">
<stop stop-color="#FEFEBE"/>
<stop offset="1" stop-color="white"/>
</linearGradient>
<linearGradient id="paint27_linear_545_36861" x1="16.9243" y1="14.5455" x2="16.9243" y2="11.3208" gradientUnits="userSpaceOnUse">
<stop stop-color="#885C00"/>
<stop offset="0.36" stop-color="#855A00"/>
<stop offset="0.64" stop-color="#7B5200"/>
<stop offset="0.88" stop-color="#6B4500"/>
<stop offset="1" stop-color="#603C00"/>
</linearGradient>
<radialGradient id="paint28_radial_545_36861" cx="0" cy="0" r="1" gradientUnits="userSpaceOnUse" gradientTransform="translate(22.7877 6.86874) scale(19.6462 16.8235)">
<stop stop-color="#FEFEBE"/>
<stop offset="0.39" stop-color="#F6DA3A"/>
<stop offset="0.75" stop-color="#D27C00"/>
<stop offset="1" stop-color="#9A6E1A"/>
</radialGradient>
<radialGradient id="paint29_radial_545_36861" cx="0" cy="0" r="1" gradientUnits="userSpaceOnUse" gradientTransform="translate(22.9045 5.78212) scale(6.66163 5.70448)">
<stop offset="0.01" stop-color="#FEFE00"/>
<stop offset="0.04" stop-color="#E2E200"/>
<stop offset="0.1" stop-color="#B3B300"/>
<stop offset="0.17" stop-color="#888800"/>
<stop offset="0.24" stop-color="#636300"/>
<stop offset="0.32" stop-color="#444400"/>
<stop offset="0.41" stop-color="#2B2B00"/>
<stop offset="0.5" stop-color="#181800"/>
<stop offset="0.61" stop-color="#0A0A00"/>
<stop offset="0.74" stop-color="#020200"/>
<stop offset="1"/>
</radialGradient>
<linearGradient id="paint30_linear_545_36861" x1="23.9559" y1="5.37647" x2="23.9559" y2="8.10821" gradientUnits="userSpaceOnUse">
<stop stop-color="#FEFEBE"/>
<stop offset="1" stop-color="white"/>
</linearGradient>
<linearGradient id="paint31_linear_545_36861" x1="6.41309" y1="6.34691" x2="28.2157" y2="6.34691" gradientUnits="userSpaceOnUse">
<stop stop-color="#FEFEFF"/>
<stop offset="0.12" stop-color="#FEFEFF"/>
<stop offset="0.54" stop-color="#FEFEFF"/>
<stop offset="1" stop-color="#FEFEFF"/>
</linearGradient>
<linearGradient id="paint32_linear_545_36861" x1="23.6235" y1="8.66208" x2="13.863" y2="8.66208" gradientUnits="userSpaceOnUse">
<stop stop-color="#D8A200"/>
<stop offset="0.17" stop-color="#D39D00"/>
<stop offset="0.4" stop-color="#C39000"/>
<stop offset="0.64" stop-color="#A97A00"/>
<stop offset="0.9" stop-color="#865B00"/>
<stop offset="1" stop-color="#764E00"/>
</linearGradient>
<linearGradient id="paint33_linear_545_36861" x1="5.21983" y1="20.1327" x2="5.21983" y2="13.4155" gradientUnits="userSpaceOnUse">
<stop stop-color="#EC2A48"/>
<stop offset="1" stop-color="#E44846"/>
</linearGradient>
<linearGradient id="paint34_linear_545_36861" x1="5.59047" y1="10.4127" x2="5.59047" y2="18.1831" gradientUnits="userSpaceOnUse">
<stop stop-color="#D03826"/>
<stop offset="1" stop-color="#BA0A26"/>
</linearGradient>
<linearGradient id="paint35_linear_545_36861" x1="29.2765" y1="20.1218" x2="29.2765" y2="13.4045" gradientUnits="userSpaceOnUse">
<stop stop-color="#EC2A48"/>
<stop offset="1" stop-color="#E44846"/>
</linearGradient>
<linearGradient id="paint36_linear_545_36861" x1="28.9017" y1="10.4021" x2="28.9017" y2="18.1724" gradientUnits="userSpaceOnUse">
<stop stop-color="#D03826"/>
<stop offset="1" stop-color="#BA0A26"/>
</linearGradient>
<linearGradient id="paint37_linear_545_36861" x1="23.9682" y1="30.0147" x2="7.03908" y2="48.0898" gradientUnits="userSpaceOnUse">
<stop/>
<stop offset="1" stop-color="#723C00"/>
</linearGradient>
<radialGradient id="paint38_radial_545_36861" cx="0" cy="0" r="1" gradientUnits="userSpaceOnUse" gradientTransform="translate(20.0327 6.73175) scale(13.3336 5.76657)">
<stop stop-color="#FE7000"/>
<stop offset="0.03" stop-color="#E26300"/>
<stop offset="0.1" stop-color="#B34F00"/>
<stop offset="0.17" stop-color="#883C00"/>
<stop offset="0.24" stop-color="#632C00"/>
<stop offset="0.32" stop-color="#441E00"/>
<stop offset="0.4" stop-color="#2B1300"/>
<stop offset="0.5" stop-color="#180B00"/>
<stop offset="0.61" stop-color="#0A0500"/>
<stop offset="0.74" stop-color="#020100"/>
<stop offset="1"/>
</radialGradient>
<radialGradient id="paint39_radial_545_36861" cx="0" cy="0" r="1" gradientUnits="userSpaceOnUse" gradientTransform="translate(18.7206 10.8997) scale(13.3336 5.76657)">
<stop stop-color="#FE7000"/>
<stop offset="0.03" stop-color="#E26300"/>
<stop offset="0.1" stop-color="#B34F00"/>
<stop offset="0.17" stop-color="#883C00"/>
<stop offset="0.24" stop-color="#632C00"/>
<stop offset="0.32" stop-color="#441E00"/>
<stop offset="0.4" stop-color="#2B1300"/>
<stop offset="0.5" stop-color="#180B00"/>
<stop offset="0.61" stop-color="#0A0500"/>
<stop offset="0.74" stop-color="#020100"/>
<stop offset="1"/>
</radialGradient>
<radialGradient id="paint40_radial_545_36861" cx="0" cy="0" r="1" gradientUnits="userSpaceOnUse" gradientTransform="translate(6.12797 20.3081) rotate(-26.9232) scale(2.64139 4.93366)">
<stop stop-color="#B80000"/>
<stop offset="0.01" stop-color="#B10000"/>
<stop offset="0.08" stop-color="#880000"/>
<stop offset="0.16" stop-color="#630000"/>
<stop offset="0.25" stop-color="#440000"/>
<stop offset="0.34" stop-color="#2B0000"/>
<stop offset="0.45" stop-color="#180000"/>
<stop offset="0.57" stop-color="#0A0000"/>
<stop offset="0.72" stop-color="#020000"/>
<stop offset="1"/>
</radialGradient>
<radialGradient id="paint41_radial_545_36861" cx="0" cy="0" r="1" gradientUnits="userSpaceOnUse" gradientTransform="translate(30.7135 20.172) rotate(-26.9232) scale(2.64139 4.93366)">
<stop stop-color="#B80000"/>
<stop offset="0.01" stop-color="#B10000"/>
<stop offset="0.08" stop-color="#880000"/>
<stop offset="0.16" stop-color="#630000"/>
<stop offset="0.25" stop-color="#440000"/>
<stop offset="0.34" stop-color="#2B0000"/>
<stop offset="0.45" stop-color="#180000"/>
<stop offset="0.57" stop-color="#0A0000"/>
<stop offset="0.72" stop-color="#020000"/>
<stop offset="1"/>
</radialGradient>
<radialGradient id="paint42_radial_545_36861" cx="0" cy="0" r="1" gradientUnits="userSpaceOnUse" gradientTransform="translate(23.8745 6.68347) rotate(61.937) scale(3.77254 4.31813)">
<stop stop-color="white"/>
<stop offset="0.09" stop-color="#FFD990"/>
<stop offset="0.18" stop-color="#FFB629"/>
<stop offset="0.22" stop-color="#FFA800"/>
<stop offset="0.25" stop-color="#E49600"/>
<stop offset="0.3" stop-color="#B47700"/>
<stop offset="0.35" stop-color="#895B00"/>
<stop offset="0.41" stop-color="#644200"/>
<stop offset="0.47" stop-color="#452D00"/>
<stop offset="0.54" stop-color="#2C1D00"/>
<stop offset="0.61" stop-color="#181000"/>
<stop offset="0.7" stop-color="#0A0700"/>
<stop offset="0.81" stop-color="#020200"/>
<stop offset="1"/>
</radialGradient>
<radialGradient id="paint43_radial_545_36861" cx="0" cy="0" r="1" gradientUnits="userSpaceOnUse" gradientTransform="translate(21.6145 8.51069) rotate(138.909) scale(4.70216 0.566424)">
<stop stop-color="#FFFF00"/>
<stop offset="0.01" stop-color="#F4ED04"/>
<stop offset="0.04" stop-color="#DEC50D"/>
<stop offset="0.07" stop-color="#CCA615"/>
<stop offset="0.1" stop-color="#BF901A"/>
<stop offset="0.13" stop-color="#B8831D"/>
<stop offset="0.15" stop-color="#B57E1E"/>
<stop offset="0.21" stop-color="#976919"/>
<stop offset="0.29" stop-color="#6F4D12"/>
<stop offset="0.38" stop-color="#4D350D"/>
<stop offset="0.47" stop-color="#312208"/>
<stop offset="0.57" stop-color="#1B1304"/>
<stop offset="0.68" stop-color="#0C0802"/>
<stop offset="0.81" stop-color="#030200"/>
<stop offset="1"/>
</radialGradient>
<radialGradient id="paint44_radial_545_36861" cx="0" cy="0" r="1" gradientUnits="userSpaceOnUse" gradientTransform="translate(26.4895 4.3499) rotate(-40.0586) scale(4.71537 0.564837)">
<stop stop-color="#FFFF00"/>
<stop offset="0.01" stop-color="#F4ED04"/>
<stop offset="0.04" stop-color="#DEC50D"/>
<stop offset="0.07" stop-color="#CCA615"/>
<stop offset="0.1" stop-color="#BF901A"/>
<stop offset="0.13" stop-color="#B8831D"/>
<stop offset="0.15" stop-color="#B57E1E"/>
<stop offset="0.21" stop-color="#976919"/>
<stop offset="0.29" stop-color="#6F4D12"/>
<stop offset="0.38" stop-color="#4D350D"/>
<stop offset="0.47" stop-color="#312208"/>
<stop offset="0.57" stop-color="#1B1304"/>
<stop offset="0.68" stop-color="#0C0802"/>
<stop offset="0.81" stop-color="#030200"/>
<stop offset="1"/>
</radialGradient>
<radialGradient id="paint45_radial_545_36861" cx="0" cy="0" r="1" gradientUnits="userSpaceOnUse" gradientTransform="translate(26.5661 8.28843) rotate(40.0253) scale(4.42977 0.621349)">
<stop stop-color="#FFFF00"/>
<stop offset="0.01" stop-color="#F4ED04"/>
<stop offset="0.04" stop-color="#DEC50D"/>
<stop offset="0.07" stop-color="#CCA615"/>
<stop offset="0.1" stop-color="#BF901A"/>
<stop offset="0.13" stop-color="#B8831D"/>
<stop offset="0.15" stop-color="#B57E1E"/>
<stop offset="0.21" stop-color="#976919"/>
<stop offset="0.29" stop-color="#6F4D12"/>
<stop offset="0.38" stop-color="#4D350D"/>
<stop offset="0.47" stop-color="#312208"/>
<stop offset="0.57" stop-color="#1B1304"/>
<stop offset="0.68" stop-color="#0C0802"/>
<stop offset="0.81" stop-color="#030200"/>
<stop offset="1"/>
</radialGradient>
<radialGradient id="paint46_radial_545_36861" cx="0" cy="0" r="1" gradientUnits="userSpaceOnUse" gradientTransform="translate(21.6879 4.15524) rotate(-138.875) scale(4.41593 0.62312)">
<stop stop-color="#FFFF00"/>
<stop offset="0.01" stop-color="#F4ED04"/>
<stop offset="0.04" stop-color="#DEC50D"/>
<stop offset="0.07" stop-color="#CCA615"/>
<stop offset="0.1" stop-color="#BF901A"/>
<stop offset="0.13" stop-color="#B8831D"/>
<stop offset="0.15" stop-color="#B57E1E"/>
<stop offset="0.21" stop-color="#976919"/>
<stop offset="0.29" stop-color="#6F4D12"/>
<stop offset="0.38" stop-color="#4D350D"/>
<stop offset="0.47" stop-color="#312208"/>
<stop offset="0.57" stop-color="#1B1304"/>
<stop offset="0.68" stop-color="#0C0802"/>
<stop offset="0.81" stop-color="#030200"/>
<stop offset="1"/>
</radialGradient>
</defs>
</svg>
