<svg width="36" height="36" viewBox="0 0 36 36" fill="none" xmlns="http://www.w3.org/2000/svg">
<path opacity="0.74" d="M30.8227 26.4371H25.6199L23.2747 27.1534L20.7487 26.4371H2.76647L0 36.0002H29.0377L30.8227 26.4371Z" fill="url(#paint0_linear_545_36355)"/>
<path style="mix-blend-mode:overlay" opacity="0.23" d="M0.577733 34.0031H29.1699L28.7747 36.0002H0L0.577733 34.0031Z" fill="url(#paint1_linear_545_36355)"/>
<path d="M2.76562 26.437L7.91768 24.8713H31.1312L30.8218 26.437H25.619L23.2738 27.1534L20.7478 26.437H2.76562Z" fill="url(#paint2_linear_545_36355)"/>
<g style="mix-blend-mode:overlay" opacity="0.56">
<path d="M20.6914 26.7528L23.2313 27.4694L25.5898 26.7528H30.7626L30.8215 26.4371H25.6191L23.2735 27.1534L20.7475 26.4371H2.7653L2.67383 26.7528H20.6914Z" fill="white"/>
</g>
<path opacity="0.49" d="M18.14 25.9072L9.84274 26.437H2.76562L7.91768 24.8713H15.644L18.14 25.9072Z" fill="#000800"/>
<path d="M18.1102 23.1851L16.9669 23.2627L15.8236 23.1851C15.8236 23.1851 13.8278 23.306 12.1436 24.5694C12.1436 24.5694 13.3008 25.0479 16.9669 25.0479C20.633 25.0479 21.7903 24.5694 21.7903 24.5694C20.106 23.306 18.1102 23.1851 18.1102 23.1851Z" fill="url(#paint3_linear_545_36355)"/>
<path style="mix-blend-mode:overlay" opacity="0.54" d="M16.9658 24.8884C14.0321 24.8884 12.7055 24.5823 12.2914 24.4598C12.241 24.4954 12.1906 24.5316 12.1406 24.5695C12.1406 24.5695 13.2979 25.048 16.964 25.048C20.6301 25.048 21.7873 24.5695 21.7873 24.5695C21.7373 24.5316 21.6869 24.4954 21.6362 24.4598C21.2257 24.5823 19.8991 24.8884 16.9658 24.8884Z" fill="url(#paint4_linear_545_36355)"/>
<path d="M21.7861 24.572C21.7072 24.6041 20.5067 25.049 16.9653 25.049C13.2977 25.049 12.1419 24.5704 12.1419 24.5704L11.8711 25.3858C11.8711 25.3858 13.3717 25.9368 16.9156 25.9467H17.0135C20.5567 25.9368 22.058 25.3858 22.058 25.3858L21.7861 24.572Z" fill="url(#paint5_linear_545_36355)"/>
<path style="mix-blend-mode:screen" d="M18.5938 27.5541C21.6308 27.334 24.0051 26.1819 23.8969 24.9808C23.7887 23.7798 21.239 22.9847 18.2021 23.2048C15.1651 23.425 12.7908 24.5771 12.899 25.7781C13.0072 26.9791 15.5569 27.7743 18.5938 27.5541Z" fill="url(#paint6_radial_545_36355)"/>
<path style="mix-blend-mode:overlay" opacity="0.43" d="M18.2378 23.197C18.156 23.1881 18.1102 23.1852 18.1102 23.1852L16.9669 23.2627L15.8236 23.1852C15.8236 23.1852 13.8278 23.306 12.1436 24.5695C14.3459 23.8002 17.3864 23.6692 17.3864 23.6692L18.2378 23.197Z" fill="url(#paint7_linear_545_36355)"/>
<path opacity="0.37" d="M23.2663 26.131L20.7471 26.4371L23.2731 27.1534L25.6183 26.4371C25.5372 26.463 23.2663 26.131 23.2663 26.131Z" fill="white"/>
<path d="M18.9813 20.1198C18.7891 20.0836 18.156 20.0237 17.3446 20.0112H17.2981C17.2624 20.0112 17.2267 20.0112 17.1891 20.0112H17.1148H16.9423H16.8679C16.8322 20.0112 16.7965 20.0112 16.7608 20.0112H16.7143C15.9026 20.0243 15.2694 20.0836 15.0776 20.1198C15.0343 20.1253 14.9911 20.1304 14.9482 20.1365L15.6539 23.3862C15.6539 23.3862 15.9233 23.6186 16.7054 23.6746H16.7272H16.7297C16.8226 23.6814 16.9222 23.6849 17.0284 23.6846C17.1345 23.6843 17.2345 23.6814 17.3271 23.6746H17.3299H17.3517C18.1338 23.6186 18.4032 23.3862 18.4032 23.3862L19.1103 20.1365C19.0674 20.1304 19.0245 20.1253 18.9813 20.1198Z" fill="url(#paint8_linear_545_36355)"/>
<path style="mix-blend-mode:overlay" opacity="0.37" d="M17.6904 23.6349C18.2121 23.549 18.4029 23.3862 18.4029 23.3862L19.1099 20.1365C19.0674 20.1304 19.0242 20.1253 18.9809 20.1198C18.857 20.0964 18.5479 20.0634 18.1263 20.0394L17.8244 20.2012L17.6904 23.6349Z" fill="url(#paint9_linear_545_36355)"/>
<path style="mix-blend-mode:overlay" opacity="0.43" d="M16.9005 20.0093H16.8679C16.8322 20.0093 16.7965 20.0093 16.7608 20.0093H16.7143C15.9026 20.0224 15.2694 20.0817 15.0776 20.1179C15.0343 20.1234 14.9911 20.1285 14.9482 20.1346L15.6539 23.3862C15.6539 23.3862 15.9233 23.6186 16.7054 23.6747H16.7272H16.7297C16.8011 23.6798 16.8787 23.6824 16.9583 23.6836L16.9005 20.0093Z" fill="url(#paint10_linear_545_36355)"/>
<path style="mix-blend-mode:screen" d="M19.9586 16.6694C28.817 16.6694 35.9982 13.4179 35.9982 9.40692C35.9982 5.39595 28.817 2.14441 19.9586 2.14441C11.1001 2.14441 3.91895 5.39595 3.91895 9.40692C3.91895 13.4179 11.1001 16.6694 19.9586 16.6694Z" fill="url(#paint11_radial_545_36355)"/>
<path style="mix-blend-mode:overlay" opacity="0.37" d="M15.8202 19.9624L13.2656 19.8643L13.436 20.548C13.436 20.548 14.4722 20.8291 15.9628 20.9326L15.8202 19.9624Z" fill="url(#paint12_linear_545_36355)"/>
<path d="M8.91266 13.1448L3.87207 14.0505V14.5297L6.17406 18.197L7.63608 18.782L10.3036 18.3111L10.016 17.405L7.95549 17.6691L6.98081 17.3124L5.52916 15.072L6.08617 14.4015L9.30174 14.7733L8.91266 13.1448Z" fill="url(#paint13_linear_545_36355)"/>
<path d="M8.75795 12.6516L5.39304 12.2775L3.87207 14.0506L6.10368 17.7551L7.52067 18.3461L10.1063 17.8702L9.82767 16.9551L7.83044 17.2218L6.88542 16.8615L5.47807 14.5984L6.01829 13.9208L9.13525 14.2964L8.75795 12.6516Z" fill="url(#paint14_linear_545_36355)"/>
<g opacity="0.28">
<path d="M6.88586 16.8615L5.55676 14.7236L5.47852 14.8217L6.88586 17.0849L7.83088 17.4451L9.89349 17.1698L9.82811 16.955L7.83088 17.2217L6.88586 16.8615Z" fill="white"/>
<path d="M5.39401 12.5009L8.81181 12.8807L8.75893 12.6516L5.39401 12.2775L3.87305 14.0506L3.95201 14.1817L5.39401 12.5009Z" fill="white"/>
</g>
<g opacity="0.35">
<path d="M7.71202 14.5894L8.6381 14.6964L8.26152 13.0502L8.22186 13.0579L8.15934 12.7743L8.11682 12.5801L7.33008 12.4926L7.71202 14.5894Z" fill="black"/>
<path d="M9.95966 18.3461L9.75422 17.508L9.51198 17.2843L9.66704 16.9766L8.18359 17.1746L8.45013 18.6387L9.24366 18.4987L9.95966 18.3461Z" fill="black"/>
</g>
<path d="M24.927 13.1448L29.9676 14.0505V14.5297L27.6656 18.197L26.2036 18.782L23.5361 18.3111L23.8237 17.405L25.8842 17.6691L26.8592 17.3124L28.3109 15.072L27.7535 14.4015L24.538 14.7733L24.927 13.1448Z" fill="url(#paint15_linear_545_36355)"/>
<path d="M25.0818 12.6516L28.4471 12.2775L29.9677 14.0506L27.7361 17.7551L26.3191 18.3461L23.7334 17.8702L24.0121 16.9551L26.0093 17.2218L26.9543 16.8615L28.3617 14.5984L27.8215 13.9208L24.7045 14.2964L25.0818 12.6516Z" fill="url(#paint16_linear_545_36355)"/>
<g opacity="0.63">
<path d="M26.9529 16.8615L28.282 14.7237L28.3603 14.8218L26.9529 17.0849L26.0079 17.4452L23.9453 17.1699L24.0107 16.9551L26.0079 17.2218L26.9529 16.8615Z" fill="white"/>
<path d="M28.4465 12.5009L25.0283 12.8807L25.0812 12.6516L28.4465 12.2775L29.9671 14.0506L29.8881 14.1817L28.4465 12.5009Z" fill="white"/>
</g>
<g opacity="0.4">
<path d="M25.2814 18.6195L25.5812 17.1647L24.5801 17.031L24.5233 17.2169L24.4336 17.5118L24.3732 17.5041L24.0859 18.4086L25.2814 18.6195Z" fill="black"/>
<path d="M26.0662 14.5964L26.4999 12.4935L25.7082 12.5816L25.6717 12.7406L25.5985 13.0598L25.5517 13.0515L25.1572 14.7015L26.0662 14.5964Z" fill="black"/>
</g>
<path d="M26.3831 11.1182C26.3831 10.373 22.195 9.76917 17.0283 9.76917C11.8616 9.76917 7.67383 10.3733 7.67383 11.1182C7.67418 11.1484 7.68109 11.1782 7.69419 11.206C7.86319 11.9362 9.05474 17.0429 9.56709 18.0951C10.103 19.1977 13.0521 20.166 16.8639 20.2189V20.2214C16.9193 20.2214 16.9736 20.2214 17.0283 20.2214C17.0829 20.2214 17.1376 20.2214 17.1926 20.2214V20.2189C21.0049 20.166 23.9528 19.1977 24.4898 18.0951C25.0022 17.0429 26.1937 11.9362 26.3627 11.206C26.3757 11.1782 26.3826 11.1484 26.3831 11.1182Z" fill="url(#paint17_radial_545_36355)"/>
<path style="mix-blend-mode:screen" d="M25.8673 16.545C28.7539 13.9555 28.7539 9.75713 25.8673 7.16765C22.9807 4.57817 18.3007 4.57817 15.4141 7.16765C12.5275 9.75713 12.5275 13.9555 15.4141 16.545C18.3007 19.1345 22.9807 19.1345 25.8673 16.545Z" fill="url(#paint18_radial_545_36355)"/>
<path style="mix-blend-mode:screen" d="M25.7941 15.78C28.6806 13.1906 28.6806 8.99218 25.7941 6.4027C22.9075 3.81322 18.2274 3.81322 15.3409 6.4027C12.4543 8.99218 12.4543 13.1906 15.3409 15.78C18.2274 18.3695 22.9075 18.3695 25.7941 15.78Z" fill="url(#paint19_radial_545_36355)"/>
<path style="mix-blend-mode:screen" d="M22.5528 15.0129C25.4394 12.4234 25.4394 8.22503 22.5528 5.63555C19.6663 3.04606 14.9862 3.04606 12.0996 5.63555C9.21308 8.22503 9.21307 12.4234 12.0996 15.0129C14.9862 17.6024 19.6663 17.6024 22.5528 15.0129Z" fill="url(#paint20_radial_545_36355)"/>
<path style="mix-blend-mode:overlay" d="M20.3217 10.5269C20.3217 10.5269 19.7314 15.9249 19.3663 17.2076C19.0011 18.4903 16.3508 20.2451 13.2656 19.8644C14.3168 20.0711 15.5372 20.2003 16.8624 20.2189V20.2214C16.9178 20.2214 16.9721 20.2214 17.0268 20.2214C17.0814 20.2214 17.1361 20.2214 17.1911 20.2214V20.2189C18.4724 20.2009 19.6564 20.0794 20.6825 19.8846C20.7661 19.8596 22.8327 19.2221 23.3557 17.1352C23.8895 15.0051 24.7413 11.1919 24.7413 11.1919L20.3217 10.5269Z" fill="url(#paint21_linear_545_36355)"/>
<path style="mix-blend-mode:overlay" opacity="0.43" d="M12.4866 17.7191C12.1558 16.9249 11.348 11.7496 11.0997 10.1262C9.00917 10.3736 7.67578 10.7492 7.67578 11.1694C7.67609 11.1996 7.68301 11.2295 7.69615 11.2572C7.86514 11.9877 9.05669 17.0941 9.56904 18.1483C10.0857 19.2092 12.8357 20.1451 16.4393 20.2614C13.571 19.8236 12.88 18.6627 12.4866 17.7191Z" fill="url(#paint22_linear_545_36355)"/>
<path opacity="0.19" d="M7.67383 11.1182C7.67418 11.1484 7.68109 11.1782 7.69419 11.206C7.74814 11.4397 7.90857 12.1208 8.11436 12.9737C13.1274 10.5852 24.7442 11.1919 24.7442 11.1919L25.4717 10.5362C23.965 10.0826 20.7512 9.76917 17.0297 9.76917C11.8619 9.76917 7.67383 10.3733 7.67383 11.1182Z" fill="#000018"/>
<path style="mix-blend-mode:overlay" opacity="0.2" d="M17.3538 18.0274C17.1609 17.1719 16.5617 10.5274 16.5617 10.5274L16.4935 9.77161C13.9646 9.79468 11.7083 9.96392 10.1191 10.2181V10.2607H10.1231C10.2696 10.2376 10.4214 10.2152 10.5786 10.1934L10.6208 10.188L10.8041 10.1636L10.8684 10.1553C10.9398 10.1463 11.0138 10.137 11.0881 10.1283H11.1006C11.3507 11.7514 12.1567 16.9271 12.4876 17.7213C12.5233 17.8088 12.5633 17.8985 12.6066 17.9893L12.613 18.0021C12.6248 18.0271 12.6369 18.0521 12.6487 18.0768L12.6637 18.1056C12.6737 18.1255 12.6841 18.1453 12.6948 18.1655C12.7016 18.178 12.7084 18.1909 12.7155 18.2034L12.7438 18.254C12.7523 18.2691 12.7613 18.2841 12.7702 18.2992C12.7791 18.3143 12.7874 18.3284 12.7959 18.3428C12.8045 18.3572 12.817 18.3764 12.8277 18.3934C12.8384 18.4104 12.8438 18.4187 12.852 18.4316L12.8877 18.4867C12.8953 18.4976 12.9028 18.5088 12.9106 18.5187C12.9245 18.5386 12.9385 18.5585 12.9531 18.578C12.9603 18.5877 12.9671 18.5973 12.9746 18.6066C12.9903 18.6277 13.0064 18.6486 13.0228 18.6707L13.0425 18.6947C13.0603 18.7168 13.0782 18.7393 13.0978 18.7614L13.1146 18.7806C13.135 18.8043 13.1561 18.8277 13.1775 18.8511C13.1822 18.8556 13.1864 18.8604 13.1911 18.8652C13.2143 18.8902 13.2382 18.9149 13.2625 18.9396L13.2708 18.9476C13.7295 19.4018 14.4294 19.8165 15.5699 20.0928H15.5727C15.6442 20.1097 15.7165 20.1262 15.7896 20.1425H15.7939C15.8677 20.1585 15.9435 20.1739 16.0211 20.1886C16.3148 20.2043 16.6146 20.2152 16.9204 20.2207V20.2232C16.9758 20.2232 17.0301 20.2232 17.0848 20.2232C17.1394 20.2232 17.1941 20.2232 17.2491 20.2232V20.2207C17.6033 20.2155 17.9487 20.2029 18.2853 20.1829C17.9973 19.6312 17.4889 18.6261 17.3538 18.0274Z" fill="url(#paint23_linear_545_36355)"/>
<path d="M17.0295 7.72583C11.255 7.72583 6.57422 8.57968 6.57422 9.63289C6.57469 9.67501 6.58228 9.71684 6.59673 9.75692C6.64639 10.0287 6.77537 10.729 6.94865 11.6403C8.16664 10.8335 12.2183 10.2406 17.0295 10.2406C21.8407 10.2406 25.8923 10.8335 27.1103 11.6403C27.2836 10.729 27.4126 10.0287 27.4622 9.75692C27.4767 9.71684 27.4843 9.67501 27.4847 9.63289C27.4847 8.5784 22.8039 7.72583 17.0295 7.72583Z" fill="url(#paint24_radial_545_36355)"/>
<path style="mix-blend-mode:screen" d="M26.9365 12.2325C29.4467 9.98056 29.4467 6.3295 26.9365 4.0776C24.4262 1.8257 20.3563 1.82569 17.846 4.0776C15.3358 6.3295 15.3358 9.98056 17.846 12.2325C20.3563 14.4844 24.4262 14.4844 26.9365 12.2325Z" fill="url(#paint25_radial_545_36355)"/>
<path style="mix-blend-mode:overlay" d="M21.2988 7.8916L20.9805 10.3413L21.7426 10.4448C22.7073 10.5289 23.6663 10.6592 24.6155 10.8352L25.2493 10.9214L25.817 8.59866C24.7234 8.29 23.1542 8.0432 21.2988 7.8916Z" fill="url(#paint26_linear_545_36355)"/>
<path opacity="0.14" d="M13.2819 7.85211C9.3589 8.12711 6.57422 8.82039 6.57422 9.63289C6.57469 9.67502 6.58228 9.71684 6.59673 9.75693C6.64639 10.0287 6.77537 10.729 6.94865 11.6403C7.85723 11.0383 10.3429 10.5556 13.5449 10.3492L13.2819 7.85211Z" fill="black"/>
<path style="mix-blend-mode:overlay" d="M17.0295 7.72589C11.255 7.72589 6.57422 8.57974 6.57422 9.63295C6.57469 9.67508 6.58228 9.7169 6.59673 9.75699C6.59923 9.77141 6.60244 9.78904 6.6053 9.8041C7.02047 8.82044 11.5291 8.04576 17.0295 8.04576C22.5299 8.04576 27.0385 8.82044 27.4536 9.8041C27.4565 9.78743 27.4597 9.77205 27.4622 9.75699C27.4767 9.7169 27.4843 9.67508 27.4847 9.63295C27.4847 8.57846 22.8039 7.72589 17.0295 7.72589Z" fill="url(#paint27_linear_545_36355)"/>
<path opacity="0.35" d="M16.9552 9.91052C8.66616 9.91052 7.17484 11.0596 6.97727 11.4778C6.95245 11.5259 6.94739 11.5803 6.96297 11.6314C8.1974 10.8301 12.2358 10.2406 17.0288 10.2406C21.8218 10.2406 25.858 10.8288 27.0935 11.6307C27.1089 11.5798 27.1039 11.5257 27.0792 11.4778C26.8817 11.0596 25.2442 9.91052 16.9552 9.91052Z" fill="url(#paint28_linear_545_36355)"/>
<path d="M27.0801 11.54C26.8825 11.1685 25.245 10.1489 16.956 10.1489C8.66699 10.1489 7.17568 11.1701 6.97774 11.5416C6.77981 11.913 7.88989 12.0368 7.88989 12.0368L7.77377 11.54C10.5803 10.7259 15.3604 10.6464 17.0296 10.6448C18.6989 10.6432 23.4793 10.7259 26.2858 11.54L26.169 12.0351C26.169 12.0351 27.2776 11.9118 27.0801 11.54Z" fill="url(#paint29_linear_545_36355)"/>
<path opacity="0.14" d="M16.5028 18.534C18.4479 18.5017 19.9955 17.061 19.9595 15.3161C19.9235 13.5712 18.3175 12.1829 16.3725 12.2152C14.4274 12.2474 12.8798 13.6881 12.9157 15.433C12.9517 17.1779 14.5577 18.5663 16.5028 18.534Z" fill="black"/>
<path d="M16.8916 18.2364C18.837 18.2364 20.4141 16.8217 20.4141 15.0765C20.4141 13.3313 18.837 11.9166 16.8916 11.9166C14.9462 11.9166 13.3691 13.3313 13.3691 15.0765C13.3691 16.8217 14.9462 18.2364 16.8916 18.2364Z" fill="url(#paint30_linear_545_36355)"/>
<path d="M19.2022 16.9216C20.4785 15.7767 20.4785 13.9204 19.2022 12.7755C17.9259 11.6306 15.8567 11.6306 14.5804 12.7755C13.3042 13.9204 13.3042 15.7767 14.5804 16.9216C15.8567 18.0665 17.9259 18.0665 19.2022 16.9216Z" fill="url(#paint31_linear_545_36355)"/>
<path style="mix-blend-mode:overlay" d="M16.8921 11.9172C16.4103 11.9171 15.9344 12.0126 15.4986 12.1968C15.0628 12.381 14.6778 12.6494 14.3711 12.9827C14.0645 13.3161 13.8439 13.7062 13.725 14.125C13.6061 14.5438 13.592 14.9811 13.6836 15.4054C13.5974 14.8681 13.6869 14.32 13.9413 13.8275C14.1958 13.335 14.6042 12.9194 15.117 12.6313C15.6298 12.3431 16.2248 12.1948 16.8298 12.2043C17.4348 12.2138 18.0237 12.3807 18.5249 12.6848C19.0261 12.9889 19.4181 13.417 19.6531 13.9172C19.8882 14.4174 19.9563 14.968 19.8491 15.5022C19.7419 16.0365 19.464 16.5312 19.0492 16.9264C18.6345 17.3217 18.1006 17.6003 17.5127 17.7285C18.3108 17.5902 19.0227 17.19 19.5096 16.6061C19.9965 16.0222 20.2233 15.2965 20.1458 14.5706C20.0682 13.8448 19.6919 13.1709 19.0903 12.6806C18.4887 12.1902 17.7049 11.9186 16.8921 11.9188V11.9172Z" fill="url(#paint32_linear_545_36355)"/>
<path d="M16.8906 11.9172V15.4935L20.1041 15.3804C20.1911 14.9576 20.1733 14.5228 20.052 14.1069C19.9307 13.6909 19.7089 13.304 19.4022 12.9737C19.0955 12.6433 18.7115 12.3775 18.2774 12.1952C17.8434 12.0129 17.3699 11.9186 16.8906 11.9188V11.9172Z" fill="url(#paint33_linear_545_36355)"/>
<path style="mix-blend-mode:overlay" d="M18.5228 14.8896L17.7468 13.1585H15.4537L15.1429 14.1883H16.422L16.5963 14.5761L15.0771 16.104V17.155H18.0348V16.2569H16.9986L18.5228 14.8896Z" fill="url(#paint34_linear_545_36355)"/>
<path d="M15.2782 14.0011H16.4915L16.7166 14.5015L15.1807 16.046V16.9678H17.9296V16.2569H16.7459L18.3995 14.7736L17.6752 13.1585H15.5326L15.2782 14.0011Z" fill="url(#paint35_linear_545_36355)"/>
<g opacity="0.48">
<path d="M16.7186 14.5015L15.1826 16.0461V16.2765L16.7186 14.732V14.5015Z" fill="black"/>
<path d="M15.5356 13.3889H17.6783L18.3289 14.8395L18.4025 14.7735L17.6783 13.1584H15.5356L15.2812 14.0011H15.3509L15.5356 13.3889Z" fill="black"/>
<path d="M17.9317 16.2569H16.748V16.4873H17.9317V16.2569Z" fill="black"/>
</g>
<path style="mix-blend-mode:screen" d="M21.2002 26.0246C20.7228 27.156 19.3366 27.7842 18.1043 27.4278C16.872 27.0714 16.2582 25.8662 16.7348 24.7355C17.2114 23.6047 18.5988 22.9765 19.8307 23.3326C21.0626 23.6887 21.6775 24.8925 21.2002 26.0246Z" fill="url(#paint36_radial_545_36355)"/>
<path style="mix-blend-mode:screen" d="M14.7055 29.2352C14.5354 29.0832 15.5273 27.9332 16.9164 26.6666C18.3055 25.3999 19.5728 24.4967 19.7425 24.6489C19.9122 24.8012 18.9225 25.9502 17.5316 27.2172C16.1407 28.4842 14.8774 29.3874 14.7055 29.2352Z" fill="url(#paint37_radial_545_36355)"/>
<path style="mix-blend-mode:screen" d="M23.306 21.5217C23.1366 21.3692 21.855 22.2589 20.443 23.5047C19.031 24.7506 18.0242 25.8878 18.1921 26.04C18.36 26.1923 19.6427 25.3048 21.0547 24.057C22.4667 22.8092 23.4753 21.6746 23.306 21.5217Z" fill="url(#paint38_radial_545_36355)"/>
<path style="mix-blend-mode:screen" d="M23.049 29.0035C22.8586 29.1749 21.6288 28.3669 20.3029 27.1983C18.977 26.0297 18.0566 24.9438 18.2478 24.7724C18.4389 24.6009 19.6676 25.4079 20.9939 26.5765C22.3201 27.7451 23.2401 28.8313 23.049 29.0035Z" fill="url(#paint39_radial_545_36355)"/>
<path style="mix-blend-mode:screen" d="M14.9838 21.7697C14.7919 21.9403 15.693 23.0438 16.9953 24.2329C18.2976 25.422 19.5084 26.248 19.6996 26.0768C19.8907 25.9056 18.9911 24.8028 17.6884 23.613C16.3857 22.4233 15.1749 21.5983 14.9838 21.7697Z" fill="url(#paint40_radial_545_36355)"/>
<path style="mix-blend-mode:screen" d="M27.2235 9.83319C26.7461 10.9646 25.3602 11.5928 24.1276 11.2364C22.895 10.88 22.2815 9.67517 22.7585 8.54408C23.2355 7.41299 24.6221 6.78478 25.854 7.14087C27.0859 7.49696 27.7008 8.70209 27.2235 9.83319Z" fill="url(#paint41_radial_545_36355)"/>
<path style="mix-blend-mode:screen" d="M20.7289 13.0438C20.5592 12.8919 21.5489 11.7419 22.9398 10.4755C24.3307 9.20917 25.5962 8.30565 25.7659 8.45629C25.9356 8.60693 24.9463 9.75757 23.555 11.0246C22.1638 12.2916 20.8993 13.196 20.7289 13.0438Z" fill="url(#paint42_radial_545_36355)"/>
<path style="mix-blend-mode:screen" d="M29.3294 5.33032C29.16 5.17808 27.8785 6.0675 26.4665 7.31366C25.0545 8.55982 24.0476 9.69636 24.2156 9.8486C24.3835 10.0008 25.6661 9.11334 27.0781 7.8659C28.4901 6.61847 29.4984 5.48353 29.3294 5.33032Z" fill="url(#paint43_radial_545_36355)"/>
<path style="mix-blend-mode:screen" d="M29.0705 12.812C28.88 12.9838 27.6503 12.1755 26.3244 11.0072C24.9985 9.83896 24.0781 8.75273 24.2693 8.58126C24.4604 8.40978 25.6891 9.21684 27.0154 10.3851C28.3416 11.5534 29.2616 12.6402 29.0705 12.812Z" fill="url(#paint44_radial_545_36355)"/>
<path style="mix-blend-mode:screen" d="M21.0072 5.5784C20.8153 5.74923 21.7164 6.85244 23.0187 8.04186C24.321 9.23129 25.5319 10.0566 25.7234 9.88546C25.9149 9.7143 25.0145 8.61142 23.7118 7.42167C22.4092 6.23193 21.1983 5.40692 21.0072 5.5784Z" fill="url(#paint45_radial_545_36355)"/>
<defs>
<linearGradient id="paint0_linear_545_36355" x1="24.4048" y1="40.2692" x2="3.03289" y2="13.5438" gradientUnits="userSpaceOnUse">
<stop offset="0.01" stop-color="#606A7D"/>
<stop offset="1" stop-color="#AEBACA"/>
</linearGradient>
<linearGradient id="paint1_linear_545_36355" x1="0" y1="35.0018" x2="29.1699" y2="35.0018" gradientUnits="userSpaceOnUse">
<stop/>
<stop offset="1"/>
</linearGradient>
<linearGradient id="paint2_linear_545_36355" x1="29.5067" y1="26.0124" x2="10.3512" y2="26.0124" gradientUnits="userSpaceOnUse">
<stop stop-color="#CAD2E0"/>
<stop offset="1" stop-color="#A8B4CA"/>
</linearGradient>
<linearGradient id="paint3_linear_545_36355" x1="21.642" y1="24.1165" x2="14.0454" y2="24.1165" gradientUnits="userSpaceOnUse">
<stop offset="0.04" stop-color="#BCC8DC"/>
<stop offset="0.96" stop-color="#444C54"/>
<stop offset="1" stop-color="#404850"/>
</linearGradient>
<linearGradient id="paint4_linear_545_36355" x1="20.9924" y1="24.7537" x2="13.3826" y2="24.7537" gradientUnits="userSpaceOnUse">
<stop stop-color="#FEFEFF"/>
<stop offset="1" stop-color="white"/>
</linearGradient>
<linearGradient id="paint5_linear_545_36355" x1="20.4474" y1="25.2579" x2="11.6292" y2="25.2579" gradientUnits="userSpaceOnUse">
<stop stop-color="#98A2B2"/>
<stop offset="0.17" stop-color="#D8E4E4"/>
<stop offset="1" stop-color="#282A32"/>
</linearGradient>
<radialGradient id="paint6_radial_545_36355" cx="0" cy="0" r="1" gradientUnits="userSpaceOnUse" gradientTransform="translate(18.405 25.3979) rotate(-4.14626) scale(5.48401 2.16997)">
<stop stop-color="#98A2C6"/>
<stop offset="0.03" stop-color="#8891B1"/>
<stop offset="0.1" stop-color="#686F88"/>
<stop offset="0.18" stop-color="#4C5163"/>
<stop offset="0.27" stop-color="#353844"/>
<stop offset="0.36" stop-color="#21232B"/>
<stop offset="0.46" stop-color="#121418"/>
<stop offset="0.58" stop-color="#08080A"/>
<stop offset="0.72" stop-color="#020202"/>
<stop offset="1"/>
</radialGradient>
<linearGradient id="paint7_linear_545_36355" x1="15.7707" y1="23.5986" x2="11.66" y2="25.0088" gradientUnits="userSpaceOnUse">
<stop/>
<stop offset="1"/>
</linearGradient>
<linearGradient id="paint8_linear_545_36355" x1="19.1653" y1="21.8477" x2="14.6974" y2="21.8477" gradientUnits="userSpaceOnUse">
<stop offset="0.09" stop-color="#9CAAB2"/>
<stop offset="0.23" stop-color="#89969E"/>
<stop offset="0.57" stop-color="#616C74"/>
<stop offset="0.84" stop-color="#49525A"/>
<stop offset="1" stop-color="#404850"/>
</linearGradient>
<linearGradient id="paint9_linear_545_36355" x1="18.4004" y1="19.3874" x2="18.4004" y2="22.9115" gradientUnits="userSpaceOnUse">
<stop stop-color="#FEFEBE"/>
<stop offset="1" stop-color="white"/>
</linearGradient>
<linearGradient id="paint10_linear_545_36355" x1="15.9526" y1="20.3122" x2="15.9526" y2="22.8176" gradientUnits="userSpaceOnUse">
<stop/>
<stop offset="1"/>
</linearGradient>
<radialGradient id="paint11_radial_545_36355" cx="0" cy="0" r="1" gradientUnits="userSpaceOnUse" gradientTransform="translate(19.9485 9.46045) scale(15.9326 7.21861)">
<stop stop-color="#8AA6CA"/>
<stop offset="0.04" stop-color="#7992B1"/>
<stop offset="0.11" stop-color="#5D7088"/>
<stop offset="0.19" stop-color="#445263"/>
<stop offset="0.27" stop-color="#2F3844"/>
<stop offset="0.36" stop-color="#1E242B"/>
<stop offset="0.46" stop-color="#101418"/>
<stop offset="0.58" stop-color="#07080A"/>
<stop offset="0.73" stop-color="#020202"/>
<stop offset="1"/>
</radialGradient>
<linearGradient id="paint12_linear_545_36355" x1="14.614" y1="19.6614" x2="14.614" y2="22.9736" gradientUnits="userSpaceOnUse">
<stop/>
<stop offset="1"/>
</linearGradient>
<linearGradient id="paint13_linear_545_36355" x1="7.86688" y1="12.5646" x2="6.64233" y2="19.6287" gradientUnits="userSpaceOnUse">
<stop stop-color="#626E7A"/>
<stop offset="1" stop-color="#282A32"/>
</linearGradient>
<linearGradient id="paint14_linear_545_36355" x1="10.1439" y1="15.6413" x2="-1.9981" y2="14.2924" gradientUnits="userSpaceOnUse">
<stop offset="0.09" stop-color="#9CAAB2"/>
<stop offset="1" stop-color="#404850"/>
</linearGradient>
<linearGradient id="paint15_linear_545_36355" x1="26.7521" y1="7.85566" x2="26.7521" y2="25.9759" gradientUnits="userSpaceOnUse">
<stop stop-color="#6C829C"/>
<stop offset="1" stop-color="#282A32"/>
</linearGradient>
<linearGradient id="paint16_linear_545_36355" x1="19.63" y1="14.6163" x2="32.2205" y2="16.0197" gradientUnits="userSpaceOnUse">
<stop stop-color="#ECFEF4"/>
<stop offset="0.29" stop-color="#CED8D4"/>
<stop offset="0.83" stop-color="#8A9498"/>
<stop offset="1" stop-color="#50565C"/>
</linearGradient>
<radialGradient id="paint17_radial_545_36355" cx="0" cy="0" r="1" gradientUnits="userSpaceOnUse" gradientTransform="translate(19.8205 12.0929) scale(12.4871 11.2019)">
<stop stop-color="#FAFEF4"/>
<stop offset="0.29" stop-color="#CED8D4"/>
<stop offset="0.71" stop-color="#8A9498"/>
<stop offset="1" stop-color="#50565C"/>
</radialGradient>
<radialGradient id="paint18_radial_545_36355" cx="0" cy="0" r="1" gradientUnits="userSpaceOnUse" gradientTransform="translate(20.6408 11.9054) scale(7.34687 6.59072)">
<stop stop-color="#E0E4FF"/>
<stop offset="0.04" stop-color="#C6CAE2"/>
<stop offset="0.1" stop-color="#9DA0B3"/>
<stop offset="0.17" stop-color="#787A88"/>
<stop offset="0.24" stop-color="#575963"/>
<stop offset="0.32" stop-color="#3C3D44"/>
<stop offset="0.41" stop-color="#26272B"/>
<stop offset="0.5" stop-color="#151518"/>
<stop offset="0.61" stop-color="#09090A"/>
<stop offset="0.74" stop-color="#020202"/>
<stop offset="1"/>
</radialGradient>
<radialGradient id="paint19_radial_545_36355" cx="0" cy="0" r="1" gradientUnits="userSpaceOnUse" gradientTransform="translate(20.5675 11.1403) scale(7.34687 6.59072)">
<stop stop-color="#E0E4FF"/>
<stop offset="0.04" stop-color="#C6CAE2"/>
<stop offset="0.1" stop-color="#9DA0B3"/>
<stop offset="0.17" stop-color="#787A88"/>
<stop offset="0.24" stop-color="#575963"/>
<stop offset="0.32" stop-color="#3C3D44"/>
<stop offset="0.41" stop-color="#26272B"/>
<stop offset="0.5" stop-color="#151518"/>
<stop offset="0.61" stop-color="#09090A"/>
<stop offset="0.74" stop-color="#020202"/>
<stop offset="1"/>
</radialGradient>
<radialGradient id="paint20_radial_545_36355" cx="0" cy="0" r="1" gradientUnits="userSpaceOnUse" gradientTransform="translate(17.3262 10.3733) scale(7.34687 6.59072)">
<stop offset="0.01" stop-color="#9F95B1"/>
<stop offset="0.09" stop-color="#7A7287"/>
<stop offset="0.17" stop-color="#595463"/>
<stop offset="0.25" stop-color="#3E3A44"/>
<stop offset="0.34" stop-color="#27252B"/>
<stop offset="0.45" stop-color="#161418"/>
<stop offset="0.57" stop-color="#09090A"/>
<stop offset="0.72" stop-color="#020202"/>
<stop offset="1"/>
</radialGradient>
<linearGradient id="paint21_linear_545_36355" x1="19.0033" y1="10.5474" x2="19.0033" y2="17.2881" gradientUnits="userSpaceOnUse">
<stop stop-color="#F2ECFF"/>
<stop offset="1" stop-color="white"/>
</linearGradient>
<linearGradient id="paint22_linear_545_36355" x1="10.648" y1="12.9922" x2="12.4319" y2="18.8504" gradientUnits="userSpaceOnUse">
<stop/>
<stop offset="1"/>
</linearGradient>
<linearGradient id="paint23_linear_545_36355" x1="13.5037" y1="11.0126" x2="14.6127" y2="17.9527" gradientUnits="userSpaceOnUse">
<stop/>
<stop offset="1"/>
</linearGradient>
<radialGradient id="paint24_radial_545_36355" cx="0" cy="0" r="1" gradientUnits="userSpaceOnUse" gradientTransform="translate(22.2769 9.2893) scale(18.8429 16.9036)">
<stop stop-color="#ECFEF4"/>
<stop offset="0.29" stop-color="#CED8D4"/>
<stop offset="0.55" stop-color="#8A9498"/>
<stop offset="1" stop-color="#50565C"/>
</radialGradient>
<radialGradient id="paint25_radial_545_36355" cx="0" cy="0" r="1" gradientUnits="userSpaceOnUse" gradientTransform="translate(22.3912 8.19763) scale(6.38934 5.73174)">
<stop offset="0.01" stop-color="#D2CAFF"/>
<stop offset="0.04" stop-color="#BAB3E2"/>
<stop offset="0.11" stop-color="#938EB3"/>
<stop offset="0.17" stop-color="#706C88"/>
<stop offset="0.25" stop-color="#524F63"/>
<stop offset="0.32" stop-color="#383644"/>
<stop offset="0.41" stop-color="#24222B"/>
<stop offset="0.5" stop-color="#141318"/>
<stop offset="0.61" stop-color="#08080A"/>
<stop offset="0.74" stop-color="#020202"/>
<stop offset="1"/>
</radialGradient>
<linearGradient id="paint26_linear_545_36355" x1="23.3989" y1="7.79032" x2="23.3989" y2="10.5349" gradientUnits="userSpaceOnUse">
<stop stop-color="#FEFEBE"/>
<stop offset="1" stop-color="white"/>
</linearGradient>
<linearGradient id="paint27_linear_545_36355" x1="6.57422" y1="8.765" x2="27.4847" y2="8.765" gradientUnits="userSpaceOnUse">
<stop stop-color="#FEFEFF"/>
<stop offset="0.12" stop-color="#FEFEFF"/>
<stop offset="0.54" stop-color="#FEFEFF"/>
<stop offset="1" stop-color="#FEFEFF"/>
</linearGradient>
<linearGradient id="paint28_linear_545_36355" x1="23.0783" y1="10.7708" x2="13.7175" y2="10.7708" gradientUnits="userSpaceOnUse">
<stop stop-color="#6A7882"/>
<stop offset="0.22" stop-color="#65737D"/>
<stop offset="0.49" stop-color="#58636D"/>
<stop offset="0.8" stop-color="#424953"/>
<stop offset="1" stop-color="#30343E"/>
</linearGradient>
<linearGradient id="paint29_linear_545_36355" x1="23.0795" y1="11.0912" x2="13.7183" y2="11.0912" gradientUnits="userSpaceOnUse">
<stop stop-color="#828C9A"/>
<stop offset="0.4" stop-color="#636B78"/>
<stop offset="1" stop-color="#30343E"/>
</linearGradient>
<linearGradient id="paint30_linear_545_36355" x1="18.6044" y1="13.098" x2="15.9022" y2="16.9771" gradientUnits="userSpaceOnUse">
<stop stop-color="#8A9498"/>
<stop offset="1" stop-color="#50565C"/>
</linearGradient>
<linearGradient id="paint31_linear_545_36355" x1="18.5283" y1="12.3273" x2="15.0164" y2="19.0491" gradientUnits="userSpaceOnUse">
<stop stop-color="#E6EAEC"/>
<stop offset="0.71" stop-color="#8A9498"/>
<stop offset="1" stop-color="#50565C"/>
</linearGradient>
<linearGradient id="paint32_linear_545_36355" x1="18.5302" y1="12.3259" x2="15.4524" y2="18.2166" gradientUnits="userSpaceOnUse">
<stop stop-color="#FEFEFF"/>
<stop offset="0.12" stop-color="#FEFEFF"/>
<stop offset="0.54" stop-color="#FEFEFF"/>
<stop offset="1" stop-color="#FEFEFF"/>
</linearGradient>
<linearGradient id="paint33_linear_545_36355" x1="19.4424" y1="12.5163" x2="17.7025" y2="15.1073" gradientUnits="userSpaceOnUse">
<stop stop-color="#F2ECFF"/>
<stop offset="0.48" stop-color="#FAF8FF"/>
<stop offset="1" stop-color="white"/>
</linearGradient>
<linearGradient id="paint34_linear_545_36355" x1="16.8289" y1="16.3066" x2="16.5527" y2="12.9396" gradientUnits="userSpaceOnUse">
<stop stop-color="#FEFEFF"/>
<stop offset="0.12" stop-color="#FEFEFF"/>
<stop offset="0.54" stop-color="#FEFEFF"/>
<stop offset="1" stop-color="#FEFEFF"/>
</linearGradient>
<linearGradient id="paint35_linear_545_36355" x1="16.7899" y1="18.047" x2="16.7899" y2="13.9717" gradientUnits="userSpaceOnUse">
<stop stop-color="#6A7882"/>
<stop offset="0.37" stop-color="#505963"/>
<stop offset="0.77" stop-color="#393E48"/>
<stop offset="1" stop-color="#30343E"/>
</linearGradient>
<radialGradient id="paint36_radial_545_36355" cx="0" cy="0" r="1" gradientUnits="userSpaceOnUse" gradientTransform="translate(19.0353 25.6315) rotate(16.1553) scale(2.31434 2.21365)">
<stop stop-color="white"/>
<stop offset="0.03" stop-color="#E4E4E4"/>
<stop offset="0.1" stop-color="#B5B5B5"/>
<stop offset="0.17" stop-color="#8A8A8A"/>
<stop offset="0.24" stop-color="#646464"/>
<stop offset="0.32" stop-color="#454545"/>
<stop offset="0.41" stop-color="#2C2C2C"/>
<stop offset="0.51" stop-color="#181818"/>
<stop offset="0.62" stop-color="#0A0A0A"/>
<stop offset="0.75" stop-color="#020202"/>
<stop offset="1"/>
</radialGradient>
<radialGradient id="paint37_radial_545_36355" cx="0" cy="0" r="1" gradientUnits="userSpaceOnUse" gradientTransform="translate(17.4811 27.0303) rotate(137.585) scale(3.40377 0.412182)">
<stop stop-color="#F5F606"/>
<stop offset="0.03" stop-color="#C5C823"/>
<stop offset="0.06" stop-color="#9DA23B"/>
<stop offset="0.09" stop-color="#7E844E"/>
<stop offset="0.11" stop-color="#686F5B"/>
<stop offset="0.14" stop-color="#5B6263"/>
<stop offset="0.16" stop-color="#565E66"/>
<stop offset="0.24" stop-color="#40464C"/>
<stop offset="0.35" stop-color="#292D31"/>
<stop offset="0.48" stop-color="#17191B"/>
<stop offset="0.61" stop-color="#0A0B0C"/>
<stop offset="0.77" stop-color="#020303"/>
<stop offset="1"/>
</radialGradient>
<radialGradient id="paint38_radial_545_36355" cx="0" cy="0" r="1" gradientUnits="userSpaceOnUse" gradientTransform="translate(20.7656 23.9014) rotate(-41.3758) scale(3.41049 0.41137)">
<stop stop-color="#F5F606"/>
<stop offset="0.03" stop-color="#C5C823"/>
<stop offset="0.06" stop-color="#9DA23B"/>
<stop offset="0.09" stop-color="#7E844E"/>
<stop offset="0.11" stop-color="#686F5B"/>
<stop offset="0.14" stop-color="#5B6263"/>
<stop offset="0.16" stop-color="#565E66"/>
<stop offset="0.24" stop-color="#40464C"/>
<stop offset="0.35" stop-color="#292D31"/>
<stop offset="0.48" stop-color="#17191B"/>
<stop offset="0.61" stop-color="#0A0B0C"/>
<stop offset="0.77" stop-color="#020303"/>
<stop offset="1"/>
</radialGradient>
<radialGradient id="paint39_radial_545_36355" cx="0" cy="0" r="1" gradientUnits="userSpaceOnUse" gradientTransform="translate(21.5916 26.1486) rotate(41.3422) scale(3.20339 0.452476)">
<stop stop-color="#F5F606"/>
<stop offset="0.03" stop-color="#C5C823"/>
<stop offset="0.06" stop-color="#9DA23B"/>
<stop offset="0.09" stop-color="#7E844E"/>
<stop offset="0.11" stop-color="#686F5B"/>
<stop offset="0.14" stop-color="#5B6263"/>
<stop offset="0.16" stop-color="#565E66"/>
<stop offset="0.24" stop-color="#40464C"/>
<stop offset="0.35" stop-color="#292D31"/>
<stop offset="0.48" stop-color="#17191B"/>
<stop offset="0.61" stop-color="#0A0B0C"/>
<stop offset="0.77" stop-color="#020303"/>
<stop offset="1"/>
</radialGradient>
<radialGradient id="paint40_radial_545_36355" cx="0" cy="0" r="1" gradientUnits="userSpaceOnUse" gradientTransform="translate(18.1307 23.082) rotate(-137.552) scale(3.19667 0.453427)">
<stop stop-color="#F5F606"/>
<stop offset="0.03" stop-color="#C5C823"/>
<stop offset="0.06" stop-color="#9DA23B"/>
<stop offset="0.09" stop-color="#7E844E"/>
<stop offset="0.11" stop-color="#686F5B"/>
<stop offset="0.14" stop-color="#5B6263"/>
<stop offset="0.16" stop-color="#565E66"/>
<stop offset="0.24" stop-color="#40464C"/>
<stop offset="0.35" stop-color="#292D31"/>
<stop offset="0.48" stop-color="#17191B"/>
<stop offset="0.61" stop-color="#0A0B0C"/>
<stop offset="0.77" stop-color="#020303"/>
<stop offset="1"/>
</radialGradient>
<radialGradient id="paint41_radial_545_36355" cx="0" cy="0" r="1" gradientUnits="userSpaceOnUse" gradientTransform="translate(25.0092 9.37547) rotate(16.1553) scale(2.31434 2.21365)">
<stop stop-color="white"/>
<stop offset="0.03" stop-color="#E4E4E4"/>
<stop offset="0.1" stop-color="#B5B5B5"/>
<stop offset="0.17" stop-color="#8A8A8A"/>
<stop offset="0.24" stop-color="#646464"/>
<stop offset="0.32" stop-color="#454545"/>
<stop offset="0.41" stop-color="#2C2C2C"/>
<stop offset="0.51" stop-color="#181818"/>
<stop offset="0.62" stop-color="#0A0A0A"/>
<stop offset="0.75" stop-color="#020202"/>
<stop offset="1"/>
</radialGradient>
<radialGradient id="paint42_radial_545_36355" cx="0" cy="0" r="1" gradientUnits="userSpaceOnUse" gradientTransform="translate(23.4702 10.7972) rotate(137.585) scale(3.40377 0.412182)">
<stop stop-color="#F5F606"/>
<stop offset="0.03" stop-color="#C5C823"/>
<stop offset="0.06" stop-color="#9DA23B"/>
<stop offset="0.09" stop-color="#7E844E"/>
<stop offset="0.11" stop-color="#686F5B"/>
<stop offset="0.14" stop-color="#5B6263"/>
<stop offset="0.16" stop-color="#565E66"/>
<stop offset="0.24" stop-color="#40464C"/>
<stop offset="0.35" stop-color="#292D31"/>
<stop offset="0.48" stop-color="#17191B"/>
<stop offset="0.61" stop-color="#0A0B0C"/>
<stop offset="0.77" stop-color="#020303"/>
<stop offset="1"/>
</radialGradient>
<radialGradient id="paint43_radial_545_36355" cx="0" cy="0" r="1" gradientUnits="userSpaceOnUse" gradientTransform="translate(26.7754 7.72352) rotate(-41.3758) scale(3.41049 0.41137)">
<stop stop-color="#F5F606"/>
<stop offset="0.03" stop-color="#C5C823"/>
<stop offset="0.06" stop-color="#9DA23B"/>
<stop offset="0.09" stop-color="#7E844E"/>
<stop offset="0.11" stop-color="#686F5B"/>
<stop offset="0.14" stop-color="#5B6263"/>
<stop offset="0.16" stop-color="#565E66"/>
<stop offset="0.24" stop-color="#40464C"/>
<stop offset="0.35" stop-color="#292D31"/>
<stop offset="0.48" stop-color="#17191B"/>
<stop offset="0.61" stop-color="#0A0B0C"/>
<stop offset="0.77" stop-color="#020303"/>
<stop offset="1"/>
</radialGradient>
<radialGradient id="paint44_radial_545_36355" cx="0" cy="0" r="1" gradientUnits="userSpaceOnUse" gradientTransform="translate(27.3753 10.1875) rotate(41.3422) scale(3.20339 0.452475)">
<stop stop-color="#F5F606"/>
<stop offset="0.03" stop-color="#C5C823"/>
<stop offset="0.06" stop-color="#9DA23B"/>
<stop offset="0.09" stop-color="#7E844E"/>
<stop offset="0.11" stop-color="#686F5B"/>
<stop offset="0.14" stop-color="#5B6263"/>
<stop offset="0.16" stop-color="#565E66"/>
<stop offset="0.24" stop-color="#40464C"/>
<stop offset="0.35" stop-color="#292D31"/>
<stop offset="0.48" stop-color="#17191B"/>
<stop offset="0.61" stop-color="#0A0B0C"/>
<stop offset="0.77" stop-color="#020303"/>
<stop offset="1"/>
</radialGradient>
<radialGradient id="paint45_radial_545_36355" cx="0" cy="0" r="1" gradientUnits="userSpaceOnUse" gradientTransform="translate(23.8963 7.08152) rotate(-137.552) scale(3.19667 0.453427)">
<stop stop-color="#F5F606"/>
<stop offset="0.03" stop-color="#C5C823"/>
<stop offset="0.06" stop-color="#9DA23B"/>
<stop offset="0.09" stop-color="#7E844E"/>
<stop offset="0.11" stop-color="#686F5B"/>
<stop offset="0.14" stop-color="#5B6263"/>
<stop offset="0.16" stop-color="#565E66"/>
<stop offset="0.24" stop-color="#40464C"/>
<stop offset="0.35" stop-color="#292D31"/>
<stop offset="0.48" stop-color="#17191B"/>
<stop offset="0.61" stop-color="#0A0B0C"/>
<stop offset="0.77" stop-color="#020303"/>
<stop offset="1"/>
</radialGradient>
</defs>
</svg>
