<svg width="19" height="19" viewBox="0 0 19 19" fill="none" xmlns="http://www.w3.org/2000/svg">
<path d="M15.5965 2.63547V5.70491M17.1313 4.17019H14.0618M3.31875 13.3785V14.9132M4.08612 14.1459H2.55139M7.87453 12.2275C7.80602 11.9619 7.6676 11.7196 7.47367 11.5256C7.27975 11.3317 7.03739 11.1933 6.77183 11.1248L2.06407 9.91082C1.98375 9.88802 1.91306 9.83965 1.86273 9.77304C1.81239 9.70643 1.78516 9.62521 1.78516 9.54172C1.78516 9.45823 1.81239 9.37702 1.86273 9.3104C1.91306 9.24379 1.98375 9.19542 2.06407 9.17262L6.77183 7.95789C7.0373 7.88944 7.27959 7.75114 7.47351 7.55736C7.66743 7.36357 7.8059 7.12138 7.87453 6.85596L9.0885 2.1482C9.11106 2.06756 9.15939 1.99652 9.2261 1.94592C9.29281 1.89531 9.37425 1.86792 9.45798 1.86792C9.54171 1.86792 9.62315 1.89531 9.68986 1.94592C9.75657 1.99652 9.8049 2.06756 9.82746 2.1482L11.0407 6.85596C11.1092 7.12152 11.2476 7.36387 11.4415 7.5578C11.6354 7.75173 11.8778 7.89015 12.1434 7.95866L16.8511 9.17185C16.9321 9.19418 17.0035 9.24246 17.0543 9.30927C17.1052 9.37608 17.1328 9.45774 17.1328 9.54172C17.1328 9.6257 17.1052 9.70736 17.0543 9.77417C17.0035 9.84099 16.9321 9.88926 16.8511 9.91159L12.1434 11.1248C11.8778 11.1933 11.6354 11.3317 11.4415 11.5256C11.2476 11.7196 11.1092 11.9619 11.0407 12.2275L9.8267 16.9352C9.80413 17.0159 9.75581 17.0869 9.68909 17.1375C9.62238 17.1881 9.54095 17.2155 9.45721 17.2155C9.37348 17.2155 9.29204 17.1881 9.22533 17.1375C9.15862 17.0869 9.11029 17.0159 9.08773 16.9352L7.87453 12.2275Z" stroke="#FAFAFA" stroke-linecap="round" stroke-linejoin="round"/>
</svg>
