<svg width="19" height="19" viewBox="0 0 19 19" fill="none" xmlns="http://www.w3.org/2000/svg">
<path d="M15.5975 2.63547V5.70491M17.1322 4.17019H14.0628M3.31973 13.3785V14.9132M4.08709 14.1459H2.55237M7.87551 12.2275C7.807 11.9619 7.66858 11.7196 7.47465 11.5256C7.28072 11.3317 7.03837 11.1933 6.77281 11.1248L2.06505 9.91082C1.98473 9.88802 1.91404 9.83965 1.8637 9.77304C1.81337 9.70643 1.78613 9.62521 1.78613 9.54172C1.78613 9.45823 1.81337 9.37702 1.8637 9.3104C1.91404 9.24379 1.98473 9.19542 2.06505 9.17262L6.77281 7.95789C7.03828 7.88944 7.28057 7.75114 7.47449 7.55736C7.66841 7.36357 7.80688 7.12138 7.87551 6.85596L9.08947 2.1482C9.11204 2.06756 9.16036 1.99652 9.22708 1.94592C9.29379 1.89531 9.37522 1.86792 9.45896 1.86792C9.54269 1.86792 9.62413 1.89531 9.69084 1.94592C9.75755 1.99652 9.80588 2.06756 9.82844 2.1482L11.0416 6.85596C11.1101 7.12152 11.2486 7.36387 11.4425 7.5578C11.6364 7.75173 11.8788 7.89015 12.1443 7.95866L16.8521 9.17185C16.9331 9.19418 17.0044 9.24246 17.0553 9.30927C17.1062 9.37608 17.1338 9.45774 17.1338 9.54172C17.1338 9.6257 17.1062 9.70736 17.0553 9.77417C17.0044 9.84099 16.9331 9.88926 16.8521 9.91159L12.1443 11.1248C11.8788 11.1933 11.6364 11.3317 11.4425 11.5256C11.2486 11.7196 11.1101 11.9619 11.0416 12.2275L9.82767 16.9352C9.80511 17.0159 9.75678 17.0869 9.69007 17.1375C9.62336 17.1881 9.54192 17.2155 9.45819 17.2155C9.37446 17.2155 9.29302 17.1881 9.22631 17.1375C9.1596 17.0869 9.11127 17.0159 9.0887 16.9352L7.87551 12.2275Z" stroke="#18181B" stroke-linecap="round" stroke-linejoin="round"/>
</svg>
