<svg width="110" height="115" viewBox="0 0 110 115" fill="none" xmlns="http://www.w3.org/2000/svg">
<g clip-path="url(#clip0_3049_19432)">
<path d="M11.0188 114.984C8.28369 114.984 5.55256 115.004 2.81747 114.98C0.319538 114.955 -0.656711 113.227 0.592257 110.983C9.94372 94.1851 19.307 77.3952 28.6822 60.6133C29.8679 58.4913 31.8164 58.467 33.0101 60.5769C35.8243 65.5392 38.5988 70.53 41.3537 75.5287C42.3418 77.3181 42.3141 79.1602 41.3102 80.9618C35.5041 91.3814 29.6941 101.801 23.8799 112.217C22.8523 114.055 21.303 114.996 19.2161 114.988C16.481 114.976 13.75 114.988 11.0148 114.988L11.0188 114.984Z" fill="#FF394A"/>
<path d="M50.0216 114.992C46.745 114.992 43.4644 115.008 40.1878 114.988C37.512 114.972 36.5714 113.259 37.9271 110.865C41.1404 105.197 44.3655 99.5329 47.6066 93.8768C49.0294 91.3977 50.9978 91.3936 52.4128 93.8646C55.6497 99.5207 58.8749 105.181 62.0923 110.853C63.4716 113.284 62.4994 114.98 59.7287 114.992C56.4916 115.004 53.2545 114.992 50.0216 114.992Z" fill="#FF394A"/>
<path d="M109.98 2.54436V54.4926C109.98 55.6234 109.086 56.5412 107.984 56.5412H91.2219C90.1203 56.5412 89.2264 55.6234 89.2264 54.4926V23.3539C89.2264 22.2232 88.3323 21.3054 87.2308 21.3054H75.6566C74.5551 21.3054 73.6611 20.3877 73.6611 19.2568V2.0486C73.6611 0.917771 74.5551 0 75.6566 0H107.502C108.871 0 109.98 1.13902 109.98 2.54436Z" fill="#FF394A"/>
<path d="M110 95.6777V112.886C110 114.017 109.106 114.935 108.004 114.935H86.2326C72.4674 114.935 61.3083 103.479 61.3083 89.3476V60.8516C61.3083 59.7208 60.4142 58.803 59.3127 58.803H47.8862C46.7846 58.803 45.8906 57.8852 45.8906 56.7545V39.5462C45.8906 38.4155 46.7846 37.4977 47.8862 37.4977H59.3127C60.4142 37.4977 61.3083 36.5799 61.3083 35.4491V30.9422C61.3083 29.8113 62.2022 28.8936 63.3038 28.8936H80.0663C81.168 28.8936 82.062 29.8113 82.062 30.9422V88.6879C82.062 91.4167 84.2172 93.6291 86.8752 93.6291H108.004C109.106 93.6291 110 94.5469 110 95.6777Z" fill="#FF394A"/>
</g>
<defs>
<clipPath id="clip0_3049_19432">
<rect width="110" height="115" fill="white"/>
</clipPath>
</defs>
</svg>
