<svg width="42" height="42" viewBox="0 0 42 42" fill="none" xmlns="http://www.w3.org/2000/svg">
<g clip-path="url(#clip0_19399_311)">
<path d="M24.3654 20.938C24.3654 16.7992 23.134 12.9347 20.9999 9.65434C23.205 6.265 26.3741 3.50085 30.1429 1.70557L40.2847 11.3354L40.2847 30.8536L30.3624 40.2746C26.4975 38.4831 23.2483 35.6774 20.9999 32.2216C23.1345 28.9422 24.3654 25.0758 24.3654 20.938Z" fill="white"/>
<path d="M1.71574 30.8541L1.71574 11.3359L11.8575 1.70654C15.6263 3.50087 18.7949 6.2655 21 9.65532C18.8659 12.9357 17.635 16.8011 17.635 20.939C17.635 25.0768 18.8664 28.9432 21 32.2226C18.7521 35.6779 15.5034 38.4836 11.6375 40.2746L1.71574 30.8541Z" fill="white"/>
</g>
<defs>
<clipPath id="clip0_19399_311">
<rect width="38.569" height="38.569" fill="white" transform="translate(40.2847 1.71545) rotate(90)"/>
</clipPath>
</defs>
</svg>
