<svg xmlns="http://www.w3.org/2000/svg" width="295" height="82" fill="none" viewBox="0 0 295 82"><path fill="#ff394a" d="M56.058.354a.6.6 0 0 1 .544.343l38.357 80.721a.21.21 0 0 1-.01.205.21.21 0 0 1-.178.099H75.218a.43.43 0 0 1-.39-.25q-7.59-16.805-11.088-24.315a8397 8397 0 0 1-13.965-30.144 245 245 0 0 0-2.505-5.238l-.02-.033-.02-.014h-.09a.15.15 0 0 0-.11.086L20.609 81.448a.59.59 0 0 1-.55.358H.212a.21.21 0 0 1-.192-.301L37.86.554a.35.35 0 0 1 .31-.2zM170.151.189a.23.23 0 0 1 .195.107q.032.05.035.11a.23.23 0 0 1-.022.113l-39.145 80.989a.3.3 0 0 1-.275.17H111.94a.43.43 0 0 1-.393-.246L72.847.466a.1.1 0 0 1-.008-.035.07.07 0 0 1 .038-.06.1.1 0 0 1 .037-.009h19.838a.48.48 0 0 1 .44.283l28.255 62.504a.12.12 0 0 0 .059.062.13.13 0 0 0 .087.01.5.5 0 0 0 .332-.293q3.152-6.67 5.62-12.043Q141.128 21.307 150.556.437a.43.43 0 0 1 .386-.248zM206.27.18a.25.25 0 0 1 .134.038.25.25 0 0 1 .091.104l37.812 80.687a.24.24 0 0 1-.017.236.25.25 0 0 1-.089.084.25.25 0 0 1-.119.03h-19.983a.25.25 0 0 1-.225-.147L197.323 22.48a.246.246 0 0 0-.354-.106.26.26 0 0 0-.092.102l-27.126 58.91a.24.24 0 0 1-.221.144h-19.483a.246.246 0 0 1-.243-.23.24.24 0 0 1 .022-.12L188.035.32a.25.25 0 0 1 .091-.104.25.25 0 0 1 .133-.038zM294.511 0c.044 0 .086.017.116.047a.16.16 0 0 1 .048.114v17.18a.316.316 0 0 1-.321.318h-24.897a.183.183 0 0 0-.179.183q-.018 9.431.118 15.712l.039 1.875q.262 21.75.079 45.678a.167.167 0 0 1-.168.168h-19.141a.16.16 0 0 1-.111-.044.2.2 0 0 1-.033-.05.2.2 0 0 1-.01-.059q.225-12.255.104-22.765-.08-6.972-.083-7.477-.172-31.028-.117-33.074a.06.06 0 0 0-.034-.05l-.02-.004h-25.676a.28.28 0 0 1-.282-.282V.247a.244.244 0 0 1 .243-.247z"/></svg>