<svg viewBox="0 25.6064 58.2175 50.7382" xmlns="http://www.w3.org/2000/svg" role="presentation" aria-hidden="true">
    <path d="M58.2175 50.9766C58.2175 64.5481 47.4668 76.3446 31.3906 76.3446V61.7273C37.8616 61.6247 42.0387 56.8235 42.0387 50.9766H58.2175Z" fill="#242424"/>
    <path d="M26.8297 61.7273V76.3446H26.8269C10.7507 76.3446 0 64.5481 0 50.9766H16.1788C16.1788 56.8235 20.3559 61.6247 26.8269 61.7273H26.8297V61.7273Z" fill="#242424"/>
    <path d="M58.2175 50.9744H42.0387C42.0387 45.1275 37.8616 40.3263 31.3906 40.2209V25.6064C47.4668 25.6064 58.2175 37.4029 58.2175 50.9744Z" fill="#242424"/>
    <path d="M26.8297 25.6064V40.2209H26.8269C20.3559 40.3263 16.1788 45.1275 16.1788 50.9744H0C0 37.4029 10.7507 25.6064 26.8269 25.6064H26.8297V25.6064Z" fill="#242424"/>
</svg>