<svg width="214" height="77" viewBox="0 0 214 77" fill="none" xmlns="http://www.w3.org/2000/svg">
<path d="M62.6875 60.3405C62.6875 51.989 69.2639 46.4555 78.8691 46.4555H88.8904C90.979 46.4555 92.2298 45.4126 92.2298 43.4295C92.2298 41.6543 89.7252 38.9417 84.3998 38.9417C79.8066 38.9417 76.7777 41.4463 75.2134 44.3698L64.1464 37.272C67.2778 31.009 74.5865 25.5781 84.3998 25.5781C100.268 25.5781 107.263 36.8531 107.263 46.9798V75.1658H92.6487V73.4961C90.3521 75.0633 86.9072 76.3141 81.1657 76.3141C69.4747 76.3141 62.6875 69.1109 62.6875 60.3405V60.3405ZM92.0218 57.7305V57.1036H82.314C80.0174 57.1036 78.4503 58.5654 78.4503 60.654C78.4503 62.8451 80.5388 64.4123 83.7757 64.4123C88.7878 64.4123 92.0218 61.1754 92.0218 57.7305V57.7305Z" fill="#242424"/>
<path d="M163.986 75.1637V39.7744H155.008V27.2457H157.41C161.274 27.2457 164.508 25.368 164.508 21.5042V20.3559C164.508 6.78437 174.321 0 186.85 0H189.146V14.6145H187.476C183.613 14.6145 179.646 17.2245 179.646 22.8606V26.7243H190.816V39.7744H179.646V75.1637H163.986V75.1637Z" fill="#242424"/>
<path d="M196.617 75.164V26.7246H212.277V75.164H196.617Z" fill="#242424"/>
<path d="M135.659 39.7763V55.9551C135.659 57.5593 135.998 58.7531 136.597 59.6194C137.013 60.2263 137.56 60.6708 138.207 60.9814C139.101 61.4145 140.19 61.594 141.401 61.594H148.917V75.895H138.207C137.657 75.895 137.121 75.8808 136.597 75.8551C129.821 75.5331 125.165 73.2052 122.549 69.0764C121.88 68.025 121.344 66.8539 120.939 65.5717C120.31 63.5771 119.999 61.309 119.999 58.7759V39.7763H111.961V28.2021H114.363C120.885 28.2021 123.062 26.219 123.216 22.5746V15.2432H135.659V26.7262H148.917V39.7763H135.659V39.7763Z" fill="#242424"/>
<path fill-rule="evenodd" clip-rule="evenodd" d="M204.45 0V0.000203057C209.724 0.000462892 214 4.27728 214 9.55132C214 14.8284 209.723 19.1024 204.449 19.1024V19.1022C199.175 19.102 194.898 14.8251 194.898 9.55111C194.898 4.27692 199.175 0 204.45 0Z" fill="#242424"/>
<path d="M58.2175 50.9766C58.2175 64.5481 47.4668 76.3446 31.3906 76.3446V61.7273C37.8616 61.6247 42.0387 56.8235 42.0387 50.9766H58.2175Z" fill="#242424"/>
<path d="M26.8297 61.7273V76.3446H26.8269C10.7507 76.3446 0 64.5481 0 50.9766H16.1788C16.1788 56.8235 20.3559 61.6247 26.8269 61.7273H26.8297V61.7273Z" fill="#242424"/>
<path d="M58.2175 50.9744H42.0387C42.0387 45.1275 37.8616 40.3263 31.3906 40.2209V25.6064C47.4668 25.6064 58.2175 37.4029 58.2175 50.9744Z" fill="#242424"/>
<path d="M26.8297 25.6064V40.2209H26.8269C20.3559 40.3263 16.1788 45.1275 16.1788 50.9744H0C0 37.4029 10.7507 25.6064 26.8269 25.6064H26.8297V25.6064Z" fill="#242424"/>
</svg>
