<svg preserveAspectRatio="xMidYMid meet" viewBox="0 0 250.157 250.157" xmlns="http://www.w3.org/2000/svg" role="presentation" aria-hidden="true">
    <g>
        <path d="m168.78 214.36-4.266.06q-.71 1.18-1.5 2.322c-.606.88-1.22 1.755-1.886 2.713l3.652.536c.677-.916 1.256-1.693 1.828-2.475a59 59 0 0 0 2.173-3.157" fill="#1c1c1b"></path>
        <path d="M226.152 189.745c-3.747 6.06-9.091 10.06-15.973 12.003-1.561.44-3.072 1.06-4.617 1.6l-1.959 6.152a77 77 0 0 0 11.308-3.712c1.896-.788 3.835-1.575 5.55-2.68 9.007-5.798 13.958-14.18 15.582-24.873l-6.249 4.526c-1.341 2.596-2.342 4.882-3.642 6.984" fill="#1c1c1b"></path>
        <path d="M208.784 210.987c-2.663 3.247-5.901 5.816-9.666 7.61-3.574 1.704-7.455 2.436-11.384 2.838-1.983.203-3.972.346-6.025.522l-3.041 4.871c.436.026.615.055.791.044 4.121-.262 8.246-.475 12.36-.81 3.412-.278 6.714-1.128 9.758-2.698 7.066-3.645 12.533-8.913 15.966-16.167.162-.341.313-.688.544-1.197l-7.689 3.027c-.533.648-1.075 1.303-1.614 1.96" fill="#1c1c1b"></path>
        <path d="M147.034 243.475c-4.016.413-7.874.004-11.593-1.508-3.021-1.229-5.99-2.582-9.072-3.918l-4.56 2.291c.71.402 1.164.69 1.643.924 2.89 1.414 5.773 2.845 8.684 4.216 4.864 2.29 9.933 3.238 15.341 2.666 4.774-.504 9.273-1.724 13.468-4.042 1.463-.807 2.934-1.617 4.357-2.978l-6.724-1.005c-3.585 1.831-7.441 2.932-11.544 3.354" fill="#1c1c1b"></path>
        <path d="M87.362 239.68c-4.497-1.692-8.556-4.04-11.549-7.925a186 186 0 0 1-2.837-3.79c-1.138-1.558-2.254-3.133-3.366-4.683h-5.077c2.676 4.396 5.405 8.556 8.633 12.36 1.818 2.142 3.935 3.992 6.362 5.419 6.044 3.554 12.566 5.366 19.606 5.14.874-.029 1.742-.209 2.711-.33l-5.632-4.312c-3.045-.226-6.004-.808-8.851-1.88" fill="#1c1c1b"></path>
        <path d="M121.004 245.851c-1.142.045-2.298-.145-3.44-.283-3.528-.426-6.938-1.314-10.003-3.143a47.3 47.3 0 0 1-7.743-5.755c-.84-.77-1.723-1.494-2.488-2.154l-5.655 1.248c2.823 2.405 5.28 4.678 7.93 6.7 2.26 1.727 4.64 3.357 7.147 4.69 4.144 2.201 8.746 2.835 13.362 2.987 3.578.118 7.129-.425 10.567-1.507.88-.277 1.733-.636 2.838-1.047l-5.116-2.267c-2.687.202-5.04.438-7.399.531" fill="#1c1c1b"></path>
        <path d="m245.691 148.183-4.442 5.586c-.221 4.242-1.25 8.21-2.967 11.998-1.344 2.963-3.062 5.718-5.543 7.834-2.68 2.284-5.554 4.339-8.342 6.496-.33.255-.648.525-1.02.827v4.221c1.945-1.238 3.818-2.37 5.624-3.599 1.859-1.265 3.665-2.608 5.472-3.947a23.4 23.4 0 0 0 5.094-5.191c5.021-7.005 7.101-14.814 6.322-23.39-.02-.221-.102-.437-.198-.835" fill="#1c1c1b"></path>
        <path d="M179.407 232.919c-5.272 2.5-10.738 3.323-16.494 2.21-2.786-.54-5.597-.953-8.4-1.424l-3.613 3.309c.694.178 1.214.341 1.746.444 3.68.71 7.347 1.504 11.048 2.076 2.815.435 5.685.564 8.513.028 4.073-.771 7.975-2.06 11.58-4.15 3.607-2.09 6.848-4.611 9.53-8.137l-6.371.733c-2.379 1.958-4.826 3.625-7.54 4.911" fill="#1c1c1b"></path>
        <path d="M52.98 192.492c2.564.804 4.985 1.86 7.216 3.383 2.726 1.86 5.224 3.967 7.378 6.42h6.07c-.156-.348-.203-.535-.31-.676-3.676-4.874-8.091-8.886-13.558-11.693-2.117-1.088-4.367-1.779-6.613-2.522-3.481-1.152-6.915-2.45-10.493-3.73.305 1.892.21 3.832.898 5.715 3.192 1.057 6.288 2.123 9.412 3.103" fill="#1c1c1b"></path>
        <path d="M110.623 219.37c1.524.387 3.023.87 4.591 1.327 1.444-.604 2.73-1.474 3.741-2.74-.122-.1-.204-.196-.309-.245-3.713-1.734-7.604-2.78-11.678-3.301-4.219-.54-8.35-.337-12.442.78-.815.222-1.606.572-2.433.708-2.656.438-5.325.803-8.154 1.221l2.972 3.996c2.898-.613 5.756-1.138 8.572-1.831 5.066-1.248 10.104-1.197 15.14.085" fill="#1c1c1b"></path>
        <path d="M221.006 193.208c.122-.394.044-.846.09-1.268.334-3.067.811-6.125.979-9.2.171-3.155.06-6.327.032-9.49-.006-.638-.19-1.273-.318-2.069l-4.778 3.275c.106 8.042-.669 15.862-2.258 23.852 2.35-.833 3.935-2.175 5.495-3.518.409-.351.583-1.024.758-1.582" fill="#1c1c1b"></path>
        <path d="M82.105 235.585c6.851-.427 20.747-3.368 23.493-5.262l-3.96-3.447c-8.065 2.263-16.157 3.834-24.616 4.168 1.443 2.024 3.242 3.343 5.083 4.54" fill="#1c1c1b"></path>
        <path d="m76.678 208.222-4.997.634c3.861 7.392 8.244 14.104 13.709 20.099l5.683-.95c-3.111-3.144-5.592-6.293-7.842-9.61-2.239-3.301-4.328-6.704-6.553-10.173" fill="#1c1c1b"></path>
        <path d="M17.29 173.46c3.756 3.69 15.223 11.012 19.576 12.569l-.465-5.554c-6.954-3.793-13.472-8.275-19.552-13.683-.268 2.399.104 4.486.441 6.667" fill="#1c1c1b"></path>
        <path d="m133.315 232.42-5.294-2.586c-6.691 4.2-13.813 7.635-21.633 10.173 1.86 1.348 3.68 2.133 5.562 2.96 7.566-2.722 14.545-6.275 21.365-10.548" fill="#1c1c1b"></path>
        <path d="M147.423 231.727c-8.395-2.645-16.16-6.096-23.401-10.763l-2.747 3.342c7.09 4.393 14.377 8.132 22.271 10.568z" fill="#1c1c1b"></path>
        <path d="M174.614 221.825c-7.6.118-14.838-.844-22.1-2.927l-4.489 3.449c7.705 2.567 15.312 3.708 23.011 4.204z" fill="#1c1c1b"></path>
        <path d="M54.72 220.455c11.443 1.818 21.115 1.959 23.093 1.237l-2.676-3.978c-7.927.153-15.745-.634-23.487-2.23l-.238.34c.767 1.16 1.517 2.33 2.308 3.473.307.443.706.823 1 1.158" fill="#1c1c1b"></path>
        <path d="M65.372 215.995c-3.438-6.713-6.342-13.36-8.305-20.494l-3.983-1.613c-.099 3.036 4.736 17.159 7.378 21.678z" fill="#1c1c1b"></path>
        <path d="m159.275 226.617-3.755-.736c-5.47 5.791-11.641 10.784-18.71 15.323l5.226 1.055c6.345-4.68 12.174-9.649 17.239-15.642" fill="#1c1c1b"></path>
        <path d="m184.177 214.127-3.174.37c-4.126 7.048-9.094 13.495-14.782 19.616h5.243c3.234-3.026 10.611-14.883 12.713-19.986" fill="#1c1c1b"></path>
        <path d="M227.664 160.017c-5.46 5.157-11.653 9.004-17.686 13.313l-.362 4.334c6.705-4.348 13.013-8.506 18.796-13.304z" fill="#1c1c1b"></path>
        <path d="M118.135 233.749c.04-.02.058-.086.136-.21-6.37-3.92-12.21-8.535-17.593-13.753l-4.045.593c5.936 5.416 11.463 10.789 17.787 15.18 1.316-.64 2.516-1.223 3.715-1.81" fill="#1c1c1b"></path>
        <path d="M43.5 196.99c-1.883-7.855-2.725-15.576-2.656-23.484l-2.82-1.614c-.36 8.033-.042 15.799 1.488 23.478z" fill="#1c1c1b"></path>
        <path d="M49.613 172.647c-2.364-1.129-4.595-2.088-6.723-3.24-2.132-1.152-4.196-2.441-6.224-3.771-1.984-1.301-3.884-2.73-5.888-4.149-.198 1.292-.38 2.48-.576 3.748 6.039 4.351 12.288 7.891 19.187 10.64z" fill="#1c1c1b"></path>
        <path d="M215.276 185.793c-7.4 4.3-14.94 7.206-22.852 9.142-.162.665-.302 2.241-.503 3.066 8.04-1.497 15.564-4.995 22.818-8.412z" fill="#1c1c1b"></path>
        <path d="m42.598 203.555 6.72 1.82 5.809 1.265-1.728-5.086c-8.03-2.004-15.47-5.14-22.856-9.04.147 2.679 1.114 4.867 2.21 7.283 3.3 1.26 6.572 2.51 9.845 3.758" fill="#1c1c1b"></path>
        <path d="M59.18 226.136c-2.515-1.668-4.602-3.77-6.555-6.032-1.955-2.267-2.935-5.08-4.218-7.902l-2.275-5.824c-1.24-.75-2.507-1.34-4.288-1.403l.378 2.118 2.78 7.891c3.604 11.875 16.926 20.348 26.428 20.78l-4.248-5.691a34.4 34.4 0 0 1-8.001-3.937" fill="#1c1c1b"></path>
        <path d="M41.3 209.902s-1.734.009-4.003-1.833-3.783-4.26-5.255-6.738c-2.764-4.653-3.239-9.833-3.671-15.038-.095-1.138-.196-2.276-.285-3.302l-4.448-2.888c0 .497-.015.736.003.972.277 3.633.485 7.272.862 10.895.334 3.207 1.067 6.346 2.515 9.256 3.55 7.133 8.787 12.612 16.004 16.11.516.251 1.054.459 1.748.758l-1.364-3.142z" fill="#1c1c1b"></path>
        <path d="m197.796 217.56.13-.056.161-.07.795-.344c.675-1.607 1.39-3.31 2.127-5.06l.308-.688c2.22-5.43 3.838-11.03 5.031-16.808l-4.584 1.527c-1.074 3.538-2.008 6.991-3.176 10.363-1.185 3.418-2.601 6.757-3.977 10.286l-.675 2.188 2.537-.765z" fill="#1c1c1b"></path>
        <path d="M197.303 205.557c-7.93 1.8-15.748 2.496-23.788 2.623a191 191 0 0 1-5.485-.146 27 27 0 0 0-4.684.219c-1.256.17-2.492.359-3.665.698h-.002q-.314.09-.62.197l-1.92.608-.167.057-1.23.425-1.598.566-1.397.676-.773.374-1.393.674-.073.035-1.173.568-1.908 1.265c-4.344 3.294-8.004 7.583-12.807 10.918l5.398 2.36c1.712-1.451 3.388-2.851 5.041-4.278 1.656-1.429 3.196-3.01 4.95-4.304 3.97-2.932 8.534-4.54 13.298-5.52 2.65-.622 7.807-.268 7.807-.268 8.166.718 16.12-.254 24.094-1.626.645-2.04 1.759-3.835 2.095-6.12" fill="#1c1c1b"></path>
        <path d="M193.728 185.793s1.634-.425 2.6-.891c2.02-.974 4.015-1.995 6.044-3.007v-3.951c-.46.246-.834.432-1.195.642-2.51 1.455-4.561 2.74-7.224 3.862z" fill="#1c1c1b"></path>
        <path d="M190.859 188.293c-.74 3.06-1.36 6.142-2.245 9.146-.89 3.02-2.042 5.964-3.105 9.014l2.444-.204c2.547-5.907 3.671-12.102 4.426-18.54.27-2.166.488-6.04.488-6.04.092-2.778.178-5.496-.33-8.188-.097-.514-.208-1.042-.493-1.447-.382-.543-1.195-.585-1.608-.065a.9.9 0 0 0-.18.415c-.082.408.076.836.417 1.074l.006.004c.154.106.32.198.533.315a.8.8 0 0 1 .416.702l-.044 7.678c-.088 3.435-.725 6.136-.725 6.136" fill="#1c1c1b"></path>
        <path d="M21.845 185.512c-1.663-2.036-2.99-4.274-4.071-6.664-1.52-3.355-2.496-6.87-2.426-10.551.046-2.413.508-4.821.848-7.223.245-1.733.598-3.451.902-5.178l-4.58-5.025c-.085.194-.15.3-.18.415-1.153 4.645-1.965 9.346-2.619 14.09-.485 3.515-.066 6.88.772 10.244 1.39 5.581 4.07 10.5 7.823 14.832 1.495 1.726 3.229 3.207 5.2 4.615l-1.027-8.633c-.225-.326-.412-.642-.642-.922" fill="#1c1c1b"></path>
        <path d="M39.792 41.237c1.515-2.235 3.445-4.091 5.506-5.803 2.165-1.797 4.577-3.188 7.194-4.253 3.834-1.562 7.91-1.686 11.93-2.153 1.074-.125 2.154-.197 3.108-.283l3.144-4.785c-4.544-.094-8.967-.03-13.366.578-1.38.191-2.78.377-4.113.766-7.2 2.1-12.897 6.376-17.46 12.253-1.76 2.27-3.092 4.78-4.242 7.632 2.222-.886 4.24-1.707 6.27-2.493.812-.314 1.521-.71 2.03-1.459" fill="#1c1c1b"></path>
        <path d="M124.683 5.305c2.719-.217 5.433-.439 8.164-.006 2.827.448 5.598 1.054 8.21 2.257 2.845 1.312 5.233 3.295 7.63 5.257 1.452 1.188 2.88 2.405 4.29 3.586l5.506-1.216c-.204-.264-.29-.414-.411-.527-3.28-3.078-6.599-6.102-10.336-8.647-6.547-4.457-13.652-6.608-21.627-5.864a36.1 36.1 0 0 0-10.324 2.504l6.71 3.03c.755-.133 1.467-.316 2.188-.374" fill="#1c1c1b"></path>
        <path d="M241.6 114.537c-1.3 3.063-2.684 6.092-4.082 9.252l2.8 5.51c1.784-3.856 3.445-7.433 5.094-11.017 1.3-2.822 2.324-5.761 2.584-8.85.227-2.71.205-5.44-.18-8.181-.855-6.09-3.178-11.516-6.911-16.55l-.984 6.874c1.735 3.598 2.823 7.273 3.23 11.196.424 4.079.05 7.996-1.55 11.766" fill="#1c1c1b"></path>
        <path d="M100.13 7.594c4.1-.742 8.219-.915 12.28.261 1.334.386 2.633.91 3.919 1.44 2.344.968 4.668 1.987 6.974 2.973l4.452-2.377c-3.794-1.84-7.28-3.557-10.786-5.228-5.676-2.704-11.66-3.135-17.76-2.128-5.11.843-9.71 2.962-13.794 6.164-.243.19-.43.453-.718.764l6.488 1.007c2.98-1.301 5.897-2.324 8.944-2.876" fill="#1c1c1b"></path>
        <path d="M215.38 45.886c2.186 2.874 4.024 5.949 4.777 9.528.422 2.009.687 4.055.933 6.094.239 1.982.362 3.978.547 6.098l4.824 2.933c-.233-3.37-.388-6.451-.674-9.52-.282-3.019-.61-6.045-1.625-8.933-2.134-6.072-5.9-10.97-10.874-14.985-2.456-1.98-5.135-3.562-8.31-4.615l2.432 5.985c3.016 1.91 5.708 4.439 7.97 7.415" fill="#1c1c1b"></path>
        <path d="M4.921 128.524c-.123-3.103-.327-5.83-.305-8.555.014-1.748.198-3.53.595-5.23.894-3.831 2.529-7.342 5.042-10.415 1.807-2.209 3.578-4.448 5.472-6.808l-1.016-5.192c-.613.477-1.298.898-1.847 1.453a59.4 59.4 0 0 0-8.334 10.583C1.553 109.173.056 114.41.002 120.042c-.02 2.18.095 4.375.35 6.539.298 2.516 1.071 4.929 2.176 7.478z" fill="#1c1c1b"></path>
        <path d="M23.649 59.875c3.035-4.45 6.809-8.06 11.966-9.997 3.053-1.146 6.096-2.318 9.144-3.48.515-1.58 1.029-3.162 1.612-4.956-.494.103-.778.13-1.04.22-3.776 1.312-7.564 2.59-11.316 3.966a24.2 24.2 0 0 0-6.499 3.605C21.094 54.216 16.951 60.7 14.964 68.566c-.262 1.036-.345 2.116-.564 3.517l5.4-4.135c.912-2.914 2.17-5.611 3.849-8.073" fill="#1c1c1b"></path>
        <path d="M6.732 147.675c-.53-4.319-.016-8.455 1.693-12.44 1.262-2.946 2.579-5.868 3.917-8.902l-2.32-4.537c-.272.434-.458.676-.59.945-1.75 3.602-3.51 7.2-5.234 10.814-1.702 3.568-2.253 7.409-2.339 11.294-.044 1.978.31 3.977.611 5.948.734 4.804 2.557 9.2 5.193 13.266.167.259.42.462.705.767.355-2.221.708-4.244.983-6.277.07-.515.005-1.11-.193-1.588-1.242-2.987-2.03-6.07-2.426-9.29" fill="#1c1c1b"></path>
        <path d="M249.805 125.192c-.292-2.816-1.014-5.584-2.277-8.268-.342.744-.677 1.45-.992 2.165-.341.775-.575 1.614-1.017 2.326-.693 1.117-.722 2.288-.557 3.507.983 7.254-.265 14.038-4.405 20.151-1.903 2.81-3.984 5.499-6.114 8.419l.977 4.356c3.226-3.102 6.012-6.228 8.462-9.638 1.699-2.365 3.237-4.825 4.237-7.6a30.5 30.5 0 0 0 1.718-7.768c.215-2.534.23-5.123-.032-7.65" fill="#1c1c1b"></path>
        <path d="M63.965 21.854a36.9 36.9 0 0 1 11.774-6.008c2.702-.816 5.477-1.194 8.272-.898 3.547.376 7.073.962 10.668 1.467l3.257-2.844c-.29-.118-.396-.182-.511-.206-3.668-.748-7.338-1.484-11.005-2.238-3.921-.806-7.815-.645-11.694.286-4.859 1.166-9.229 3.343-13.115 6.457-1.866 1.496-3.549 3.199-4.971 5.247 1.897-.12 3.654-.162 5.39-.38.675-.084 1.38-.46 1.935-.883" fill="#1c1c1b"></path>
        <path d="M230.684 67.068c3.06 4.761 4.771 9.962 4.586 15.653-.073 2.232-.511 4.457-.869 6.671-.335 2.082-.784 4.145-1.17 6.153l3.444 3.766c.186-.134.265-.16.274-.202 1.032-4.723 1.918-9.462 2.484-14.277.357-3.036.038-5.953-.633-8.825-1.288-5.52-3.85-10.459-7.538-14.785-1.288-1.511-2.712-2.882-4.534-4.155l.63 5.313c1.222 1.713 2.343 3.156 3.326 4.688" fill="#1c1c1b"></path>
        <path d="M32.571 120.025c.763-2.168 1.48-4.022 2.066-5.916.825-2.665 1.196-5.416 1.558-8.182.393-2.995.203-5.923-.321-8.851-.405-2.259-.967-4.489-1.39-6.744-.41-2.186-.733-4.388-1.109-6.677l-4.539 3.405c0 .37-.052.681.009.968.546 2.6 1.125 5.193 1.669 7.793.308 1.477.708 2.954.826 4.45.376 4.76.047 9.452-1.887 13.947 1.07 1.952 1.807 3.853 3.118 5.807" fill="#1c1c1b"></path>
        <path d="M6.316 99.304c1.593-1.725 2.63-3.624 2.369-6.057a1.8 1.8 0 0 1 .051-.545c.84-4.012 2.26-7.786 4.454-11.274 1.825-2.902 4.357-5.05 7.106-6.992 1.981-1.399 3.967-2.792 5.93-4.174l.377-5.14c-3.646 2.262-6.9 4.595-10.087 7.033-4.74 3.627-7.921 8.343-9.958 13.893-1.049 2.857-1.882 5.788-2.146 8.815-.198 2.274-.039 4.58-.039 7.097.729-1.01 1.253-1.91 1.943-2.656" fill="#1c1c1b"></path>
        <path d="m220.338 136.159-2.759-5.395c-.228.318-.359.449-.431.607-2.345 5.078-3.413 10.455-3.68 16.006-.123 2.558.351 5.06.87 7.557.603 2.9 1.128 5.817 1.665 8.73.195 1.058.33 2.127.524 3.398l4.484-3.231c0-.47.063-.844-.01-1.188a722 722 0 0 0-2.044-9.387c-.511-2.258-.85-4.561-.687-6.849.249-3.494.755-6.974 2.068-10.248" fill="#1c1c1b"></path>
        <path d="m29.867 140.658 3.933 4.344c.292-1.865.691-3.47.763-5.09.13-2.911.187-5.82-.235-8.74-.596-4.136-1.782-8.035-3.72-11.74-1.433-2.738-2.705-5.562-4.03-8.356-.407-.858-.754-1.746-1.185-2.754l-3.29 4.523c1.61 3.225 3.186 6.44 4.81 9.63 2.54 4.992 3.404 10.325 3.28 15.86-.018.777-.214 1.55-.326 2.323" fill="#1c1c1b"></path>
        <path d="m224.201 141.336 3.216-4.228c-.231-.542-.42-1.048-.657-1.529-1.184-2.394-2.344-4.8-3.581-7.166-1.996-3.817-3.07-7.875-3.262-12.164-.08-1.794-.045-3.593-.064-5.49-1.233-1.351-2.52-2.763-4.027-4.412-.22 1.517-.49 2.693-.543 3.878-.147 3.336-.25 6.674.318 9.995.575 3.363 1.49 6.61 3.006 9.68 1.61 3.255 3.187 6.527 4.779 9.791.248.51.503 1.015.815 1.645" fill="#1c1c1b"></path>
        <path d="M213.865 91.68c-.66-2.116-.975-4.34-1.462-6.606l-4.298-2.794c.112 1.757.147 3.202.308 4.634.444 3.95 2.008 7.562 3.534 11.17 1.096 2.589 2.707 4.88 4.553 6.994 2.832 3.244 5.687 6.468 8.54 9.708.31-.641.7-1.392 1.037-2.166.334-.766.615-1.555.944-2.395-2.069-2.323-4.032-4.64-6.12-6.838-1.517-1.597-2.892-3.283-3.983-5.188-1.196-2.087-2.338-4.229-3.053-6.519" fill="#1c1c1b"></path>
        <path d="m115.79 18.49 5.543 2.935c7.213-4.506 14.866-7.781 22.906-10.352-2.338-1.883-4.93-2.846-7.644-3.562-7.338 2.795-14.135 6.55-20.805 10.979" fill="#1c1c1b"></path>
        <path d="M58.326 52.712c-1.285 4.546-3.588 8.491-6.72 11.964-1.499 1.663-3.162 3.178-4.904 4.914l.342 4.6c3.112-2.123 5.655-4.346 7.875-6.966 3.018-3.561 5.41-7.447 6.836-11.922.99-3.11 2.114-6.18 3.188-9.263.247-.71.537-1.404.91-2.375l-4.723.575c-.947 2.835-1.997 5.62-2.804 8.473" fill="#1c1c1b"></path>
        <path d="m27.804 79.018 5.02-3.412c.117-2.84.171-5.513.352-8.177.185-2.722.412-5.446.771-8.149.345-2.589.883-5.152 1.35-7.81-2.342 1.009-4.317 2.288-6.087 4-1.5 7.673-1.67 15.457-1.406 23.548" fill="#1c1c1b"></path>
        <path d="m27.74 127.764-2.564-5.897c-4.437 6.856-7.817 13.687-10.285 21.056l4.217 5.306c2.196-7.219 4.882-14.032 8.632-20.465" fill="#1c1c1b"></path>
        <path d="M235.475 168.13c-.732-7.646-2.238-15.13-4.84-22.683-1.37 1.529-2.568 2.864-3.807 4.244 2.128 7.798 3.298 15.722 3.752 23.875 2.16-1.419 3.502-3.279 4.895-5.436" fill="#1c1c1b"></path>
        <path d="M14.784 81.494c.067 1.169.065 2.266.202 3.346.72 5.647 1.711 11.244 3.252 16.731.4 1.426.897 2.825 1.388 4.36l3.622-3.979c-2.474-8.083-3.822-16.23-4.366-24.675-1.78 1.099-2.818 2.663-4.098 4.217" fill="#1c1c1b"></path>
        <path d="M75.757 28.604c7.75.317 15.202 1.118 22.74 2.57l4.375-3.826c-8.03-2.016-15.898-2.827-23.867-3.335-1.08 1.528-2.115 2.989-3.248 4.59" fill="#1c1c1b"></path>
        <path d="M232.796 131.254c-4.128 6.433-8.662 12.247-13.825 17.472.416 1.811.208 3.61 1.087 5.37 5.59-5.4 10.972-10.804 15.139-17.387z" fill="#1c1c1b"></path>
        <path d="M221.556 75.802c.038 7.753-1.34 15.114-3.174 22.468l3.589 4.412c2.441-7.86 3.769-15.646 4.254-23.522-1.528-1.219-2.878-2.403-4.669-3.358" fill="#1c1c1b"></path>
        <path d="M240.525 142.553c.704-1.41 1.38-2.832 2.045-4.206-2.63-7.408-6.197-14.209-10.457-20.897l-2.344 4.81c4.19 6.794 7.275 14.032 9.844 21.756.41-.652.7-1.038.912-1.463" fill="#1c1c1b"></path>
        <path d="m89.915 23.528 5.218.753c5.522-5.516 11.594-10.305 18.22-14.592-2.168-1.006-4.302-1.051-6.34-1.364-5.474 3.518-15.747 12.64-17.098 15.203" fill="#1c1c1b"></path>
        <path d="M231.283 102.427c-2.31 7.353-5.159 14.094-8.869 20.44.55 1.915 1.146 3.702 2.33 5.326 4.737-7.739 8.076-14.933 9.915-21.383z" fill="#1c1c1b"></path>
        <path d="M86.495 30.835c-.778-.092-1.55-.229-2.492-.37-4.88 6.797-8.634 13.918-9.797 22.244 1.725.39 2.748.394 4.611.907.297-9.145 4.38-15.595 10.028-22.591-.908-.071-1.632-.106-2.35-.19" fill="#1c1c1b"></path>
        <path d="M51.897 44.543c8.136-1.894 15.937-2.714 23.853-2.624l2.064-4.297c-4.622-.195-11.25-.703-23.668 1.935z" fill="#1c1c1b"></path>
        <path d="M21.985 91.238c6.005-5.692 12.524-10.293 19.44-14.166l-.365-4.494c-7.385 3.714-13.89 8.306-19.958 13.513z" fill="#1c1c1b"></path>
        <path d="M28.037 173.86c.474-7.63 1.54-14.903 3.468-21.94l-3.564-3.827c-2.368 7.467-3.582 14.898-4.126 22.621z" fill="#1c1c1b"></path>
        <path d="M233.738 78.155c-5.214-5.037-13.41-10.411-20.175-12.588l.33 4.167c3.738 1.711 7.267 3.743 10.474 6.263 3.19 2.506 6.26 5.166 9.371 7.75z" fill="#1c1c1b"></path>
        <path d="M64.798 36.485c1.817-.174 3.306-.316 4.83-.46 3.921-7.048 8.499-13.578 14.144-19.831l-5.793.424c-5.17 6.163-9.443 12.64-13.181 19.867" fill="#1c1c1b"></path>
        <path d="M7.308 112.045c2.645 7.334 6.272 13.926 10.322 20.471l2.01-4.032c-3.984-6.885-7.007-14.073-9.625-21.846z" fill="#1c1c1b"></path>
        <path d="M7.998 142.771c3.63 5.257 10.29 12.977 15.619 17.229l.827-4.183a106 106 0 0 1-15.246-18.773c-.647 1.968-1.22 3.815-1.2 5.727" fill="#1c1c1b"></path>
        <path d="M23.21 140.425c4.953 6.349 10.443 11.996 16.744 16.995l1.532-3.78c-6.38-4.887-11.775-10.63-16.619-17.176z" fill="#1c1c1b"></path>
        <path d="M241.957 107.99c-4.668-6.22-9.684-11.971-15.665-16.968l-.71 3.285c5.787 5.619 10.718 11.956 15.195 19.144.444-2.06.812-3.759 1.18-5.462" fill="#1c1c1b"></path>
        <path d="M34.826 65.299a97 97 0 0 1 20.482-8.3l1.418-3.622c-7.702 1.594-14.752 3.941-21.621 7.193.12 1.543-.556 3.033-.279 4.729" fill="#1c1c1b"></path>
        <path d="M16.339 119.14c4.181-6.816 8.754-13.07 14.175-18.617-.11-.5-.216-.91-.29-1.325-.08-.446-.13-.897-.236-1.648-6.058 5.257-11.184 10.937-15.484 17.284z" fill="#1c1c1b"></path>
        <path d="M103.391 18.66c8.3 2.47 16.123 5.664 23.327 10.1l1.836-1.288c-6.974-4.74-14.259-8.526-22.063-11.316z" fill="#1c1c1b"></path>
        <path d="M132.348 17.044c3.306 2.311 6.585 4.402 9.632 6.79 3.049 2.39 5.864 5.077 8.815 7.662.623-.36 1.162-.395 2.153-.842-5.047-5.574-13.725-13.248-17.065-15.081z" fill="#1c1c1b"></path>
        <path d="M135.074 37.58a.69.69 0 0 0 .68-.043l.007-.004a.87.87 0 0 0 .403-.81c-.121-1.461-.738-2.474-2.7-4.66-.511-.572-1.067-1.103-1.613-1.665l-1.385.94 3.968 3.873c.21.206.304.502.254.792-.146.844-.01 1.371.386 1.578" fill="#1c1c1b"></path>
        <path d="M54.549 140.293c-1.187.231-2.093.876-2.98 1.512-3.537 2.535-6.056 5.926-8.02 9.758-1.934 3.776-3.187 7.797-4.188 11.904-.167.686-.287 1.382-.427 2.06l2.15 1.34 1.855-8.73.728-2.008c2.081-5.739 4.771-10.992 9.903-14.527a.8.8 0 0 1 .594-.125l.428.078a.623.623 0 0 0 .736-.612.658.658 0 0 0-.78-.65" fill="#1c1c1b"></path>
        <path d="M208.266 177.24c.051-.79.01-1.59.12-2.37.578-4.071 1.926-7.886 3.959-11.457.686-1.206 1.43-2.378 2.122-3.523l-1.272-5.578c-.384.51-.751.946-1.077 1.364l-.006.007q-.114.147-.221.29l-1.483 1.943-1.339 2.17c-.152.164-.26.373-.36.583-.986 2.086-2.107 4.127-2.877 6.291-1.179 3.312-1.93 6.723-1.956 10.298-.02 2.84-.39 5.678-.628 8.516-.12 1.433-.292 2.863-.465 4.53l4.757-1.992c.244-3.714.49-7.393.726-11.073" fill="#1c1c1b"></path>
        <path d="M212.531 79.112c.548-7.963-.889-21.218-2.33-25.18l-2.8-.854-1.36-.276.285 1.355c1.599 7.457 2.28 14.863 2.016 22.355z" fill="#1c1c1b"></path>
        <path d="M196.917 45.193c-.675-.146-1.356-.267-2.252-.442l.702 2.815 5.187 1.509 1.46.565 5.738 1.87 2.573 1.093c.131.076.276.132.422.186l.958.42c2.058.982 4.127 1.94 6.195 2.902.286.133.588.23 1.036.402-.12-1.765-.877-3.075-1.395-4.495-1.822-.734-3.616-1.449-5.402-2.182a6 6 0 0 0-.234-.092l-1.834-.815-3.802-1.183c-.424-.17-.733-.27-1-.31l-3.022-.88a3 3 0 0 0-.263-.07l-2.906-.768.002-.01c-.764-.183-1.461-.362-2.163-.515" fill="#1c1c1b"></path>
        <path d="M47.715 54.23c1.773-7.956 4.738-15.538 8.954-23.048l-5.494 1.938-4.318 11.012-1.058 3.87c-.732 2.424-1.392 4.87-1.81 7.467z" fill="#1c1c1b"></path>
        <path d="M138.61 22.987c-6.703 2.857-12.509 6.926-17.581 12.055-1.799 1.745-4.185 5.457-4.185 5.457-1.763 2.312-2.38 3.593-2.252 4.812.037.345.315.63.662.632a.66.66 0 0 0 .399-.13.83.83 0 0 0 .304-.878l-.091-.368c-.07-.285-.02-.586.137-.832l1.628-2.545c1.18-1.844 4.557-4.888 4.557-4.888 5.681-5.08 12.035-8.757 19.238-11.266z" fill="#1c1c1b"></path>
        <path d="m46.144 61.42-3.315 1.549c-.147 2.42-.425 4.667-.382 6.908.052 2.726.358 5.448.585 8.17q.095 1.11.336 2.168.016.072.034.143.041.174.085.345l.24.892 2.796-1.948c-.015-.06-.041-.104-.056-.142l-.09-.28c-.039-.16-.036-.086-.233-1.178l-.002.002a21 21 0 0 1-.5-3.444c-.207-3.384-.372-6.808.236-10.197.17-.954.177-1.937.266-2.987" fill="#1c1c1b"></path>
        <path d="M63.743 153.79c.263-.16.588-.176.837.004l.621.447a.72.72 0 0 0 .904-.05l.07-.063c.48-.433.515-1.178.07-1.648-.416-.44-.82-.497-1.516-.337-1.832.42-3.395 1.291-4.827 2.58-3.938 3.77-5.68 9.063-5.68 9.063-3.172 7.76-3.816 15.057-2.97 21.605l4.063 1.25c-.493-6.641-.436-13.323 1.155-19.774 0 0 1.353-9.447 7.273-13.077" fill="#1c1c1b"></path>
        <path d="M158.826 10.435c4.586 1.153 8.804 3.032 12.44 6.156 1.874 1.61 3.268 3.597 4.794 5.482 1.446 1.788 2.772 3.673 4.13 5.487h5.468c-.149-.32-.224-.54-.345-.731-2.125-3.327-4.227-6.668-6.391-9.969-3.436-5.24-8.344-8.595-14.102-10.813-3.07-1.182-6.252-1.838-9.525-2.27-2.67-.354-5.219.057-7.948.227l7.502 5.65c1.247.241 2.63.442 3.977.78" fill="#1c1c1b"></path>
        <path d="m144.524 20.524 2.97 2.683c7.94-2.206 15.967-3.596 24.572-4.195l-4.466-3.577c-7.926.588-15.517 2.346-23.076 5.089" fill="#1c1c1b"></path>
        <path d="m171.821 29.213 2.181 3.183c8.387-.133 16.494.835 24.772 2.672-.863-1.925-1.814-3.429-3.098-4.897-7.84-1.03-15.755-1.9-23.855-.958" fill="#1c1c1b"></path>
        <path d="M184.393 34.192c.258.526.372.805.523 1.06 4.101 6.905 6.619 14.387 8.115 22.243.075.393.068.96.19 1.515.938.12 2.006.24 2.91.355-1.03-8.492-3.224-16.982-6.885-24.65z" fill="#1c1c1b"></path>
        <path d="M183.229 20.038c.503.21 1.008.415 1.51.626 5.561 2.34 10.242 5.784 13.643 10.844 1.543 2.296 2.406 4.896 3.39 7.443l1.59 4.121.645 2.369 2.683.88 1.242.408.757.249-.178-.565c-.09-.303-.17-.592-.27-.861l-1.239-3.934a65 65 0 0 0-1.712-4.793c-1.03-2.592-2.018-5.221-3.625-7.523-4.59-6.573-10.817-10.902-18.454-13.233-1.185-.362-2.413-.58-3.794-.907l3.23 4.62c.144.063.361.163.582.256" fill="#1c1c1b"></path>
        <path d="M180.58 45.103c2.616.262 5.265.68 8.039 1.177l-1.14-2.875c-2.74-.24-5.333-.524-7.933-.679z" fill="#1c1c1b"></path>
        <path d="M163.763 30.419a.28.28 0 0 0-.259-.103c-3.344.459-6.386.973-9.212 1.63l-2.185.548c-1.646.502-2.806 1.002-4.204 1.896a12.8 12.8 0 0 0-5.01 6.108c-.057.143-.086.225-.086.225-.616 1.825-.796 3.606-.456 5.454.146.794.4 1.137 1.156 1.334a1 1 0 0 0 1.191-.65l.006-.017c.151-.447-.03-.94-.435-1.182l-.289-.173a1 1 0 0 1-.467-1.066l.374-1.793a.3.3 0 0 1 .022-.067s.314-6.956 18.413-8.85c1.01-.145 2.017-.322 3.126-.506a.284.284 0 0 0 .175-.457z" fill="#1c1c1b"></path>
        <path d="M164.786 62.988c2.713-.06 6.331-.047 10.828.169l.786-4.846c-4.588-.295-8.58-.398-11.614-.422z" fill="#1c1c1b"></path>
        <path d="M183.634 63.7c6.432.557 14.072 1.493 22.876 3.021.11-.156.18-.209.176-.255-.094-1.142-.196-2.283-.32-3.684-7.563-1.93-15.3-3.113-22.284-3.832z" fill="#1c1c1b"></path>
        <path d="M196.453 71.7c.25-1.991.147-3.206.28-5.39-.863-.167-1.685-.247-2.589-.392-.043 2.203.079 3.316-.123 5.238z" fill="#1c1c1b"></path>
        <path d="m219.098 88.3.371-2.687c-4.632-3.445-9.243-6.939-14.49-9.36-7.129-3.289-12.202-4.218-12.202-4.218-8.138-1.496-14.34 1.66-14.34 1.66 2.461-3.846 4.186-6.269 4.648-14.133q0-.321-.007-.642c-.095-4.182-1.106-8.363-2.88-12.553l-2.578-5.177c-4.048-7.042-8.257-13.894-13.605-19.952-1.734.273-3.443.375-5.232.883 5.617 5.952 10.2 12.417 14.192 19.28l2.19 4.966c1.41 3.119 2.1 6.325 2.361 9.585a19.3 19.3 0 0 1-.054 3.574c-.58 4.134-1.577 9.017-5.846 14.981-1.095 1.255-2.53 2.432-4.171 3.514-3.417 1.976-6.621 3.462-10.46 4.906 5.352-6.602 6.888-12.85 6.787-21.893 0 0 .001-14.056-6.832-25.185l-2.778.808c4.071 8.27 5.69 19.174 5.836 24.859q.007 1.291-.063 2.563l-.026.44a39 39 0 0 1-.388 3.51c-.69 4.304-2.075 8.012-3.566 10.997-1.458 2.859-3.331 5.637-5.657 8.341-6.305 7.332-16.055 11.357-20.24 20.24-2.317-16.43 5.298-36.104 21.45-42.556 1.22-.487 4.735-1.426 7.267-1.73l-.173-5.363c-6.017.425-8.677 1.273-10.207 1.903-10.22 4.208-19.27 15.78-22.143 26.295-2.951-7.97-10.883-19.265-20.818-23.616a124 124 0 0 0-10.056-3.889l-.345 4.235c2.111.782 4.131 1.63 5.982 2.549 16.333 8.104 23.452 24.902 21.085 42.172-1.296-3.557-3.87-6.193-6.76-8.548-8.87-7.33-11.74-8.837-16.384-16.784-.58-.992-2.096-4.708-2.498-5.717-2.328-5.856-3.949-14.689-1.797-21.742 3.968-13.004 12.926-22.4 21.624-29.478l-5.88-2.88C93.577 36.09 87.285 53.42 87.567 62.494c.408 6.632 1.556 15.441 5.292 20.433-5.605-1.872-7.842-2.241-10.952-5.826-1.607-4.37-2.524-12.27-2.894-17.747l-5.047-1.057c-.106 6.812.174 15.615 2.237 19.486 0 0-16.226-6.644-28.61 2.372-1.527 1.023-4.476 3.353-4.476 3.353-4.924 4.66-6.926 9.386-6.926 9.386.213 1.036.075.478.385 1.747 2.638-3.777 5.257-6.6 7.56-8.678l4.252-3.33c2.074-1.382 3.378-1.886 3.378-1.886l2.422-.903C67.366 75.896 86.832 85.46 99.08 93.87c4.02 2.76 11.746 8.697 14.706 11.817 9.632 12.983 7.916 31.365 3.307 48.454-3.932 13.087-3.353 13.04-6.449 19.112-2.883 5.653-10.105 8.59-13.591 8.955-11.267 1.177-26.059-1.257-40.278-6.76l-.099 3.036c13.341 6.92 22.9 10.853 31.83 12.432-1.592 5.092-4.952 9.587-13.651 12.324-7.639 1.155-7.713.687-11.133.267-.612-.095-1.675-.39-2.681-.219l1.748 4.14c26.183 1.232 24.471-8.527 39.93-13.204 0 0-12.68 9.56-8.954 19.725l3.875-.944c-.617-2.644-1.007-7.42 3.807-11.174 3.692-3.55 5.855-4.847 11.999-5.19 0 0 7.05 9.231 8.28 15.473q.014.095.036.186c.4 1.617.034 3.132-.595 4.601-1.013 2.363-2.837 3.921-5.149 4.902-2.447 1.038-4.936 1.978-7.6 3.037 1.385 1.116 2.496 2.24 4.085 2.926 1.698-.903 3.398-1.825 5.115-2.716 3.767-1.955 5.934-5.109 6.764-9.19 2.02-6.87-3.107-13.659-.433-20.454-.208.47 1.174-2.734 1.19-2.806l.515 2.01s2.882 15.147 15.307 22.588l4.076-3.515c-4.302-3.572-9.013-8.476-8.355-17.903 0 0 16.362 14.208 50.417 3.318.18-.61.834-2.944.994-3.487 0 0-32.138 3.14-38.384-4.784 0 0 20.009 3.706 40.466-3.881l.208-3.31c-45.243 7.036-49.773-9.78-50.87-14.242l-3.932-14.59c-2.798-9.288-3.505-20.037-2.918-27.304.935-11.585 6.899-21.257 14.684-28.193 10.06-8.964 3.379-3.28 13.567-12.025 3.303-2.555 6.87-5.014 10.288-6.79a41 41 0 0 0 1.873-1.03c7.24-3.557 14.204-5.702 19.37-4.72 0 0 6.173 1.237 11.92 3.946 5.319 2.506 10.024 6.037 14.733 9.61m-43.587-47.015 1.068-.048z" fill="#1c1c1b"></path>
        <path d="M63.066 55.488s11.28 1.396 22.91 4.541l.114.031.564-4.01-.065-.016c-13.262-3.426-22.539-3.52-22.539-3.52-.293.984-.732 2.128-.984 2.974" fill="#1c1c1b"></path>
    </g>
</svg>